<svg width="60" height="54" viewBox="0 0 60 54" fill="none" xmlns="http://www.w3.org/2000/svg">
<g clip-path="url(#clip0_622_763)">
<path d="M16.0799 22.2548C16.0799 23.1687 16.1011 24.0836 16.0703 24.9975C16.0568 25.4076 16.1878 25.6476 16.5184 25.8798C17.9881 26.9143 19.4347 27.9814 20.8929 29.0326C21.3545 29.3646 21.7477 29.742 21.6504 30.3852C21.553 31.0284 21.0943 31.2823 20.5449 31.4533C18.843 31.9848 17.1477 32.5401 15.4371 33.0588C15.0333 33.1823 14.8347 33.3918 14.7133 33.8127C14.2016 35.5842 13.6397 37.3409 13.1135 39.1085C12.9583 39.6282 12.7184 40.0352 12.1613 40.1419C11.5744 40.2536 11.1793 39.9591 10.8583 39.4898C9.82037 37.9742 8.76314 36.4724 7.74157 34.9449C7.49967 34.5823 7.23945 34.4608 6.81926 34.4707C5.03536 34.5092 3.25339 34.5053 1.46757 34.5319C0.889318 34.5408 0.392994 34.4568 0.11158 33.8591C-0.154414 33.292 0.0749574 32.8474 0.400704 32.4018C1.46083 30.9612 2.493 29.5009 3.56661 28.0732C3.85573 27.6899 3.92609 27.3727 3.75936 26.9064C3.16666 25.2119 2.62985 23.4977 2.05064 21.7973C1.85789 21.2381 1.78657 20.7194 2.23472 20.26C2.68286 19.8005 3.19846 19.8894 3.73913 20.0801C5.3775 20.6591 7.02647 21.2065 8.65423 21.8032C9.12165 21.9742 9.45896 21.9465 9.86566 21.6215C11.2535 20.5129 12.6827 19.4597 14.083 18.3679C14.5292 18.0211 14.9899 17.8393 15.5151 18.1051C16.0404 18.3709 16.1734 18.8688 16.1647 19.4389C16.1512 20.3775 16.1647 21.3162 16.1647 22.2538L16.0799 22.2548ZM4.90043 22.9909C5.35532 24.3682 5.72155 25.5844 6.16199 26.772C6.47039 27.6 6.38172 28.2689 5.81889 28.9654C5.01994 29.9534 4.30869 31.0185 3.52902 32.0935C4.70094 32.0935 5.78034 32.1844 6.83854 32.0698C8.12225 31.9315 8.96938 32.3662 9.60738 33.5212C10.1384 34.4786 10.84 35.3362 11.5349 36.34C11.9801 34.8876 12.4022 33.5933 12.7665 32.2802C12.9535 31.5955 13.3448 31.2349 13.9905 31.0442C15.2684 30.6638 16.5348 30.2459 17.9322 29.8033C16.7671 28.9605 15.6934 28.1582 14.5928 27.3974C14.0146 26.9963 13.7496 26.5082 13.7746 25.7731C13.8209 24.4176 13.7872 23.058 13.7872 21.5819C12.6538 22.4465 11.5927 23.225 10.5673 24.052C9.98902 24.5154 9.43872 24.6152 8.74386 24.3484C7.52568 23.8692 6.27956 23.472 4.89755 22.9909H4.90043Z" fill="#4BA7E5"/>
<path d="M22.8031 20.6275C23.0479 19.1534 23.2281 17.5212 23.6098 15.9404C23.8989 14.7488 23.6897 13.9357 22.7424 13.1433C21.6196 12.2046 20.6433 11.0823 19.5977 10.0448C19.2064 9.65753 18.9144 9.2475 19.1158 8.64876C19.3182 8.03421 19.7837 7.85834 20.3619 7.77633C22.1275 7.53229 23.8864 7.24577 25.651 6.99975C26.0654 6.94244 26.3005 6.76559 26.4827 6.37334C27.2537 4.72631 28.0594 3.10101 28.8333 1.45793C29.0867 0.920449 29.4019 0.515359 30.0389 0.530179C30.6422 0.544011 30.9371 0.94416 31.1781 1.452C31.9645 3.11583 32.7769 4.76583 33.5624 6.42966C33.7204 6.7646 33.9084 6.92367 34.289 6.97208C36.0778 7.21514 37.8549 7.51549 39.6465 7.77139C40.2248 7.8534 40.6922 8.03124 40.8994 8.64678C41.1075 9.2801 40.7702 9.69507 40.3674 10.0962C39.102 11.351 37.8559 12.6246 36.5731 13.8596C36.2358 14.1846 36.1616 14.4998 36.2406 14.9395C36.5577 16.711 36.8516 18.4875 37.1552 20.262C37.2516 20.833 37.2516 21.3814 36.7283 21.7559C36.205 22.1303 35.7163 21.9584 35.2113 21.6827C33.6414 20.8222 32.0551 19.9922 30.489 19.1208C30.1343 18.9232 29.8703 18.94 29.5252 19.1307C27.8965 20.0311 26.2581 20.9141 24.6101 21.7796C23.6801 22.2647 22.8127 21.7588 22.8031 20.6275ZM22.8445 9.80474C23.7514 10.77 24.5793 11.7452 25.5103 12.6147C26.1695 13.2332 26.316 13.8853 26.1425 14.7419C25.8871 16.0016 25.7078 17.2781 25.4823 18.6377C26.5858 18.0448 27.6392 17.5597 28.6029 16.9304C29.5667 16.301 30.4167 16.2881 31.392 16.9215C32.3673 17.5548 33.4159 18.033 34.5213 18.6268C34.2833 17.2198 34.0905 15.9394 33.8467 14.6747C33.6915 13.8754 33.8322 13.2579 34.4452 12.673C35.3829 11.7837 36.2339 10.7957 37.1485 9.81265C36.0199 9.63678 34.876 9.37594 33.7214 9.30283C32.6102 9.23169 31.9866 8.71001 31.5742 7.6884C31.1357 6.59663 30.5699 5.55822 30.0033 4.37951C29.3759 5.6837 28.7851 6.82684 28.2685 8.00555C27.9245 8.79597 27.4088 9.17438 26.5636 9.26034C25.3166 9.37989 24.0781 9.61702 22.8445 9.80474Z" fill="#4BA7E5"/>
<path d="M55.8522 34.4819C54.9607 34.4819 54.0683 34.5046 53.1768 34.472C52.7585 34.4562 52.5022 34.5787 52.2526 34.9443C51.2454 36.451 50.1969 37.9291 49.1763 39.4279C48.8428 39.916 48.4554 40.2579 47.8338 40.1452C47.2382 40.0385 47.0184 39.587 46.8594 39.0475C46.3419 37.3017 45.7849 35.5687 45.2808 33.8189C45.1594 33.399 44.9608 33.1876 44.559 33.0641C42.8763 32.5483 41.2051 31.994 39.5234 31.4763C38.9509 31.2995 38.4507 31.0623 38.3486 30.3895C38.2464 29.7166 38.6791 29.3471 39.1629 29.0063C40.5883 27.9906 41.9935 26.9452 43.4246 25.9384C43.7928 25.6796 43.947 25.4079 43.9316 24.9376C43.8718 23.1335 43.8631 21.3283 43.8236 19.5242C43.8111 18.9314 43.9046 18.4038 44.4674 18.1143C45.0302 17.8248 45.4928 18.054 45.9545 18.4107C47.3741 19.5153 48.8178 20.5893 50.2335 21.6988C50.5506 21.9478 50.8185 21.9953 51.1973 21.8619C52.8751 21.2542 54.5704 20.6822 56.2473 20.0834C56.7841 19.8927 57.2997 19.7939 57.7536 20.2563C58.2075 20.7187 58.1391 21.2325 57.9464 21.7927C57.3604 23.5158 56.8092 25.2508 56.2184 26.9719C56.0796 27.376 56.122 27.6635 56.3832 28.0123C57.4712 29.4598 58.5198 30.9388 59.5925 32.3981C59.9201 32.8437 60.1495 33.2874 59.8816 33.8555C59.6021 34.4542 59.1009 34.5421 58.5266 34.5313C57.6351 34.5135 56.7427 34.5263 55.8502 34.5263L55.8522 34.4819ZM55.0927 23.007C53.8977 23.418 52.8212 23.6986 51.8227 24.1561C50.7144 24.6649 49.8432 24.5088 48.945 23.6887C48.1181 22.9329 47.1775 22.3104 46.1983 21.5615C46.1983 22.4744 46.2041 23.2412 46.1983 24.0029C46.1684 27.381 46.686 26.3742 43.9961 28.4075C43.388 28.866 42.7645 29.3027 42.0744 29.8026C42.9283 30.0773 43.6453 30.2966 44.3566 30.5367C47.4512 31.5751 46.738 30.8193 47.7547 34.0343C47.986 34.7644 48.2125 35.4966 48.4747 36.3354C49.2784 35.1715 50.0321 34.1568 50.7009 33.0868C51.1722 32.3349 51.7514 32.0217 52.6284 32.0671C53.8813 32.1304 55.1342 32.083 56.468 32.083C55.6363 30.9378 54.8595 29.8293 54.0403 28.7553C53.6201 28.204 53.543 27.6685 53.7734 27.0124C54.2234 25.7339 54.6263 24.4376 55.0947 23.007H55.0927Z" fill="#4BA7E5"/>
<path d="M30.0178 53.4686C27.5062 53.4686 24.995 53.4686 22.4842 53.4686C21.3122 53.4686 20.9595 53.1139 20.9585 51.9371C20.9585 50.2051 20.9287 48.4721 20.9759 46.7411C21.0282 44.701 21.8415 42.759 23.2483 41.3151C24.6551 39.8712 26.5484 39.0352 28.5384 38.9792C30.1035 38.9377 31.6822 38.7945 33.227 39.2361C36.6185 40.2054 38.9315 43.1882 39.024 46.7767C39.0702 48.5551 39.0462 50.3336 39.0384 52.112C39.0384 53.0487 38.6288 53.4577 37.6892 53.4617C35.1314 53.4755 32.5755 53.4686 30.0178 53.4686ZM30.012 51.1082C32.0763 51.1082 34.1416 51.0973 36.207 51.1171C36.6204 51.122 36.7784 51.04 36.764 50.5717C36.7274 49.3703 36.7707 48.1659 36.7457 46.9644C36.6869 44.1347 34.7729 41.8633 32.0551 41.4048C30.8023 41.1934 29.5185 41.2181 28.2657 41.3534C25.6636 41.636 23.7621 43.5103 23.3506 46.1315C23.1193 47.5859 23.3149 49.061 23.2436 50.5243C23.2205 50.9995 23.3612 51.125 23.8218 51.1171C25.8794 51.0934 27.9467 51.1082 30.012 51.1082Z" fill="white"/>
<path d="M29.9551 37.6847C26.7853 37.6768 24.2169 35.017 24.2246 31.7427C24.2323 30.1756 24.8449 28.6754 25.9285 27.5701C27.0121 26.4647 28.4785 25.8442 30.0071 25.8442C30.7701 25.8458 31.5252 26.0021 32.229 26.3041C32.9327 26.6062 33.5712 27.0481 34.1077 27.6043C34.6441 28.1605 35.0679 28.82 35.3545 29.5448C35.6412 30.2697 35.7851 31.0456 35.778 31.8277C35.7539 35.0684 33.146 37.6936 29.9551 37.6847ZM29.9551 35.3431C31.8575 35.3678 33.4496 33.7622 33.4747 31.7961C33.4997 29.8517 31.9057 28.2086 29.9975 28.2105C29.0854 28.2144 28.2108 28.583 27.5598 29.2379C26.9087 29.8928 26.5327 30.7822 26.5116 31.717C26.4644 33.6496 28.0488 35.3184 29.9551 35.3431Z" fill="white"/>
</g>
<defs>
<clipPath id="clip0_622_763">
<rect width="60" height="52.9412" fill="white" transform="translate(0 0.529297)"/>
</clipPath>
</defs>
</svg>
