<svg width="60" height="60" viewBox="0 0 60 60" fill="none" xmlns="http://www.w3.org/2000/svg">
<g clip-path="url(#clip0_622_782)">
<path d="M29.989 59.9977H14.9852C14.2675 60.0229 13.5501 59.9418 12.8561 59.757C11.6396 59.3872 11.0116 58.4047 11.1954 57.1313C11.3945 55.7396 12.0115 54.4836 12.4973 53.1927C13.2784 51.103 14.0946 49.0353 15.1755 47.066C16.5715 44.5278 18.7487 43.2346 21.5757 42.9086C25.4246 42.471 29.2866 42.6329 33.1464 42.6351C35.3345 42.6351 37.5226 42.6744 39.6932 43.1427C40.6694 43.3379 41.5944 43.7332 42.4102 44.3038C43.2259 44.8743 43.9145 45.6077 44.4327 46.4577C45.7608 48.5298 46.6011 50.8339 47.4698 53.1051C47.949 54.3611 48.5354 55.5842 48.7629 56.9234C49.0408 58.5776 48.2356 59.6716 46.5748 59.8948C46.0314 59.9663 45.484 60.0029 44.9359 60.0042C39.95 60.0057 34.9677 60.0035 29.989 59.9977ZM29.989 57.4639H44.739C45.0563 57.4639 45.3714 57.4638 45.6886 57.4507C46.1481 57.4507 46.3188 57.2822 46.1394 56.7943C45.1438 54.1357 44.1898 51.4619 42.971 48.8887C41.877 46.5627 40.0214 45.4577 37.5204 45.3242C32.6278 45.0595 27.7374 45.1054 22.8426 45.2827C19.8953 45.3921 17.8472 46.7115 16.7356 49.4554C16.6788 49.591 16.6175 49.7245 16.5562 49.858C15.6066 51.9258 14.8386 54.0657 14.0574 56.2035C13.6088 57.4267 13.401 57.4529 14.9217 57.4573C19.9565 57.4726 24.9782 57.4639 29.9999 57.4639H29.989Z" fill="white"/>
<path d="M14.7948 20.3778L9.29606 13.0192L3.8083 20.3756C4.49099 20.3756 5.02926 20.3756 5.55878 20.3756C6.52811 20.3756 7.0445 20.881 7.04231 21.8613C7.04231 23.3601 6.98323 24.8568 6.97667 26.3535C6.95479 33.1497 6.93729 39.9453 6.92416 46.7401C6.94127 47.0773 6.90733 47.4151 6.8235 47.7422C6.73873 48.0168 6.56186 48.2539 6.32271 48.4133C6.08356 48.5727 5.79675 48.6448 5.51064 48.6174C5.22642 48.5957 4.95913 48.4739 4.75637 48.2735C4.55361 48.0732 4.42854 47.8073 4.40346 47.5234C4.37939 47.2718 4.39033 47.0158 4.39033 46.7641C4.40929 39.0605 4.43337 31.3577 4.46254 23.6556C4.46254 23.0976 4.35532 22.8635 3.74484 22.9094C2.98775 22.9663 2.2263 22.9094 1.46703 22.9291C1.20224 22.9549 0.935784 22.901 0.701857 22.7743C0.46793 22.6476 0.277206 22.4538 0.154163 22.218C-0.11935 21.7169 0.00755058 21.2464 0.335766 20.8045C2.96149 17.286 5.58284 13.7682 8.19981 10.2512C8.82342 9.41975 9.75774 9.41537 10.3879 10.2512C13.0136 13.7609 15.6394 17.278 18.2651 20.8023C18.5933 21.2399 18.7443 21.7037 18.4642 22.2114C18.3421 22.4487 18.1519 22.6442 17.918 22.7728C17.6841 22.9015 17.4172 22.9574 17.1514 22.9335C16.3921 22.9138 15.6197 22.9707 14.8735 22.916C14.2543 22.8722 14.0574 23.0319 14.0574 23.6993C14.0727 28.8479 14.0421 33.9965 14.018 39.1473C14.018 39.6943 13.9874 40.2414 13.948 40.7884C13.9358 41.0865 13.8124 41.3692 13.6023 41.581C13.3921 41.7928 13.1103 41.9183 12.8123 41.9328C12.515 41.9603 12.2178 41.8786 11.9762 41.7031C11.7346 41.5275 11.5652 41.2701 11.4995 40.9788C11.3551 40.4164 11.4163 39.8432 11.4316 39.2764C11.5826 33.5874 11.4842 27.883 11.5432 22.1873C11.5249 21.8705 11.565 21.5531 11.6614 21.2508C11.741 20.9962 11.9022 20.7749 12.1201 20.6211C12.338 20.4672 12.6005 20.3894 12.867 20.3997C13.4469 20.3734 14.0333 20.3778 14.7948 20.3778Z" fill="#4BA7E5"/>
<path d="M56.1302 20.3758C56.077 20.2668 56.0179 20.1608 55.9529 20.0585C54.2156 17.7259 52.4782 15.3978 50.7015 13.0193L45.2071 20.3758C45.8855 20.3758 46.4172 20.3758 46.9576 20.3758C47.9029 20.3758 48.4171 20.8484 48.4499 21.7915C48.4718 22.4216 48.3996 23.054 48.3974 23.6864C48.3726 29.1304 48.3522 34.5736 48.3361 40.0162C48.3416 40.2272 48.335 40.4383 48.3164 40.6485C48.2114 41.4756 47.6841 41.9614 46.9467 41.9111C46.2093 41.8607 45.7301 41.2546 45.7498 40.4647C45.892 34.8741 45.7914 29.2835 45.8745 23.6951C45.8745 23.0649 45.7432 22.8374 45.0846 22.8921C44.3319 22.9555 43.5683 22.8921 42.809 22.9118C42.5541 22.9276 42.3002 22.8687 42.0783 22.7424C41.8564 22.6161 41.6761 22.4278 41.5596 22.2006C41.2729 21.6952 41.413 21.2182 41.7368 20.7849C44.3625 17.2679 46.9883 13.7545 49.614 10.2448C50.2398 9.40897 51.1719 9.39365 51.8021 10.2229C54.4453 13.7502 57.0783 17.2839 59.7012 20.8243C60.0162 21.2466 60.1213 21.6996 59.8696 22.1831C59.7591 22.4134 59.5825 22.6055 59.3623 22.7349C59.1421 22.8643 58.8883 22.9251 58.6334 22.9096C57.8106 22.8986 56.9857 22.949 56.1674 22.8943C55.5788 22.8527 55.4825 23.0759 55.4825 23.6076C55.4825 30.592 55.4672 37.5757 55.4365 44.5587C55.4365 45.4645 55.3971 46.3704 55.3709 47.2763C55.349 48.0859 54.8829 48.5892 54.1674 48.6176C53.9974 48.6247 53.8276 48.5973 53.6685 48.537C53.5093 48.4767 53.364 48.3848 53.2413 48.2668C53.1186 48.1488 53.0211 48.0072 52.9546 47.8505C52.8882 47.6938 52.8541 47.5253 52.8546 47.3551C52.8217 46.1538 52.8546 44.9482 52.8699 43.7491C52.8699 43.4537 52.9093 43.1605 52.9093 42.8738C52.9297 35.9973 52.9479 29.1201 52.964 22.2422C52.964 20.7587 53.3491 20.3823 54.8457 20.3823L56.1302 20.3758Z" fill="#4BA7E5"/>
<path d="M20.9806 30.0952C20.9819 28.9029 21.2205 27.7227 21.6827 26.6235C22.1448 25.5243 22.8212 24.5281 23.6723 23.6931C24.5234 22.858 25.5324 22.2008 26.6402 21.7597C27.748 21.3186 28.9325 21.1025 30.1247 21.124C31.3067 21.1343 32.4751 21.3781 33.5626 21.8413C34.6501 22.3046 35.6354 22.9782 36.4618 23.8235C37.2881 24.6687 37.9393 25.669 38.3778 26.7667C38.8163 27.8644 39.0336 29.038 39.0171 30.22C39.0089 31.4079 38.7653 32.5823 38.3005 33.6755C37.8356 34.7687 37.1586 35.7588 36.3087 36.5888C35.4588 37.4187 34.4529 38.072 33.349 38.5108C32.2451 38.9496 31.0652 39.1652 29.8774 39.1452C27.4999 39.1175 25.2299 38.1503 23.563 36.4547C21.8961 34.7591 20.9677 32.4729 20.9806 30.0952ZM29.9693 36.607C30.8191 36.616 31.6621 36.4568 32.4501 36.1386C33.238 35.8204 33.9553 35.3495 34.5605 34.7531C35.1657 34.1566 35.647 33.4463 35.9766 32.663C36.3063 31.8798 36.4777 31.0391 36.4811 30.1893C36.4938 29.3396 36.3385 28.4957 36.024 27.7062C35.7094 26.9167 35.2419 26.1972 34.6484 25.589C34.0548 24.9808 33.3469 24.4959 32.5653 24.1623C31.7837 23.8286 30.9438 23.6527 30.094 23.6447C29.2337 23.629 28.3789 23.7853 27.5798 24.1045C26.7807 24.4237 26.0534 24.8993 25.4407 25.5035C24.828 26.1077 24.3421 26.8282 24.0117 27.6227C23.6813 28.4172 23.513 29.2698 23.5166 30.1303C23.512 30.9803 23.6755 31.8228 23.9978 32.6094C24.3201 33.3959 24.7948 34.111 25.3945 34.7134C25.9943 35.3157 26.7072 35.7936 27.4924 36.1193C28.2775 36.4451 29.1193 36.6123 29.9693 36.6114V36.607Z" fill="white"/>
<path d="M35.4855 10.7569C33.6759 8.32809 31.9626 6.03277 30.2515 3.73307C30.0918 3.51426 29.954 3.46175 29.768 3.7112C28.0481 6.02183 26.3239 8.33246 24.5165 10.7569C25.2036 10.7569 25.7616 10.7569 26.3195 10.7569C27.2298 10.7744 27.7177 11.2623 27.7243 12.1791C27.733 13.6539 27.733 15.1302 27.7243 16.6079C27.7243 17.4569 27.2495 17.9733 26.4968 17.9886C25.7441 18.0039 25.208 17.4765 25.197 16.6079C25.1839 15.6801 25.1752 14.7502 25.197 13.8246C25.197 13.4198 25.1008 13.2645 24.6719 13.2798C23.7966 13.3104 22.9411 13.2798 22.0768 13.2929C21.8341 13.3168 21.5898 13.2669 21.3759 13.1498C21.162 13.0327 20.9883 12.8538 20.8777 12.6365C20.7541 12.413 20.701 12.1574 20.7252 11.9033C20.7494 11.6491 20.8498 11.4081 21.0134 11.212C23.6085 7.73075 26.1948 4.24291 28.803 0.770385C29.582 -0.264589 30.4375 -0.240521 31.2099 0.796641C33.77 4.22613 36.3294 7.65415 38.888 11.0807C39.2512 11.5643 39.3934 12.0566 39.1265 12.6124C38.8595 13.1682 38.3497 13.3213 37.7546 13.306C36.9537 13.2841 36.1507 13.3257 35.3476 13.2907C34.8859 13.2688 34.7787 13.4417 34.7941 13.8684C34.8225 14.7436 34.8072 15.6407 34.7941 16.5269C34.7941 17.459 34.3127 18.0017 33.5184 17.9973C32.7241 17.993 32.2646 17.4656 32.2624 16.5182C32.2624 15.0828 32.2624 13.6496 32.2624 12.2142C32.2624 11.2623 32.7525 10.781 33.7044 10.7678C34.2601 10.7503 34.8028 10.7569 35.4855 10.7569Z" fill="#4BA7E5"/>
</g>
<defs>
<clipPath id="clip0_622_782">
<rect width="59.9803" height="60" fill="white" transform="translate(0.00976562)"/>
</clipPath>
</defs>
</svg>
