<svg width="60" height="60" viewBox="0 0 60 60" fill="none" xmlns="http://www.w3.org/2000/svg">
<g clip-path="url(#clip0_622_891)">
<path d="M59.9999 14.4143C59.6116 15.3033 58.9131 15.7393 57.9641 15.8314C57.6744 15.8596 57.3878 16.0018 57.1043 15.9877C56.2806 15.9596 56.077 16.5486 55.8922 17.1486C55.8687 17.3133 55.9084 17.4807 56.0034 17.6174C56.3338 18.1471 56.7018 18.6533 57.0354 19.1799C57.5726 20.0314 57.4911 20.8471 56.7942 21.5799C56.3777 22.0189 55.9501 22.4486 55.507 22.8611C54.8414 23.4861 54.0286 23.5533 53.2471 23.0814C52.9966 22.9252 52.7585 22.758 52.5142 22.5971C52.2699 22.4361 52.0616 22.2986 51.7892 22.1283C51.0171 23.3986 49.6264 23.1893 48.466 23.5346C48.1152 23.6408 47.6109 23.6033 47.4324 23.8299C47.1082 24.2439 46.9532 24.8002 46.7747 25.3143C46.7324 25.4361 46.8545 25.6408 46.9438 25.783C47.3901 26.4705 47.8599 27.1424 48.3047 27.8314C48.9546 28.8346 48.8669 29.7221 48.0322 30.5846C47.5295 31.1033 47.0205 31.6174 46.4959 32.1143C45.7129 32.8549 44.7889 32.9361 43.8775 32.3502C43.1712 31.8955 42.4931 31.3986 41.7758 30.9658C41.5497 30.8611 41.2949 30.8353 41.0523 30.8924C39.9874 31.1018 39.4643 31.7549 39.433 32.8596C39.4189 33.358 39.2514 33.8533 39.1371 34.3471C38.8943 35.4002 38.1802 35.9752 37.0902 35.9908C36.3667 36.0012 35.6437 36.0012 34.9213 35.9908C33.7859 35.9768 33.0498 35.3658 32.818 34.2627C32.6489 33.4627 32.5236 32.6502 32.3185 31.8596C32.259 31.6283 32.0241 31.4049 31.8158 31.2564C30.9263 30.6314 30.1213 30.8018 29.3383 31.5127C28.9307 31.8474 28.4924 32.143 28.0291 32.3955C27.1599 32.9221 26.2406 32.8283 25.503 32.1299C24.9361 31.5924 24.3817 31.0361 23.8461 30.4736C23.5141 30.1485 23.3075 29.717 23.2625 29.255C23.2175 28.793 23.3372 28.3299 23.6003 27.9471C24.0576 27.2221 24.5712 26.5299 25.0097 25.7955C25.114 25.5699 25.1421 25.3165 25.0896 25.0736C24.9064 23.9033 24.1218 23.4908 23.0209 23.4205C22.4773 23.3639 21.941 23.2518 21.4203 23.0861C21.019 22.9827 20.6632 22.7499 20.4082 22.4238C20.1533 22.0976 20.0136 21.6966 20.0109 21.283C19.9827 20.4455 19.9827 19.6033 20.0109 18.7658C20.0072 18.3216 20.1592 17.89 20.4406 17.5456C20.722 17.2013 21.115 16.9658 21.5519 16.8799C22.4257 16.6768 23.3137 16.5361 24.1844 16.3236C24.4013 16.2405 24.5842 16.0876 24.7044 15.8893C25.3308 14.9674 25.2164 14.1221 24.4506 13.308C24.1218 12.958 23.89 12.5127 23.63 12.0986C23.071 11.2064 23.1414 10.2814 23.854 9.52364C24.388 8.95489 24.9502 8.40332 25.5109 7.86895C26.2814 7.14551 27.185 7.06582 28.0839 7.6377C28.8074 8.10645 29.5027 8.60645 30.2341 9.05332C30.4452 9.1484 30.6817 9.172 30.9075 9.12051C32.0569 8.92051 32.5267 8.17051 32.5753 7.05332C32.6203 6.60717 32.7026 6.16554 32.8212 5.73301C33.0576 4.63926 33.8031 4.01426 34.9306 3.99707C35.6134 3.98613 36.2994 3.95957 36.979 4.00801C37.4598 4.04238 37.7715 3.86895 38.0925 3.53926C39.2154 2.37988 39.859 2.32832 41.2089 3.22676C41.4532 3.38301 41.7351 3.51739 41.9278 3.72676C42.4743 4.31582 43.0381 4.11582 43.5972 3.80332C43.749 3.69778 43.8571 3.54054 43.901 3.36114C44.022 2.92936 44.1099 2.48902 44.164 2.04395C44.2627 1.09395 44.6965 0.398633 45.5829 0.0126953H48.4018C49.3038 0.387695 49.7361 1.08301 49.8316 2.03613C49.8723 2.44082 49.9976 2.8377 50.0602 3.24082C50.1119 3.57832 50.2779 3.74707 50.5942 3.90957C51.133 4.1877 51.5527 4.15332 52.0131 3.76895C52.398 3.46972 52.8029 3.1972 53.2252 2.95332C54.0349 2.45176 54.8335 2.52051 55.5336 3.16426C55.9783 3.57363 56.4058 4.00489 56.8209 4.44551C57.5146 5.18145 57.5867 5.99082 57.0401 6.84551C56.7034 7.37051 56.337 7.87832 56.0065 8.40801C55.9155 8.54622 55.8802 8.71369 55.9079 8.87676C56.0833 9.48613 56.3103 10.0518 57.1247 10.0221C57.4081 10.0127 57.6947 10.1627 57.9829 10.1893C58.9382 10.2752 59.6304 10.7174 60.0078 11.6158L59.9999 14.4143ZM25.2775 10.9611C25.9212 11.9236 26.5413 12.8689 27.1803 13.8018C27.4935 14.2549 27.4841 14.6815 27.2476 15.1705C26.9196 15.8335 26.6355 16.5173 26.3972 17.2174C26.3334 17.4619 26.1978 17.6819 26.0078 17.8489C25.8177 18.016 25.582 18.1225 25.3308 18.1549C24.3536 18.3393 23.3779 18.533 22.4085 18.7533C22.2519 18.7893 22.0248 18.9814 22.017 19.1111C21.9779 19.7877 21.9998 20.469 21.9998 21.1768C23.1164 21.3986 24.1813 21.6268 25.2525 21.8174C25.8789 21.9283 26.2391 22.2439 26.427 22.8674C26.6287 23.5189 26.8909 24.1503 27.21 24.7533C27.4982 25.3049 27.4841 25.7674 27.1286 26.2752C26.4912 27.1814 25.8898 28.1111 25.337 28.9314L26.9845 30.683C27.9038 30.0689 28.8356 29.4643 29.7486 28.8299C30.2403 28.4861 30.6882 28.4877 31.2207 28.7627C31.7634 29.0742 32.3418 29.3192 32.9433 29.4924C33.7514 29.6893 34.1022 30.1518 34.2228 30.9408C34.3794 31.9533 34.6174 32.9549 34.8257 33.9861C35.5007 33.9861 36.124 33.9689 36.7457 33.9861C37.0871 34.0002 37.2155 33.8814 37.2781 33.5424C37.452 32.5439 37.6681 31.5533 37.8623 30.558C37.8963 30.336 37.9937 30.1285 38.1429 29.9603C38.292 29.7921 38.4866 29.6703 38.7033 29.6096C39.3999 29.3812 40.0797 29.1045 40.7375 28.7814C41.3154 28.4846 41.7884 28.5205 42.3036 28.8908C43.1931 29.5158 44.1108 30.1111 45.0504 30.7393C45.5203 30.2705 45.9588 29.8018 46.427 29.3564C46.6604 29.1377 46.6682 28.9705 46.4881 28.7127C45.9525 27.9455 45.467 27.1502 44.9126 26.3877C44.4929 25.8158 44.4287 25.2939 44.803 24.6689C45.1122 24.1496 45.3468 23.5894 45.4999 23.0049C45.6941 22.2518 46.1263 21.9111 46.8717 21.7924C47.9069 21.6361 48.9296 21.3908 49.9945 21.1674C49.9945 20.5002 49.9788 19.8768 49.9945 19.2564C50.0054 18.9174 49.8895 18.7783 49.5481 18.7189C48.5881 18.5533 47.6375 18.3268 46.6776 18.1611C46.0652 18.0564 45.7301 17.7377 45.5469 17.1424C45.3664 16.5082 45.1192 15.8949 44.8093 15.3127C44.4632 14.6986 44.5054 14.2002 44.9079 13.6408C45.5343 12.7611 46.1216 11.8455 46.6948 10.9846L45.0285 9.28457C44.0889 9.90957 43.1493 10.5236 42.219 11.1596C41.7492 11.4877 41.3138 11.4877 40.8002 11.233C40.1351 10.9102 39.4511 10.6279 38.7518 10.3877C38.2366 10.2064 37.9437 9.89864 37.8451 9.35801C37.6634 8.36114 37.4661 7.36582 37.2421 6.37832C37.2077 6.22207 37.0057 6.00176 36.8694 5.99395C36.1929 5.95332 35.5132 5.9752 34.8226 5.9752C34.5798 7.15645 34.334 8.27988 34.1226 9.4127C34.0239 9.94238 33.717 10.2127 33.2346 10.3861C32.553 10.6182 31.8867 10.8927 31.2395 11.208C30.6867 11.4939 30.2278 11.4861 29.7188 11.1268C28.8136 10.4877 27.8803 9.88614 26.9908 9.29083L25.2775 10.9611ZM39.8152 4.69707C39.2545 5.03145 38.9758 5.43613 39.2295 6.10332C39.3615 6.4537 39.436 6.82302 39.4503 7.19707C39.4863 8.20176 39.8934 8.84083 40.9302 9.09551C41.3013 9.18614 41.5472 9.22519 41.8792 9.00957C43.0725 8.22832 44.1891 7.44707 45.6988 7.13457C49.5794 6.35332 53.2158 9.18614 53.1156 13.1486C53.0764 14.7705 52.4328 16.1268 51.3099 17.3096C51.9364 17.8752 52.0256 18.5924 52.0209 19.3596C52.0209 19.5783 52.1071 19.8814 52.2637 20.0002C52.8901 20.4689 53.5478 20.8799 54.1194 21.2627L55.3065 20.1846C54.8179 19.4549 54.3434 18.7408 53.861 18.0299C53.5932 17.6346 53.5979 17.2486 53.7984 16.8158C54.0536 16.2705 54.2948 15.7143 54.4969 15.1486C54.5595 14.9231 54.6874 14.721 54.8646 14.5676C55.0417 14.4142 55.2602 14.3163 55.4928 14.2861C56.3307 14.1377 57.1607 13.9502 57.9829 13.7814V12.2189C57.1513 12.0502 56.3354 11.8689 55.5148 11.7252C55.2719 11.6959 55.0434 11.5942 54.8593 11.4333C54.6752 11.2725 54.544 11.06 54.4828 10.8236C54.3033 10.2879 54.0856 9.76576 53.8313 9.26114C53.587 8.77364 53.5886 8.34551 53.9049 7.89239C54.3841 7.20645 54.8445 6.50176 55.2908 5.82832L54.1946 4.67676C53.4789 5.15645 52.7851 5.60176 52.1211 6.07207C51.9215 6.22962 51.6781 6.32208 51.424 6.3369C51.1699 6.35171 50.9174 6.28817 50.7008 6.15489C50.2182 5.90345 49.7146 5.69433 49.1958 5.52989C48.9479 5.47165 48.7243 5.33796 48.5559 5.14731C48.3876 4.95667 48.2828 4.71851 48.2561 4.46582C48.1168 3.64707 47.9304 2.83457 47.7675 2.0377H46.2015C46.0276 2.89551 45.8491 3.71582 45.6988 4.53769C45.6675 4.76005 45.5728 4.96872 45.4259 5.13883C45.279 5.30894 45.0861 5.4333 44.8703 5.49707C44.305 5.70488 43.7444 5.93301 43.2009 6.19239C42.9958 6.30636 42.7617 6.35779 42.5276 6.34029C42.2935 6.32279 42.0697 6.23714 41.8839 6.09395C41.2074 5.61582 40.5027 5.15645 39.8152 4.69707ZM47.7942 9.14551L48.0463 9.42676C48.8841 10.344 48.9531 11.1893 48.2703 12.2393C48.0024 12.6926 47.7058 13.1284 47.3823 13.5439C46.8185 14.2002 46.6838 14.8127 47.1333 15.6268C47.5561 16.3924 48.6602 16.8049 49.3884 16.283C50.7587 15.3049 51.3099 13.9518 51.0609 12.3064C50.8119 10.6611 49.3633 9.25645 47.7942 9.14551Z" fill="#4BA7E5"/>
<path d="M23.4266 59.9997C23.1823 59.6216 22.8487 59.2747 22.7125 58.8606C22.1596 57.1872 21.5207 55.5606 20.4997 54.1075C20.3869 53.9513 20.2679 53.795 20.1442 53.6388C19.0824 52.3466 18.979 52.3513 17.4098 52.8403C15.2706 53.506 13.0938 54.0544 10.9655 54.7544C8.83727 55.4544 6.26741 54.5794 5.74592 51.4325C5.58932 50.5356 5.70207 49.5731 5.82736 48.6606C5.96517 47.6419 5.91975 47.3419 5.16179 46.881C3.56129 45.9106 3.47513 45.6981 3.95904 43.8888C3.71473 43.6856 3.45636 43.4794 3.20736 43.2638C2.58094 42.7216 2.43998 42.2716 2.75319 41.5028C2.9646 40.981 3.26529 40.495 3.50803 39.9856C3.93556 39.0919 3.8087 38.7138 2.94737 38.2263C2.38673 37.9138 1.81043 37.6185 1.27485 37.2638C-0.0766541 36.3685 -0.377335 35.0966 0.491821 33.7372C1.03524 32.8825 1.74464 32.1325 2.27397 31.2716C3.44067 29.3825 4.53537 27.4481 5.67232 25.5403C5.93855 25.0935 5.87432 24.7356 5.49377 24.4044C5.22911 24.1731 4.96914 23.9356 4.71075 23.6903C3.7257 22.7231 3.21831 21.5747 3.81967 20.2528C4.79219 18.1106 5.3544 15.8466 6.05286 13.6169C8.04018 7.27002 12.2575 3.25595 18.7958 1.75595C22.2239 0.974704 25.677 0.360642 29.1881 0.0965796C29.3397 0.0746205 29.4895 0.0411933 29.636 -0.00341797H32.9247C33.1126 0.034082 33.3021 0.0747042 33.4916 0.105954C34.0585 0.198142 34.4124 0.613769 34.3811 1.15283C34.3773 1.28041 34.3481 1.40597 34.2954 1.52227C34.2427 1.63857 34.1675 1.74331 34.0741 1.83045C33.9806 1.9176 33.8708 1.98543 33.7509 2.03004C33.6311 2.07464 33.5035 2.09513 33.3757 2.09033C32.9278 2.09033 32.4799 2.01377 32.032 2.00752C28.8717 1.95439 25.7584 2.39033 22.6749 3.00283C20.6822 3.37392 18.7163 3.87553 16.7897 4.50439C12.2607 6.04814 9.61405 9.44814 8.08559 13.82C7.53434 15.3981 7.16007 17.0388 6.6511 18.6341C6.42089 19.3544 6.06227 20.0403 5.75376 20.7294C5.50163 21.295 5.55017 21.7856 6.06697 22.1903C6.26586 22.3466 6.44437 22.5294 6.63699 22.6935C7.85068 23.7216 8.12943 25.0372 7.44663 26.4606C6.12376 29.1823 4.51814 31.7579 2.65611 34.145C1.76816 35.2935 1.71648 35.17 3.04762 36.0091C3.37649 36.2169 3.73822 36.3716 4.07492 36.5669C5.7224 37.5263 6.18753 39.0263 5.37475 40.7606C5.19465 41.1466 4.9848 41.52 4.78435 41.9044C5.27608 42.3388 5.83205 42.6997 6.2126 43.1966C6.69181 43.8216 6.05599 44.3435 5.81168 44.895C5.87843 44.9513 5.94852 45.0034 6.02155 45.0513C7.70348 46.0153 8.22496 47.1747 7.76924 49.0606C7.5364 49.9326 7.5774 50.8549 7.8867 51.7028C8.25472 52.695 9.09725 53.195 10.1136 52.8903C13.3804 51.9091 16.6393 50.9039 19.8904 49.8747C21.4126 49.3903 22.9176 48.8534 24.4054 48.2638C25.1223 47.9604 25.8048 47.5817 26.4412 47.1341C27.1992 46.6263 27.6941 45.9231 27.7458 44.9575C27.7849 44.3435 28.2328 44.0044 28.8138 44.0466C29.3431 44.0872 29.7159 44.4903 29.7143 45.0825C29.7143 46.2341 29.2554 47.2028 28.4615 48.0185C27.2697 49.2372 25.7678 49.9325 24.2018 50.5044C23.176 50.8794 22.1409 51.2216 21.0196 51.6106C22.6436 53.4349 23.8388 55.598 24.5181 57.9419H47.0692C47.0692 57.8278 47.0911 57.7622 47.0692 57.7231C45.2823 54.8638 44.5636 51.6591 44.0374 48.3888C43.4517 44.7825 43.7335 41.27 45.1101 37.8716C45.8477 36.0497 46.9048 34.4122 48.0965 32.8591C49.5733 30.9325 50.9828 28.9685 51.6249 26.5731C51.6844 26.3466 51.7313 26.1169 51.8112 25.8966C51.8873 25.6517 52.0563 25.4461 52.2822 25.3238C52.5081 25.2015 52.7729 25.1721 53.0202 25.2419C53.2695 25.3077 53.4826 25.469 53.6131 25.6909C53.7437 25.9127 53.781 26.1771 53.7171 26.4263C53.3857 27.995 52.7781 29.4927 51.9224 30.8497C51.2208 31.9435 50.4785 33.0372 49.6767 34.0638C47.348 37.056 45.8947 40.3763 45.7616 44.206C45.6676 46.845 46.1609 49.4106 46.8124 51.9497C47.2822 53.8122 47.99 55.5794 49.1035 57.17C49.3746 57.5757 49.5964 58.0121 49.7644 58.47C50.0776 59.2513 49.6469 59.895 48.7981 59.9122C47.5453 59.9372 46.2925 59.9263 45.0396 59.9356C44.9438 59.9468 44.8493 59.9677 44.7577 59.9981L23.4266 59.9997Z" fill="white"/>
<path d="M11.1519 17.6704L9.24438 17.2485C9.77214 14.3532 10.8637 11.7797 12.7414 9.54068C14.4797 7.46881 16.8209 6.47506 19.3282 5.76256C19.9076 5.59693 20.5012 5.47194 21.0947 5.36256C21.6882 5.25319 22.1659 5.55475 22.2896 6.10631C22.4133 6.65787 22.1205 7.11725 21.5191 7.28913C20.4714 7.58756 19.4065 7.83287 18.3713 8.17037C14.7522 9.35474 12.8385 12.1016 11.7187 15.5438C11.4964 16.2251 11.3476 16.9298 11.1519 17.6704Z" fill="white"/>
<path d="M8.9907 20.0188C9.12233 20.0158 9.25314 20.04 9.37495 20.0898C9.49676 20.1397 9.60695 20.2141 9.69856 20.3085C9.79017 20.4028 9.86123 20.515 9.90732 20.6381C9.9534 20.7611 9.97351 20.8923 9.96635 21.0235C9.96167 21.2786 9.85897 21.5222 9.67944 21.7039C9.49992 21.8857 9.25729 21.9917 9.00168 22.0001C8.73603 21.9978 8.48155 21.8931 8.29153 21.7078C8.1015 21.5226 7.99066 21.2712 7.98218 21.0063C7.98258 20.8752 8.00908 20.7454 8.06014 20.6245C8.11119 20.5037 8.18578 20.3941 8.2796 20.3023C8.37342 20.2104 8.48458 20.138 8.60665 20.0894C8.72872 20.0407 8.85927 20.0167 8.9907 20.0188Z" fill="white"/>
<path d="M35.9924 26.9909C34.1332 26.9855 32.3519 26.2445 31.0396 24.9304C29.7272 23.6163 28.9909 21.8365 28.9922 19.9815C28.9949 19.0626 29.1789 18.1533 29.5338 17.3054C29.8887 16.4575 30.4075 15.6877 31.0606 15.0399C31.7136 14.392 32.4882 13.8789 33.3401 13.5297C34.1919 13.1806 35.1044 13.0022 36.0253 13.0049C37.8747 13.0177 39.6443 13.7578 40.95 15.0646C42.2557 16.3714 42.9919 18.1394 42.9989 19.9846C43.0001 20.9037 42.8199 21.8141 42.4684 22.6636C42.1169 23.5132 41.6011 24.2854 40.9505 24.936C40.2998 25.5866 39.5271 26.103 38.6763 26.4556C37.8256 26.8081 36.9136 26.99 35.9924 26.9909ZM35.9705 24.9862C37.2944 24.9937 38.5672 24.4768 39.5096 23.5491C40.4521 22.6214 40.9872 21.3586 40.9975 20.0377C41.0034 18.7169 40.4869 17.447 39.5601 16.5038C38.6332 15.5607 37.371 15.0204 36.0472 15.0002C35.3868 14.9942 34.7317 15.1189 34.1197 15.3669C33.5078 15.615 32.9512 15.9815 32.482 16.4454C32.0129 16.9092 31.6405 17.4613 31.3864 18.0695C31.1322 18.6778 31.0014 19.3303 31.0014 19.9893C30.9971 20.6434 31.1224 21.2919 31.3701 21.8976C31.6178 22.5032 31.983 23.0541 32.4448 23.5184C32.9066 23.9828 33.4558 24.3515 34.0608 24.6034C34.6659 24.8553 35.3149 24.9854 35.9705 24.9862Z" fill="#4BA7E5"/>
<path d="M36.9933 19.9704C36.9967 20.2354 36.8948 20.491 36.7099 20.6813C36.5251 20.8715 36.2723 20.9811 36.0067 20.9861C35.8802 20.9904 35.754 20.9698 35.6355 20.9254C35.5169 20.881 35.4083 20.8137 35.3159 20.7273C35.2235 20.641 35.1491 20.5372 35.097 20.4221C35.0449 20.3069 35.0161 20.1826 35.0122 20.0564C35.0029 19.9251 35.02 19.7934 35.0624 19.6688C35.1048 19.5442 35.1717 19.4294 35.2593 19.331C35.3468 19.2326 35.4532 19.1526 35.5721 19.0958C35.691 19.039 35.8202 19.0064 35.9519 19.0001C36.2175 18.9961 36.4744 19.0949 36.6686 19.2759C36.8628 19.4568 36.9792 19.7057 36.9933 19.9704Z" fill="#4BA7E5"/>
</g>
<defs>
<clipPath id="clip0_622_891">
<rect width="60" height="60" fill="white"/>
</clipPath>
</defs>
</svg>
