<svg width="60" height="60" viewBox="0 0 60 60" fill="none" xmlns="http://www.w3.org/2000/svg">
<g clip-path="url(#clip0_622_831)">
<path d="M47.8784 52.8274C47.5679 53.805 47.2623 54.7087 46.9957 55.6242C46.4369 57.5525 45.252 58.8896 43.2434 59.2608C41.2347 59.632 39.5637 58.9534 38.2977 57.3375C38.2678 57.3078 38.2343 57.2819 38.1981 57.2602C37.3845 58.8241 36.1254 59.7798 34.3497 59.9713C33.0685 60.1141 31.9156 59.7126 30.8556 59.0357C29.75 58.3302 28.6613 57.5878 27.5658 56.8756C25.2821 55.3957 22.9055 55.221 20.4293 56.3716C16.1909 58.3386 12.0234 57.5777 8.76736 54.2501C6.50215 51.9343 4.23807 49.6174 1.97512 47.2994C0.469482 45.7591 0.118399 43.9836 0.926919 42.0016C2.47644 38.2255 4.03947 34.4545 5.616 30.6885C7.07606 27.2132 11.1946 26.1667 13.9358 28.5939C15.5511 30.0251 16.1132 31.8593 15.482 33.9288C14.6532 36.6415 13.7248 39.3241 12.8302 42.015C12.6361 42.5978 12.6361 43.1354 13.0598 43.6242C13.318 43.9198 13.5661 44.0206 13.951 43.7703C14.535 43.3924 15.168 43.0984 15.7723 42.7473C16.5946 42.2584 17.5078 41.9401 18.4569 41.8117C19.4061 41.6832 20.3715 41.7472 21.2952 41.9999C22.2472 42.2468 23.2093 42.4601 24.1647 42.7104C24.8398 42.8884 25.1352 43.3436 24.9732 43.9164C24.8264 44.4388 24.3318 44.6824 23.6853 44.5295C22.6725 44.291 21.6598 44.0424 20.6369 43.7921C19.4311 43.4789 18.151 43.6295 17.0517 44.2137C16.5065 44.4976 15.9748 44.805 15.4364 45.1006C15.4448 45.3442 15.6575 45.3845 15.7976 45.4769C16.8559 46.1807 17.9227 46.8711 18.9793 47.5749C19.587 47.9814 19.7457 48.5458 19.4115 49.0245C19.0773 49.5032 18.5354 49.5435 17.9446 49.1555C16.0879 47.9444 14.2312 46.7367 12.3981 45.5055C10.9667 44.5447 10.484 43.1404 11.0174 41.496C11.8799 38.8369 12.7897 36.1913 13.6387 33.529C14.405 31.1219 12.5247 28.8912 10.0215 29.2322C8.73021 29.4002 7.88286 30.1813 7.39167 31.3705C6.01882 34.6897 4.64259 38.0083 3.26299 41.3263C3.04356 41.8537 2.82415 42.3812 2.61485 42.9136C2.19118 43.9937 2.38527 44.9864 3.17859 45.8061C5.61428 48.3257 8.04661 50.8453 10.538 53.3196C11.6609 54.4498 13.1116 55.2013 14.686 55.4686C16.2604 55.7359 17.8793 55.5054 19.3152 54.8095C22.551 53.2608 25.6484 53.3851 28.6664 55.3285C28.7504 55.3757 28.8372 55.4178 28.9263 55.4545C29.166 53.3078 30.059 51.3694 30.6362 49.342C30.7037 49.1034 30.6615 48.9657 30.4185 48.87C29.9121 48.665 29.4057 48.4433 28.8993 48.2166C28.2917 47.9428 28.0554 47.4573 28.2731 46.9467C28.5027 46.3991 29.0091 46.2345 29.664 46.4915C29.7011 46.5066 29.7382 46.5234 29.7771 46.5368C30.2952 46.7048 30.8844 47.2809 31.2709 47.0559C31.6304 46.8459 31.6928 46.09 31.8363 45.5609C32.3174 43.7938 33.3555 42.5071 35.1481 42.0083C37.3424 41.3985 39.1383 42.1225 40.6169 43.8879C41.4694 42.314 42.7589 41.3129 44.5667 41.1802C46.3745 41.0475 47.848 41.7529 49.0515 43.2479C49.3891 42.1796 49.7149 41.1835 50.0272 40.1858C50.5336 38.5749 51.5564 37.4646 53.1768 36.9204C53.8642 36.7009 54.5935 36.6434 55.307 36.7524C55.5552 36.786 55.6851 36.7524 55.7594 36.4987C56.0244 35.5984 56.3569 34.7149 56.5628 33.8112C56.7127 33.1032 56.5869 32.365 56.211 31.7458C55.835 31.1266 55.2368 30.6725 54.5373 30.4752C53.0519 30.0486 51.499 30.7843 50.9927 32.249C50.2213 34.5083 49.5174 36.7843 48.7865 39.0637C48.4878 39.9892 48.2025 40.1471 47.2353 39.9791C45.2739 39.6432 43.3092 39.3207 41.3478 38.9713C40.5866 38.8386 40.2608 38.4388 40.3654 37.8358C40.4701 37.2328 40.9511 36.9959 41.7023 37.1186C43.3429 37.394 44.9836 37.6611 46.6176 37.9584C47.0277 38.0323 47.1796 37.9215 47.3012 37.5284C47.9004 35.5783 48.4929 33.623 49.1579 31.6964C49.4204 30.9226 49.8784 30.229 50.4879 29.6822C51.0974 29.1353 51.838 28.7536 52.6385 28.5736C53.439 28.3937 54.2725 28.4215 55.059 28.6545C55.8456 28.8875 56.5587 29.3178 57.13 29.9041C58.4179 31.2261 58.8179 32.8201 58.3116 34.6074C58.0769 35.4472 57.7967 36.2871 57.5216 37.127C57.4321 37.4008 57.4287 37.5771 57.6904 37.7989C59.3412 39.1762 59.8729 40.9215 59.245 42.9691C58.3588 45.8565 57.4608 48.7406 56.5072 51.6062C55.3256 55.174 50.8458 56.0794 48.2954 53.2977C48.1755 53.1482 48.0472 53.0189 47.8784 52.8274ZM48.9908 50.0676C48.9908 51.6046 49.9934 52.7065 51.5936 52.9836C52.9119 53.2121 54.2436 52.3957 54.6893 51.0251C55.6278 48.1342 56.546 45.235 57.4575 42.3392C57.5849 41.9703 57.631 41.5784 57.5925 41.1902C57.4102 39.7524 56.3552 38.7513 54.8378 38.5833C53.5566 38.4405 52.3059 39.2686 51.8738 40.599C50.9471 43.4713 50.0457 46.352 49.1326 49.2294C49.0376 49.4988 48.9886 49.7821 48.9874 50.0676H48.9908ZM33.8922 58.1001C35.1632 58.1001 36.181 57.366 36.5929 56.0844C37.5235 53.2132 38.4389 50.3381 39.3392 47.459C39.8456 45.8381 39.0151 44.328 37.4099 43.8341C35.8047 43.3403 34.2737 44.1079 33.7505 45.7272C32.8266 48.5794 31.919 51.4349 31.0278 54.2938C30.4134 56.2826 31.8026 58.1034 33.8889 58.1001H33.8922ZM47.9527 45.9405C47.926 45.6779 47.8837 45.4171 47.8261 45.1594C47.4784 43.9248 46.3795 43.1068 45.0309 43.0581C44.4099 43.0237 43.7954 43.1991 43.2871 43.5559C42.7789 43.9126 42.4066 44.4297 42.2306 45.0234C41.309 47.8756 40.4014 50.7311 39.508 53.59C38.9813 55.2697 39.7477 56.7932 41.3512 57.3089C43.0003 57.8414 44.5296 57.0469 45.0748 55.3521C45.975 52.5592 46.8674 49.7597 47.7518 46.9534C47.8659 46.6269 47.9324 46.2858 47.9493 45.9405H47.9527Z" fill="white"/>
<path d="M40.4855 16.2632C40.4855 15.7728 40.4753 15.2823 40.4855 14.7935C40.5005 13.967 40.8419 13.1796 41.4357 12.6015C42.0295 12.0235 42.8281 11.7012 43.6588 11.7044C44.4795 11.6857 45.2753 11.9853 45.8782 12.5397C46.4811 13.0942 46.8437 13.8602 46.8895 14.6759C46.9367 15.7358 46.9367 16.8024 46.8895 17.8674C46.8449 18.6833 46.4815 19.4496 45.877 20.0026C45.2724 20.5556 44.4745 20.8515 43.6537 20.8271C42.8228 20.8338 42.0229 20.5128 41.4292 19.9342C40.8355 19.3556 40.4961 18.5666 40.4855 17.7397C40.477 17.2442 40.4855 16.7537 40.4855 16.2632ZM45.0142 16.2834C45.0142 15.8131 45.0361 15.3411 45.0142 14.8724C44.9652 14.0645 44.4386 13.5958 43.647 13.6143C42.9026 13.6311 42.3928 14.1266 42.3742 14.9026C42.3523 15.803 42.354 16.7033 42.3742 17.602C42.3911 18.4116 42.9093 18.9189 43.6807 18.9239C44.4521 18.929 44.9737 18.4486 45.0176 17.6322C45.0345 17.1837 45.0091 16.7336 45.0091 16.2834H45.0142Z" fill="#4BA7E5"/>
<path d="M19.8894 6.31429C19.9417 5.71799 19.7932 4.97052 19.9957 4.25327C20.438 2.66593 21.8525 1.75887 23.5792 1.96043C24.3191 2.0535 25.001 2.40759 25.5009 2.95838C26.0008 3.50917 26.2856 4.22013 26.3035 4.96211C26.3305 5.96323 26.3305 6.96435 26.3035 7.96547C26.2924 8.38007 26.1991 8.78839 26.0291 9.16704C25.859 9.54568 25.6155 9.8872 25.3126 10.172C25.0096 10.4568 24.6531 10.6793 24.2635 10.8267C23.874 10.9741 23.459 11.0435 23.0425 11.031C22.2117 11.0288 21.4152 10.7012 20.8254 10.119C20.2356 9.53673 19.8999 8.74679 19.8911 7.92012C19.8809 7.43132 19.8894 6.93915 19.8894 6.31429ZM21.7681 6.46884C21.7681 6.93916 21.7478 7.41116 21.7681 7.87981C21.7674 8.04416 21.7995 8.20701 21.8627 8.35887C21.9258 8.51074 22.0187 8.6486 22.1359 8.76442C22.253 8.88025 22.3922 8.97173 22.5452 9.03354C22.6983 9.09536 22.8621 9.12627 23.0273 9.12449C23.7936 9.14801 24.3641 8.70288 24.3995 7.94868C24.4451 6.9694 24.4434 5.98507 24.3995 5.00579C24.3641 4.24655 23.7902 3.7947 23.0306 3.8199C22.8656 3.81901 22.702 3.8506 22.5493 3.91283C22.3965 3.97507 22.2577 4.06674 22.1406 4.18256C22.0236 4.29838 21.9308 4.43609 21.8674 4.58774C21.8041 4.7394 21.7714 4.90201 21.7714 5.06626C21.7478 5.52818 21.7698 6.00019 21.7681 6.46884Z" fill="#4BA7E5"/>
<path d="M36.799 35.2525C36.7483 35.8287 36.8867 36.5459 36.6994 37.2531C36.5091 38.0032 36.0504 38.6584 35.4093 39.0959C34.7683 39.5335 33.9888 39.7234 33.2171 39.6299C32.4437 39.5506 31.7268 39.1902 31.2037 38.6178C30.6805 38.0454 30.3877 37.3012 30.3814 36.5274C30.3657 35.5666 30.3657 34.6064 30.3814 33.6467C30.4085 31.8729 31.7892 30.5459 33.5885 30.5459C34.0049 30.5354 34.4192 30.6078 34.8071 30.7587C35.195 30.9097 35.5487 31.1362 35.8474 31.4251C36.1461 31.7139 36.3839 32.0592 36.5467 32.4407C36.7095 32.8222 36.7941 33.2322 36.7956 33.6467C36.8074 34.1389 36.799 34.6277 36.799 35.2525ZM32.2584 35.0627C32.2584 35.5129 32.2449 35.9631 32.2584 36.4065C32.2888 37.2212 32.7935 37.7284 33.5615 37.7402C34.3295 37.752 34.8814 37.2531 34.9118 36.4502C34.9405 35.5314 34.9405 34.6025 34.9118 33.6904C34.9151 33.5205 34.8837 33.3518 34.8194 33.1945C34.7551 33.0371 34.6594 32.8944 34.538 32.775C34.4166 32.6556 34.2721 32.562 34.1132 32.4999C33.9543 32.4378 33.7844 32.4085 33.6138 32.4138C32.8475 32.402 32.309 32.9177 32.2635 33.7072C32.2415 34.1624 32.2601 34.6126 32.2584 35.0627Z" fill="#4BA7E5"/>
<path d="M50.4595 6.46856C50.4595 4.69141 50.4595 2.91425 50.4595 1.13542C50.4595 0.403054 50.7836 0.013355 51.371 -8.28965e-05C51.9871 -0.0152005 52.3382 0.392975 52.3398 1.14549C52.3398 4.74124 52.3398 8.33754 52.3398 11.9344C52.3398 12.6483 52.0023 13.0581 51.4233 13.0733C50.8123 13.0884 50.4629 12.6819 50.4595 11.9243C50.4561 10.1052 50.4595 8.28771 50.4595 6.46856Z" fill="white"/>
<path d="M14.385 6.57303C14.385 8.39218 14.385 10.2113 14.385 12.0288C14.385 12.7628 13.9005 13.1861 13.2591 13.0467C12.6768 12.9207 12.4978 12.5025 12.4995 11.9515C12.4995 9.4588 12.4995 6.96609 12.4995 4.47336C12.4995 3.36978 12.4995 2.26787 12.4995 1.16429C12.4995 0.411772 12.8473 -0.0115195 13.4549 0.000238603C14.0626 0.0119967 14.3833 0.400015 14.385 1.17605C14.3883 2.9784 14.385 4.77572 14.385 6.57303Z" fill="white"/>
<path d="M42.7304 3.84498C42.4958 3.81306 42.3928 3.98607 42.2443 4.02806C41.8037 4.149 41.4206 4.05998 41.1522 3.68204C40.9007 3.3293 40.872 2.91608 41.1522 2.60197C41.7693 1.917 42.4229 1.26545 43.1102 0.650127C43.6469 0.178123 44.4335 0.482155 44.5939 1.18596C44.6282 1.36638 44.6424 1.55003 44.6361 1.73356C44.6361 3.88025 44.6361 6.02638 44.6361 8.17196C44.6361 8.23411 44.6361 8.29458 44.6361 8.35674C44.6091 9.06558 44.2614 9.4704 43.679 9.46872C43.0967 9.46704 42.7287 9.06054 42.7236 8.35842C42.7135 7.04991 42.7236 5.7414 42.7236 4.43289L42.7304 3.84498Z" fill="#4BA7E5"/>
<path d="M22.1343 16.6596C21.9486 16.7587 21.8473 16.8276 21.7393 16.8679C21.2886 17.0661 20.8835 16.9871 20.5831 16.6025C20.4326 16.4413 20.3517 16.2279 20.3577 16.0081C20.3637 15.7882 20.4561 15.5794 20.6151 15.4267C21.2194 14.7867 21.8305 14.1484 22.4871 13.5639C23.066 13.0499 23.888 13.3959 24.0281 14.1534C24.0487 14.2952 24.0566 14.4386 24.0518 14.5818C24.0518 16.7688 24.0518 18.9524 24.0518 21.1327C24.056 21.2144 24.056 21.2963 24.0518 21.378C23.9961 21.9911 23.6264 22.3606 23.0795 22.3505C22.5326 22.3404 22.1562 21.9575 22.1444 21.3427C22.1241 20.2794 22.1444 19.2161 22.1444 18.1512L22.1343 16.6596Z" fill="#4BA7E5"/>
<path d="M32.6264 22.4413C32.5008 22.5274 32.3695 22.6049 32.2332 22.6731C31.7859 22.841 31.374 22.7974 31.0719 22.3993C30.9203 22.2264 30.8429 22.0013 30.8565 21.7723C30.8701 21.5432 30.9735 21.3287 31.1445 21.1748C31.6964 20.5969 32.2771 20.046 32.8324 19.4766C32.9656 19.3181 33.1466 19.2067 33.3486 19.1589C33.5505 19.111 33.7626 19.1294 33.9532 19.2112C34.3853 19.3791 34.5389 19.7587 34.5406 20.2005C34.5406 20.8959 34.5406 21.5913 34.5406 22.2867C34.5406 23.8606 34.5406 25.4362 34.5406 27.0102C34.5406 27.756 34.1675 28.1675 33.5548 28.1507C32.9708 28.1356 32.6281 27.7358 32.6248 27.0152C32.6197 25.5236 32.6264 24.032 32.6264 22.4413Z" fill="#4BA7E5"/>
<path d="M32.5859 9.42137C32.441 9.51538 32.2892 9.59849 32.1318 9.66998C31.7065 9.81275 31.3048 9.7674 31.0178 9.39618C30.7309 9.02496 30.7055 8.57143 31.0364 8.22037C31.6356 7.57535 32.2719 6.96225 32.9066 6.35083C33.0347 6.22851 33.1973 6.14813 33.3726 6.12051C33.5479 6.09288 33.7275 6.11933 33.8873 6.19629C34.0628 6.26128 34.213 6.38011 34.3161 6.53561C34.4193 6.69111 34.4701 6.87523 34.4612 7.06135C34.4612 9.43313 34.4612 11.8066 34.4612 14.18C34.4612 14.7881 34.0611 15.1509 33.4957 15.1358C32.9623 15.1224 32.5994 14.7646 32.5943 14.1784C32.5774 12.6196 32.5859 11.0641 32.5859 9.42137Z" fill="#4BA7E5"/>
<path d="M10.2598 14.2342C10.2598 15.111 10.2598 15.9895 10.2598 16.8663C10.2598 17.5617 9.88682 17.9699 9.30448 17.9716C8.72215 17.9733 8.3525 17.5752 8.34744 16.8663C8.33731 15.0925 8.33731 13.3182 8.34744 11.5432C8.34744 10.8344 8.71539 10.438 9.30279 10.438C9.8902 10.438 10.2514 10.8445 10.2598 11.5432C10.2683 12.4402 10.2598 13.3372 10.2598 14.2342Z" fill="white"/>
<path d="M54.5833 14.1918C54.5833 13.3352 54.5833 12.4785 54.5833 11.6218C54.5833 10.8592 54.9209 10.446 55.5251 10.4376C56.1294 10.4292 56.4974 10.8357 56.5008 11.5866C56.5075 13.3402 56.5075 15.0938 56.5008 16.8475C56.5008 17.558 56.1446 17.9611 55.5623 17.9712C54.9529 17.9813 54.5934 17.5664 54.5866 16.8223C54.5765 15.9455 54.5833 15.0686 54.5833 14.1918Z" fill="white"/>
<path d="M22.0973 31.8345C22.0973 31.3306 22.0805 30.8166 22.0973 30.3076C22.0965 30.1852 22.1198 30.0638 22.1661 29.9503C22.2123 29.8369 22.2806 29.7336 22.3669 29.6464C22.4533 29.5593 22.5561 29.4898 22.6694 29.4422C22.7827 29.3945 22.9044 29.3695 23.0274 29.3687C23.1508 29.3684 23.2731 29.3926 23.3871 29.4397C23.5011 29.4868 23.6046 29.5559 23.6915 29.6431C23.7785 29.7303 23.8472 29.8337 23.8937 29.9475C23.9403 30.0613 23.9636 30.1831 23.9625 30.306C23.9828 31.344 23.9828 32.3821 23.9625 33.4202C23.9639 33.5429 23.9407 33.6646 23.8945 33.7783C23.8483 33.8921 23.7799 33.9956 23.6933 34.0829C23.6067 34.1702 23.5035 34.2396 23.3898 34.287C23.2761 34.3344 23.1541 34.3589 23.0308 34.3591C22.5244 34.3591 22.1379 33.9745 22.094 33.4235C22.094 33.3832 22.094 33.3412 22.094 33.3009V31.8345H22.0973Z" fill="white"/>
<path d="M12.498 22.0179C12.498 21.5258 12.4828 21.0353 12.498 20.5448C12.4933 20.2962 12.5866 20.0556 12.7579 19.8745C12.9292 19.6934 13.1649 19.5861 13.4145 19.5756C13.9496 19.5605 14.3615 19.9536 14.3716 20.5549C14.3902 21.5779 14.3918 22.6008 14.3716 23.6238C14.3748 23.7466 14.3531 23.8688 14.3079 23.9831C14.2627 24.0975 14.1948 24.2016 14.1084 24.2894C14.0219 24.3771 13.9187 24.4467 13.8047 24.4939C13.6907 24.5412 13.5684 24.5651 13.4449 24.5644C13.3211 24.5635 13.1986 24.5384 13.0846 24.4904C12.9705 24.4423 12.8671 24.3724 12.7803 24.2846C12.6934 24.1967 12.6248 24.0927 12.5784 23.9784C12.532 23.8642 12.5087 23.742 12.5098 23.6187C12.4811 23.0812 12.498 22.5487 12.498 22.0179Z" fill="white"/>
<path d="M52.3412 22.1003C52.3412 22.5908 52.3547 23.0812 52.3412 23.5717C52.3227 24.1664 51.9209 24.5661 51.3859 24.5577C51.2622 24.5565 51.1401 24.5306 51.0266 24.4815C50.9132 24.4325 50.8108 24.3613 50.7255 24.2722C50.6402 24.1831 50.5738 24.0778 50.5301 23.9627C50.4864 23.8476 50.4663 23.7249 50.471 23.602C50.453 22.5796 50.453 21.5566 50.471 20.5331C50.4658 20.4099 50.4856 20.2869 50.5293 20.1714C50.5729 20.056 50.6395 19.9505 50.7251 19.8613C50.8106 19.7721 50.9134 19.7009 51.0272 19.6521C51.1411 19.6033 51.2636 19.5779 51.3876 19.5773C51.9209 19.5673 52.3227 19.9687 52.3412 20.565C52.353 21.0757 52.3412 21.588 52.3412 22.1003Z" fill="white"/>
<path d="M42.8149 30.1664C42.8149 29.6624 42.798 29.1434 42.8149 28.6344C42.811 28.5113 42.8328 28.3887 42.8787 28.2743C42.9247 28.1599 42.9939 28.0562 43.082 27.9697C43.1701 27.8831 43.2752 27.8156 43.3907 27.7713C43.5062 27.727 43.6297 27.7069 43.7534 27.7123C43.8772 27.7094 44.0003 27.7318 44.1151 27.7781C44.2299 27.8244 44.334 27.8936 44.421 27.9814C44.5079 28.0692 44.5759 28.1737 44.6208 28.2886C44.6656 28.4036 44.6864 28.5264 44.6817 28.6496C44.6986 29.6708 44.6986 30.6927 44.6817 31.7151C44.6874 31.8379 44.6681 31.9606 44.6249 32.0758C44.5817 32.1911 44.5155 32.2964 44.4304 32.3855C44.3452 32.4747 44.2429 32.5457 44.1294 32.5945C44.016 32.6432 43.8938 32.6686 43.7702 32.6692C43.2233 32.6826 42.8317 32.2979 42.8132 31.7C42.7963 31.196 42.8132 30.677 42.8132 30.1664H42.8149Z" fill="white"/>
<path d="M27.2691 38.3199C27.6894 38.3669 28.0152 38.5634 28.1401 38.9767C28.265 39.3899 28.1941 39.7863 27.816 40.008C26.9906 40.4918 26.15 40.9587 25.2841 41.3686C24.8554 41.5735 24.4267 41.4072 24.1735 40.9839C23.9405 40.5925 23.9372 40.1441 24.3035 39.8703C25.175 39.2672 26.1066 38.755 27.0835 38.3417C27.1438 38.3246 27.2065 38.3172 27.2691 38.3199Z" fill="white"/>
<path d="M56.5022 7.74025C56.5022 8.49781 56.1342 8.97149 55.5333 8.96477C54.9324 8.95805 54.5864 8.50452 54.583 7.78896C54.583 7.03308 54.9544 6.55604 55.5519 6.56107C56.1494 6.56611 56.4971 7.02132 56.5022 7.74025Z" fill="white"/>
<path d="M10.2598 7.76712C10.2598 8.49612 9.90533 8.94293 9.32299 8.95973C8.74065 8.97652 8.3406 8.50117 8.34229 7.74865C8.34229 7.02468 8.70352 6.57283 9.28079 6.551C9.85806 6.52916 10.2631 7.01628 10.2598 7.76712Z" fill="white"/>
<path d="M56.5023 21.0604C56.5023 21.7944 56.1461 22.2261 55.5503 22.2362C54.9544 22.2463 54.5763 21.7927 54.5831 21.0201C54.5831 20.2944 54.946 19.8442 55.5351 19.8442C56.1242 19.8442 56.5074 20.2927 56.5023 21.0604Z" fill="white"/>
<path d="M10.2598 21.0135C10.2598 21.7879 9.91036 22.2347 9.29595 22.2313C8.68154 22.2279 8.34904 21.7979 8.34229 21.0555C8.34229 20.2862 8.69675 19.8293 9.30778 19.836C9.91881 19.8427 10.2564 20.2895 10.2598 21.0135Z" fill="white"/>
<path d="M14.3866 16.5117C14.3866 17.2956 14.0822 17.6948 13.4734 17.7093C12.8404 17.7245 12.4944 17.2995 12.4961 16.5083C12.4961 15.7575 12.8337 15.3325 13.4464 15.3325C14.0591 15.3325 14.3849 15.7457 14.3866 16.5117Z" fill="white"/>
<path d="M44.6987 24.62C44.6987 25.4112 44.3611 25.8479 43.7349 25.8361C43.1391 25.8244 42.8167 25.4061 42.8184 24.6402C42.8201 23.8742 43.1458 23.4644 43.7467 23.4543C44.3476 23.4442 44.6953 23.8675 44.6987 24.62Z" fill="white"/>
<path d="M52.3414 16.5371C52.3414 17.2997 52.0139 17.7129 51.4012 17.7129C50.7885 17.7129 50.4543 17.303 50.461 16.4867C50.461 15.7342 50.8104 15.326 51.4265 15.3428C52.0426 15.3596 52.3431 15.7678 52.3414 16.5371Z" fill="white"/>
<path d="M22.0938 26.3314C22.0938 25.557 22.4043 25.1556 23.0086 25.1354C23.6129 25.1153 23.9758 25.552 23.9741 26.3465C23.9741 27.0974 23.6365 27.5223 23.0238 27.5223C22.4111 27.5223 22.0938 27.0839 22.0938 26.3314Z" fill="white"/>
</g>
<defs>
<clipPath id="clip0_622_831">
<rect width="59" height="60" fill="white" transform="translate(0.5)"/>
</clipPath>
</defs>
</svg>
