<svg width="58" height="60" viewBox="0 0 58 60" fill="none" xmlns="http://www.w3.org/2000/svg">
<g clip-path="url(#clip0_622_742)">
<path d="M23.7132 0C23.8361 0.0479665 23.9612 0.0896851 24.0883 0.124998C26.2727 0.640623 27.7823 1.92969 28.5403 4.04375C28.6815 4.43594 28.8541 4.56875 29.27 4.59375C32.6827 4.77326 36.0015 5.77024 38.9445 7.5C39.183 7.64219 39.4938 7.86719 39.5314 8.09531C39.5747 8.42665 39.4894 8.76193 39.2929 9.03281C39.0214 9.37344 38.6056 9.29688 38.2195 9.10313C37.2419 8.61406 36.2783 8.09063 35.2709 7.67188C33.416 6.9 31.4623 6.51094 29.4646 6.34531C29.2951 6.33125 29.1241 6.34531 28.9232 6.34531V12.1094C29.5697 12.1094 30.2069 12.1094 30.844 12.1094C31.4811 12.1094 31.8813 12.4313 32.0664 13.0672C32.2654 13.7402 32.5033 14.4012 32.7789 15.0469C32.9009 15.2709 33.08 15.459 33.2983 15.5922C34.0829 16.1406 34.8456 16.0359 35.613 15.5297C35.9268 15.3266 36.2972 15.2312 36.6095 15.0359C37.2591 14.6328 37.8209 14.7031 38.3466 15.25C38.9555 15.8828 39.5785 16.5 40.1858 17.1359C40.5216 17.4875 40.5577 17.8844 40.3427 18.3219C40.0148 18.9859 39.7009 19.6578 39.3823 20.3281C39.0638 20.9984 39.5769 22.2406 40.269 22.4875C40.961 22.7344 41.6311 22.9734 42.309 23.2063C42.8065 23.3734 43.1078 23.675 43.1062 24.2281C43.1062 25.1828 43.1062 26.1359 43.1062 27.0906C43.1062 27.6125 42.8253 27.9172 42.3498 28.0828C41.7048 28.3062 41.0709 28.5703 40.4149 28.7578C39.9316 28.8953 39.7307 29.1891 39.5126 29.625C39.1862 30.2781 39.2144 30.8125 39.5754 31.4188C39.8735 31.9188 40.0838 32.4719 40.3443 32.9953C40.5514 33.4094 40.5263 33.8016 40.2062 34.1312C39.5 34.8604 38.7824 35.5771 38.0532 36.2812C37.7221 36.5938 37.3266 36.6125 36.9123 36.4078C36.2281 36.0703 35.5376 35.7469 34.8503 35.4219C34.2556 35.1406 32.9782 35.6562 32.7569 36.2687C32.498 36.9828 32.2391 37.6984 31.9895 38.4172C31.8326 38.8687 31.5501 39.1359 31.048 39.1609C30.3481 39.1969 29.6498 39.2469 28.9185 39.2922V47.2344H35.8986C35.8986 46.7531 35.9205 46.2734 35.8986 45.7969C35.8515 44.8875 36.2611 44.3109 37.0598 43.8859C42.7782 40.8422 46.4189 36.1781 47.5739 29.8063C48.8293 22.9078 46.8222 16.9266 41.8947 11.9266C41.73 11.7594 41.5479 11.6141 41.3832 11.4422C40.972 11.0188 40.9359 10.5047 41.2827 10.1391C41.6295 9.77344 42.1254 9.75 42.5836 10.1609C44.0467 11.4646 45.3149 12.97 46.3499 14.6313C53.0804 25.475 49.3786 39.2641 38.1065 45.3266C37.7927 45.4953 37.6357 45.6734 37.664 46.0422C37.6954 46.4453 37.664 46.8547 37.664 47.2469C40.112 47.8391 40.6738 50.1547 39.4122 51.8203C40.2172 52.9047 40.3396 54.0594 39.5518 55.2156C38.7641 56.3719 37.5275 56.4062 36.2658 56.3437C36.2332 56.4859 36.2148 56.6308 36.2109 56.7766C36.3395 58.3641 35.6396 59.4234 34.1708 59.9922H20.1918C19.2879 59.6938 18.3479 59.4734 17.488 59.0812C16.0361 58.4075 14.8444 57.2808 14.0936 55.8719C13.8771 55.4813 13.648 55.3922 13.2227 55.4141C8.30778 55.6625 4.30301 52.6563 3.22964 47.9031C2.74787 45.7703 3.03504 43.7156 4.00014 41.7531C4.07547 41.5969 4.15707 41.4406 4.25907 41.2328C1.99149 40.4125 0.528933 38.8766 0.10994 36.5016C-0.309054 34.1266 0.524224 32.1875 2.42303 30.625C2.31475 30.5 2.20804 30.3703 2.09505 30.2469C1.20295 29.307 0.553493 28.1654 0.202521 26.9203C0.0455945 26.3484 0.255882 25.9109 0.758047 25.75C1.26021 25.5891 1.68705 25.8312 1.87065 26.4141C2.22101 27.5577 2.86781 28.5892 3.74592 29.4047C3.85453 29.5262 3.99659 29.6134 4.15447 29.6553C4.31236 29.6973 4.47914 29.6922 4.63413 29.6406C5.03158 29.5389 5.4387 29.4792 5.84874 29.4625C6.46546 29.4266 6.89073 29.7859 6.90956 30.3078C6.92683 30.8031 6.56433 31.1766 5.96801 31.2031C3.45718 31.3078 2.06054 33.1203 1.79847 34.9984C1.51286 37.0406 3.01936 39.2172 5.03586 39.5859C5.27343 39.5964 5.50651 39.5191 5.69024 39.3688C6.17201 39.0047 6.60356 38.5719 7.08532 38.2094C7.59376 37.8266 8.11789 37.8969 8.42704 38.3281C8.73618 38.7594 8.60593 39.2656 8.09121 39.6359C5.92877 41.2281 4.77536 43.3531 4.80675 46.0422C4.8397 49.0297 6.23477 51.2953 8.82563 52.7297C11.4165 54.1641 14.0356 54.0328 16.5935 52.5625C16.7504 52.475 16.8869 52.3656 17.0407 52.2812C17.5194 52.0172 18.0152 52.125 18.2789 52.5328C18.5425 52.9406 18.4562 53.4484 17.9791 53.7516C17.4032 54.1141 16.7881 54.4172 16.1855 54.7391C16.016 54.8297 15.8324 54.8953 15.6033 54.9922C16.6092 56.6984 18.0451 57.7547 19.947 58.1172C22.9286 58.6844 25.623 57.2141 26.7749 54.4172C26.9275 54.0179 27.0067 53.5945 27.0087 53.1672C27.0715 50.1625 27.1452 47.1562 27.1484 44.15C27.1599 31.5344 27.1599 18.9198 27.1484 6.30625C27.1484 3.94531 25.7784 2.23125 23.5846 1.82188C21.2024 1.37656 18.1486 3.22813 17.5021 5.49375C18.3762 5.74531 19.2565 5.97969 20.1212 6.25937C20.366 6.3375 20.6908 6.50937 20.7489 6.7125C20.8462 7.00312 20.8635 7.47031 20.6908 7.66406C20.5182 7.85781 20.0333 8 19.7226 7.94687C18.9772 7.82031 18.2648 7.49687 17.5178 7.37656C10.398 6.22812 4.64982 13.2109 7.13867 19.9609C7.19359 20.1078 7.25166 20.2531 7.2956 20.4031C7.43055 20.9063 7.23126 21.3219 6.77774 21.4969C6.67326 21.5413 6.56073 21.564 6.44711 21.5634C6.33348 21.5628 6.22119 21.539 6.11718 21.4934C6.01318 21.4479 5.91966 21.3816 5.84245 21.2986C5.76523 21.2156 5.70595 21.1177 5.66827 21.0109C5.41719 20.4 5.22888 19.7609 4.99349 19.0797C3.60031 19.8197 2.53642 21.053 2.01189 22.5359C1.96481 22.6641 1.93028 22.7969 1.88164 22.925C1.66665 23.4937 1.25393 23.7312 0.756476 23.5797C0.259019 23.4281 0.0424556 22.9797 0.211936 22.4031C0.856904 20.2156 2.20177 18.5875 4.20101 17.4906C4.38932 17.3875 4.58391 17.2953 4.80047 17.1781C4.73142 15.3359 5.04213 13.5563 5.87384 11.9047C7.79044 8.1026 10.8767 5.96719 15.1325 5.49844C15.2365 5.48432 15.3361 5.44762 15.4242 5.39091C15.5123 5.33421 15.5869 5.25889 15.6425 5.17031C16.8038 2.35781 18.836 0.606249 21.8646 0.0578117C21.9013 0.0442902 21.9357 0.025328 21.9667 0.00156403L23.7132 0ZM28.9122 37.5C29.2527 37.5 29.5399 37.4781 29.8302 37.5C30.2853 37.5438 30.5411 37.4 30.6698 36.9234C30.8408 36.2844 31.1217 35.6734 31.3242 35.0484C31.3768 34.8501 31.4821 34.6696 31.629 34.5258C31.7759 34.382 31.959 34.2803 32.159 34.2313C32.3897 34.1887 32.6121 34.1102 32.8181 33.9984C33.9684 33.1969 35.0339 33.4422 36.1795 34.0859C37.3533 34.7453 37.3831 34.6656 38.287 33.6922C38.3909 33.6073 38.4591 33.4867 38.4779 33.3541C38.4968 33.2216 38.4651 33.0869 38.389 32.9766C38.0416 32.3439 37.736 31.6894 37.4741 31.0172C37.3708 30.6592 37.3752 30.279 37.4867 29.9234C37.665 29.3279 37.9037 28.752 38.1991 28.2047C38.3627 27.8883 38.6203 27.6297 38.9367 27.4641C39.6083 27.1516 40.3333 26.9687 41.0238 26.6953C41.1137 26.6571 41.1943 26.6001 41.2601 26.5281C41.3259 26.4561 41.3754 26.3708 41.4051 26.2781C41.6248 24.9719 41.5212 24.8125 40.2988 24.3828C40.1544 24.321 40.006 24.2688 39.8547 24.2266C38.8158 24.0062 38.2995 23.3906 37.8633 22.3781C37.1038 20.6047 37.1822 20.9172 38.0453 19.0625C38.6071 17.8469 38.6087 17.8625 37.6201 16.9484C37.5346 16.8455 37.4134 16.7784 37.2805 16.7604C37.1476 16.7425 37.0128 16.775 36.9029 16.8516C36.2884 17.1929 35.6502 17.49 34.9931 17.7406C34.6171 17.8545 34.216 17.8577 33.8381 17.75C33.2387 17.5755 32.66 17.3372 32.1119 17.0391C31.7949 16.8734 31.536 16.6157 31.3697 16.3C31.0558 15.6313 30.8769 14.9047 30.585 14.2234C30.5299 14.1262 30.4544 14.0418 30.3637 13.976C30.273 13.9103 30.1692 13.8646 30.0593 13.8422C29.7031 13.7797 29.3281 13.825 28.8965 13.825V18.5938C33.6702 18.3656 36.3741 21.9203 36.633 24.9609C36.7899 26.7609 36.3646 28.4172 35.263 29.8625C33.6765 31.9437 31.5219 32.8312 28.9169 32.7125L28.9122 37.5ZM28.9216 30.9297C31.2426 31.0859 33.0315 30.2578 34.1645 28.3C35.2975 26.3422 35.1767 24.3516 33.8507 22.5281C32.6549 20.8922 30.9789 20.2188 28.9279 20.4109L28.9216 30.9297ZM28.5921 54.6016C31.5439 54.6016 34.436 54.6094 37.3297 54.6016C37.4582 54.6098 37.587 54.591 37.7076 54.5464C37.8283 54.5017 37.9381 54.4322 38.0299 54.3424C38.1217 54.2526 38.1935 54.1445 38.2405 54.0252C38.2875 53.9059 38.3087 53.778 38.3027 53.65C38.3027 53.1016 37.9276 52.7406 37.3156 52.7266C36.6314 52.7125 35.9409 52.775 35.2646 52.6984C34.9108 52.6511 34.5894 52.4684 34.3685 52.1891C34.017 51.6562 34.4596 50.9969 35.1375 50.9734C35.8405 50.9484 36.5498 50.9734 37.2497 50.9594C37.9104 50.9391 38.2948 50.5797 38.3027 50.0219C38.3105 49.4641 37.9402 49.1063 37.278 49.0656C37.1807 49.0656 37.0834 49.0656 36.9845 49.0656H29.5321C29.3406 49.0656 29.1507 49.0828 28.9295 49.0922V50.9672C29.7031 50.9672 30.4422 50.9672 31.1814 50.9672C31.7887 50.9672 32.1574 51.3031 32.1684 51.8125C32.1794 52.3219 31.8326 52.6594 31.2771 52.7125C31.0433 52.7344 30.8063 52.7219 30.5725 52.7219H28.9326L28.5921 54.6016ZM26.2052 58.2422C28.6957 58.2422 31.1359 58.2422 33.5808 58.2422C33.6908 58.2486 33.801 58.2325 33.9045 58.1949C34.0081 58.1574 34.1028 58.0991 34.1829 58.0237C34.263 57.9484 34.3268 57.8575 34.3703 57.7567C34.4139 57.6558 34.4362 57.5472 34.436 57.4375C34.4674 57.0969 34.436 56.7516 34.436 56.3594C32.2249 56.3594 30.0782 56.3594 27.9314 56.3688C27.8023 56.3878 27.6851 56.4548 27.6034 56.5563C27.1468 57.0891 26.7058 57.6328 26.2052 58.2391V58.2422Z" fill="white"/>
<path d="M17.2884 38.0814C17.7984 37.7829 18.2566 37.4814 18.7447 37.2423C19.2798 36.9798 19.7584 37.1533 19.9828 37.6283C20.1915 38.0705 20.0409 38.5658 19.5215 38.7923C18.4876 39.2708 17.6793 40.1285 17.2652 41.1862C16.8512 42.2439 16.8634 43.4199 17.2994 44.4689C17.5254 45.0204 17.3088 45.5142 16.8427 45.6876C16.3767 45.8611 15.9012 45.6611 15.6705 45.1048C15.3218 44.2946 15.1586 43.4173 15.1928 42.5365C15.227 41.6558 15.4577 40.7936 15.8682 40.0126C16.0612 39.6314 16.0879 39.408 15.7725 39.0673C15.0491 38.2861 14.8388 37.3267 15.0883 36.2892C15.2295 35.697 15.6313 35.4173 16.1381 35.508C16.645 35.5986 16.8898 36.0142 16.8066 36.6173C16.7031 37.3736 16.78 37.6064 17.2884 38.0814Z" fill="#4BA7E5"/>
<path d="M20.7677 17.7783C21.0957 17.8252 21.43 17.8455 21.7485 17.9236C22.235 18.0424 22.4626 18.3846 22.4139 18.8783C22.3684 19.3471 21.9651 19.6439 21.4582 19.6299C21.0298 19.6174 20.5873 19.5408 20.1777 19.6299C18.8988 19.8908 18.0686 20.6736 17.7249 21.9392C17.5916 22.4252 17.3326 22.7502 16.7944 22.7393C16.1871 22.7268 15.8528 22.1877 16.0097 21.5158C16.2727 20.4549 16.8833 19.5114 17.745 18.8346C18.6066 18.1577 19.6702 17.7861 20.7677 17.7783Z" fill="#4BA7E5"/>
<path d="M56.4055 10.981C56.2203 11.3045 56.134 11.5748 55.9551 11.7623C54.4852 13.2477 53.0044 14.7227 51.5125 16.1873C51.081 16.6107 50.5804 16.6029 50.2132 16.2232C49.8774 15.8748 49.8742 15.3591 50.265 14.9732C51.7495 13.4748 53.234 11.9763 54.7593 10.5201C54.9759 10.3138 55.4483 10.2357 55.7543 10.306C56.0069 10.3498 56.1811 10.7216 56.4055 10.981Z" fill="#4BA7E5"/>
<path d="M55.5063 41.2279C55.1768 41.0717 54.9743 41.0061 54.7939 40.8998C53.3847 40.0665 51.9791 39.2248 50.5773 38.3748C49.9998 38.0264 49.8272 37.5295 50.1065 37.067C50.3858 36.6045 50.8911 36.5264 51.4874 36.8764C52.9296 37.7326 54.3655 38.5951 55.8045 39.4592C56.2282 39.7123 56.4322 40.1061 56.2298 40.542C56.0917 40.8279 55.7417 41.0139 55.5063 41.2279Z" fill="#4BA7E5"/>
<path d="M54.8584 27.4359C54.1538 27.4359 53.446 27.4453 52.7461 27.4359C52.1906 27.425 51.8187 27.0828 51.8046 26.6016C51.7905 26.1203 52.1639 25.6969 52.7461 25.6891C54.193 25.6714 55.6404 25.6714 57.0883 25.6891C57.2068 25.6847 57.3249 25.7039 57.4358 25.7457C57.5467 25.7875 57.648 25.851 57.7338 25.9324C57.8197 26.0138 57.8883 26.1115 57.9356 26.2197C57.983 26.3279 58.0081 26.4445 58.0095 26.5625C58.0095 27.0625 57.625 27.425 57.0397 27.4344C56.3068 27.4453 55.5818 27.4359 54.8584 27.4359Z" fill="#4BA7E5"/>
</g>
<defs>
<clipPath id="clip0_622_742">
<rect width="58" height="60" fill="white"/>
</clipPath>
</defs>
</svg>
