<svg width="60" height="54" viewBox="0 0 60 54" fill="none" xmlns="http://www.w3.org/2000/svg">
<g clip-path="url(#clip0_839_1085)">
<path d="M27.0896 13.4987H4.00967C1.57554 13.4987 0.357628 12.2849 0.355957 9.85736C0.355957 7.72928 0.355957 5.6012 0.355957 3.47312C0.355957 1.29485 1.64905 0.00244141 3.81921 0.00244141H50.3449C52.475 0.00244141 53.7605 1.28732 53.7756 3.43046C53.7906 5.63215 53.7906 7.833 53.7756 10.033C53.7756 12.2314 52.5025 13.4962 50.3148 13.4962C42.5748 13.5012 34.833 13.502 27.0896 13.4987ZM27.1322 2.27357H3.90692C2.85942 2.27357 2.6339 2.48938 2.63139 3.49821C2.63139 5.69823 2.63139 7.89908 2.63139 10.1008C2.63139 10.9565 2.91956 11.2376 3.7766 11.2476C4.75393 11.2602 5.73127 11.2476 6.70859 11.2476H50.0818C51.2871 11.2476 51.5027 11.0343 51.5052 9.85736V3.70399C51.5052 2.43166 51.3473 2.27357 50.0617 2.27357H27.1322Z" fill="white"/>
<path d="M27.0644 17.4438H50.1468C52.5801 17.4438 53.7754 18.6484 53.778 21.1027C53.778 22.7665 53.8155 24.4303 53.7529 26.0916C53.7353 26.5659 53.5361 27.0153 53.1966 27.3464C52.4874 27.9135 51.5326 27.2962 51.5151 26.2899C51.49 24.601 51.5151 22.9146 51.5151 21.2257C51.5151 19.8429 51.3597 19.6898 49.9488 19.6898H4.13737C2.79167 19.6898 2.63379 19.8529 2.63379 21.2156C2.63379 23.2684 2.63379 25.3229 2.63379 27.379C2.63379 28.4556 2.84179 28.6639 3.92186 28.6639H32.6502C32.9433 28.6537 33.2368 28.6688 33.5273 28.7091C33.7871 28.7354 34.0277 28.8582 34.2016 29.0533C34.3755 29.2483 34.4702 29.5016 34.467 29.7631C34.4896 30.3829 34.1287 30.7669 33.5373 30.9049C33.2964 30.9451 33.0518 30.9578 32.8081 30.9425H4.00455C1.58629 30.9425 0.355852 29.7053 0.355852 27.2786C0.355852 25.2258 0.418514 23.168 0.338323 21.1152C0.250615 18.957 1.66647 17.3961 4.05214 17.4187C11.7104 17.4915 19.3937 17.4438 27.0644 17.4438Z" fill="white"/>
<path d="M43.3786 51.3549C43.128 51.513 42.935 51.6259 42.7471 51.7338C42.2824 52.015 41.7379 52.1343 41.1984 52.073C40.6589 52.0117 40.1549 51.7733 39.765 51.395C39.0483 50.7258 38.3575 50.0349 37.6926 49.3222C36.8556 48.4212 36.7704 47.2769 37.4094 46.2129C37.4946 46.0698 37.5848 45.9268 37.7251 45.711C37.5527 45.6303 37.3752 45.5607 37.1939 45.5027C35.8682 45.1839 35.1089 44.2479 35.0889 42.8802C35.0889 42.0746 35.0889 41.2666 35.0889 40.461C35.0889 38.9904 35.8256 38.077 37.244 37.7332C37.3768 37.7005 37.4946 37.6403 37.6901 37.5751C37.6212 37.414 37.5442 37.2566 37.4595 37.1033C36.7303 35.9163 36.8505 34.782 37.8279 33.7681C38.2514 33.3264 38.6899 32.9023 39.121 32.4682C40.6922 30.8972 41.3763 30.7893 43.3811 31.8533C43.4555 31.6904 43.5191 31.5227 43.5715 31.3514C43.8898 30.0239 44.8245 29.266 46.1903 29.2459C47.0197 29.2309 47.8517 29.2459 48.6812 29.2459C50.0971 29.266 50.9967 29.9988 51.3325 31.3991C51.3651 31.5346 51.4252 31.6501 51.4929 31.8508C51.6783 31.7605 51.8262 31.7003 51.959 31.6174C53.1243 30.8997 54.2519 30.9976 55.2393 31.9336C55.8232 32.4882 56.3845 33.0679 56.9509 33.6401C58.0836 34.7895 58.2038 35.8109 57.3694 37.1961C57.3041 37.3231 57.2464 37.4538 57.1965 37.5876C57.422 37.6504 57.5974 37.7056 57.7728 37.7507C58.353 37.8716 58.8732 38.1904 59.2448 38.6526C59.6164 39.1149 59.8162 39.692 59.8102 40.2854C59.8327 41.0909 59.8102 41.899 59.8102 42.707C59.8102 44.283 59.111 45.1438 57.5799 45.5127C57.4528 45.5588 57.3296 45.6151 57.2115 45.6808C57.2942 45.854 57.3518 46.0046 57.4345 46.1401C58.1612 47.3321 58.046 48.4664 57.0712 49.4778C56.5274 50.0399 55.971 50.5895 55.4147 51.1391C54.272 52.2683 53.2596 52.3813 51.8638 51.5531C51.7312 51.4893 51.5948 51.434 51.4553 51.3875C51.3926 51.6385 51.345 51.8367 51.2899 52.035C51.1584 52.5873 50.8467 53.0799 50.4042 53.4349C49.9616 53.7899 49.4135 53.9869 48.8466 53.9949C48.0171 54.02 47.1851 53.9949 46.3557 53.9949C44.7869 53.9949 43.9173 53.2922 43.554 51.7639C43.5076 51.6227 43.449 51.4858 43.3786 51.3549ZM53.43 49.8316C53.5736 49.736 53.7109 49.6312 53.841 49.5179C54.3271 49.0386 54.7932 48.5367 55.2969 48.0749C55.6252 47.7738 55.6553 47.5429 55.4097 47.1414C54.4374 45.5579 55.1942 43.7435 57.006 43.3269C57.4496 43.224 57.5598 43.0433 57.5473 42.6443C57.5298 41.9843 57.5247 41.3243 57.5473 40.6643C57.5648 40.2101 57.4546 39.9892 56.9408 39.8788C55.4373 39.5551 54.4549 37.9264 55.1867 36.6315C55.7981 35.5424 55.3145 35.0731 54.6304 34.4833C54.3705 34.2599 54.1283 34.0166 53.9061 33.7556C53.6179 33.4143 53.3749 33.3992 52.9764 33.6451C51.3977 34.6188 49.5758 33.8534 49.1699 32.0441C49.0671 31.5974 48.8767 31.4945 48.4807 31.5045C47.8216 31.5221 47.1626 31.5271 46.5035 31.5045C46.0524 31.487 45.8369 31.5898 45.7242 32.1093C45.3959 33.6276 43.7795 34.5862 42.4664 33.866C41.4365 33.2988 40.9628 33.6753 40.3739 34.3679C40.1389 34.6493 39.8798 34.9096 39.5996 35.1458C39.2563 35.4369 39.2437 35.6804 39.4893 36.0769C40.4616 37.6604 39.6998 39.4723 37.8855 39.8863C37.4444 39.9867 37.3342 40.1825 37.3442 40.579C37.3593 41.239 37.3643 41.899 37.3442 42.559C37.3292 43.0157 37.4445 43.224 37.9582 43.3369C39.4618 43.6707 40.4316 45.2818 39.7124 46.5868C39.1435 47.6232 39.5369 48.0925 40.2135 48.6822C40.492 48.9205 40.7509 49.1806 40.9879 49.4602C41.2761 49.7965 41.5142 49.8266 41.9176 49.5756C43.4914 48.5919 45.3032 49.3498 45.7242 51.1692C45.8244 51.6108 46.0073 51.7238 46.4058 51.7162C47.0648 51.6987 47.7239 51.6962 48.383 51.7162C48.8315 51.7313 49.0521 51.6259 49.1648 51.1064C49.2457 50.7156 49.4198 50.3502 49.6723 50.0415C49.9248 49.7327 50.2482 49.4898 50.6149 49.3334C50.9816 49.1771 51.3806 49.112 51.7779 49.1437C52.1752 49.1753 52.5589 49.3029 52.8962 49.5154C53.0766 49.6183 53.242 49.7187 53.43 49.8316Z" fill="white"/>
<path d="M16.6598 34.8749H29.4828C29.7513 34.8661 30.0201 34.8761 30.2872 34.905C30.5478 34.9229 30.7918 35.0395 30.9696 35.2311C31.1474 35.4227 31.2457 35.6749 31.2444 35.9364C31.282 36.5588 30.9312 36.9528 30.3373 37.0933C30.072 37.1336 29.803 37.1437 29.5354 37.1234H4.03472C2.81933 37.1234 2.63139 37.3092 2.62888 38.5213C2.62888 40.6008 2.62888 42.6796 2.62888 44.7574C2.62888 45.8892 2.82936 46.0875 3.94451 46.0875H29.5053C30.6781 46.0875 31.2194 46.4338 31.2395 47.1967C31.2595 47.9596 30.6932 48.3586 29.4853 48.3586H4.07232C1.5413 48.3586 0.355957 47.1616 0.355957 44.6244C0.355957 42.5214 0.355957 40.4185 0.355957 38.3155C0.355957 36.1623 1.60896 34.885 3.76409 34.8774C8.06181 34.8548 12.362 34.8749 16.6598 34.8749Z" fill="white"/>
<path d="M21.5039 25.3185H10.8861C10.6907 25.3185 10.4952 25.3185 10.2997 25.3185C9.48281 25.2759 8.9691 24.8166 8.99666 24.1441C9.02423 23.4715 9.52542 23.0549 10.3123 23.0549C17.8051 23.0549 25.2979 23.0549 32.7908 23.0549C33.5876 23.0549 34.0613 23.4891 34.0788 24.1541C34.0964 24.8819 33.6152 25.316 32.7081 25.3185C28.9742 25.3185 25.2428 25.3185 21.5039 25.3185Z" fill="#4BA7E5"/>
<path d="M20.1556 40.4888H29.6107C29.854 40.4702 30.0986 40.4795 30.3399 40.5164C30.9363 40.6569 31.2821 41.0534 31.2445 41.6733C31.2446 41.9348 31.146 42.1866 30.9685 42.3784C30.791 42.5701 30.5476 42.6876 30.2873 42.7072C30.0441 42.7315 29.7996 42.7382 29.5555 42.7273H10.7207C10.5729 42.7273 10.4275 42.7273 10.2797 42.7273C9.49781 42.7022 9.00163 42.2706 8.99662 41.6206C8.99161 40.9706 9.49781 40.5039 10.2496 40.4938C11.3723 40.4788 12.505 40.4938 13.6201 40.4938L20.1556 40.4888Z" fill="#4BA7E5"/>
<path d="M45.1399 24.2043C45.1339 24.5038 45.0093 24.7887 44.7936 24.9963C44.5779 25.2038 44.2887 25.317 43.9896 25.311C43.6906 25.3051 43.4061 25.1803 43.1988 24.9643C42.9916 24.7483 42.8785 24.4587 42.8845 24.1592C42.8905 23.8597 43.015 23.5748 43.2307 23.3673C43.4464 23.1597 43.7357 23.0465 44.0347 23.0525C44.3338 23.0585 44.6183 23.1832 44.8255 23.3992C45.0328 23.6152 45.1458 23.9048 45.1399 24.2043Z" fill="#4BA7E5"/>
<path d="M39.9554 24.1767C39.9598 24.3234 39.9344 24.4694 39.8807 24.606C39.827 24.7425 39.7461 24.8667 39.643 24.9709C39.5398 25.0751 39.4166 25.1573 39.2807 25.2123C39.1449 25.2673 38.9993 25.2941 38.8528 25.2909C38.5578 25.2903 38.2747 25.1743 38.0639 24.9675C37.8532 24.7607 37.7316 24.4796 37.7251 24.1842C37.7338 23.8888 37.8544 23.6077 38.0624 23.398C38.2704 23.1883 38.5503 23.0656 38.8453 23.0549C39.1402 23.0589 39.4218 23.1786 39.6294 23.3884C39.837 23.5982 39.9541 23.8813 39.9554 24.1767Z" fill="#4BA7E5"/>
<path d="M21.589 5.61633C25.1741 5.61633 28.7618 5.61633 32.352 5.61633C32.644 5.60603 32.9363 5.62622 33.2241 5.67656C33.4616 5.73199 33.674 5.86467 33.8281 6.05384C33.9823 6.24301 34.0694 6.47802 34.076 6.72209C34.0826 6.96616 34.0082 7.20553 33.8645 7.40276C33.7208 7.6 33.5159 7.74397 33.2817 7.81216C33.0219 7.87559 32.7546 7.90261 32.4874 7.89247C25.19 7.89247 17.8918 7.89247 10.5928 7.89247C10.3046 7.89247 9.92621 7.92761 9.74829 7.76951C9.43253 7.49095 9.03909 7.06433 9.05413 6.7155C9.06916 6.36668 9.49015 5.96264 9.82345 5.71169C10.0164 5.56112 10.3873 5.61633 10.678 5.61633C14.315 5.61298 17.952 5.61298 21.589 5.61633Z" fill="#4BA7E5"/>
<path d="M44.0374 5.64147C44.3326 5.65063 44.6125 5.77485 44.8175 5.98767C45.0226 6.20049 45.1365 6.48508 45.135 6.7808C45.1284 7.0803 45.0032 7.36489 44.787 7.57197C44.5708 7.77905 44.2814 7.89164 43.9823 7.88499C43.6832 7.87833 43.399 7.75297 43.1922 7.53648C42.9855 7.31999 42.873 7.03011 42.8797 6.7306C42.8908 6.43305 43.0185 6.15187 43.2353 5.948C43.452 5.74413 43.7402 5.634 44.0374 5.64147Z" fill="#4BA7E5"/>
<path d="M39.9554 6.76827C39.9527 7.06426 39.8336 7.34728 39.6239 7.55589C39.4142 7.76449 39.1308 7.88185 38.8352 7.8825C38.5403 7.86918 38.2615 7.74405 38.0554 7.53247C37.8492 7.3209 37.7312 7.03872 37.7251 6.74318C37.7354 6.44732 37.8596 6.16693 38.0717 5.96067C38.2837 5.7544 38.5672 5.63824 38.8628 5.63647C39.0094 5.63674 39.1545 5.66647 39.2894 5.72391C39.4243 5.78136 39.5463 5.86535 39.6482 5.9709C39.7501 6.07645 39.8298 6.20141 39.8825 6.33838C39.9353 6.47535 39.9601 6.62153 39.9554 6.76827Z" fill="#4BA7E5"/>
<path d="M47.4328 36.1697C48.5081 36.1672 49.56 36.4839 50.4556 37.0797C51.3513 37.6756 52.0505 38.5238 52.4651 39.5173C52.8797 40.5109 52.9909 41.6052 52.7849 42.662C52.5788 43.7189 52.0646 44.6908 51.3073 45.4552C50.5499 46.2196 49.5833 46.7421 48.5297 46.9567C47.476 47.1713 46.3824 47.0685 45.387 46.6611C44.3917 46.2537 43.5392 45.5601 42.9373 44.6679C42.3353 43.7756 42.0109 42.7248 42.0049 41.648C41.9996 40.2008 42.5684 38.8107 43.5863 37.7834C44.6041 36.7561 45.9877 36.1757 47.4328 36.1697ZM47.488 38.4283C46.8626 38.4211 46.2491 38.5991 45.7245 38.9401C45.1999 39.281 44.7876 39.7696 44.5395 40.3444C44.2913 40.9193 44.2183 41.5547 44.3297 42.171C44.4411 42.7873 44.7319 43.3568 45.1655 43.8081C45.5992 44.2593 46.1563 44.5722 46.767 44.7073C47.3776 44.8425 48.0145 44.7939 48.5977 44.5676C49.1808 44.3413 49.6842 43.9475 50.0445 43.4357C50.4049 42.9238 50.6061 42.3167 50.6229 41.6907C50.6377 41.2688 50.5676 40.8483 50.4168 40.4542C50.266 40.0601 50.0375 39.7003 49.745 39.3964C49.4526 39.0925 49.102 38.8506 48.7142 38.6851C48.3265 38.5197 47.9095 38.434 47.488 38.4333V38.4283Z" fill="#4BA7E5"/>
</g>
<defs>
<clipPath id="clip0_839_1085">
<rect width="59.4915" height="54" fill="white" transform="translate(0.333496)"/>
</clipPath>
</defs>
</svg>
