<svg width="54" height="54" viewBox="0 0 54 54" fill="none" xmlns="http://www.w3.org/2000/svg">
<g clip-path="url(#clip0_839_1570)">
<path d="M11.8111 30.5829H12.5571V25.2555C12.1051 25.1723 11.6392 25.1252 11.1982 24.9976C9.12942 24.4014 7.79827 23.037 7.33792 20.946C6.8637 18.8023 7.56533 16.9969 9.24035 15.5743C9.36713 15.4665 9.50576 15.3734 9.65355 15.2969C9.83707 15.1745 10.0617 15.13 10.278 15.1731C10.4944 15.2163 10.6847 15.3436 10.8072 15.5271C10.9496 15.6938 11.0204 15.9099 11.0043 16.1286C10.9882 16.3472 10.8865 16.5506 10.7212 16.6946C10.5798 16.8416 10.4023 16.9553 10.247 17.0884C9.69668 17.5626 9.30334 18.1928 9.11912 18.8956C8.9349 19.5983 8.96847 20.3404 9.21539 21.0236C9.46565 21.7187 9.92497 22.3193 10.5303 22.7429C11.1356 23.1664 11.8572 23.3922 12.5959 23.3892V22.7458C12.5959 16.7834 12.5959 10.821 12.5959 4.85856C12.5959 1.89123 14.4734 0.0109863 17.438 0.0109863C23.8071 0.0109863 30.1781 0.0109863 36.5509 0.0109863C39.51 0.0109863 41.3819 1.894 41.3819 4.86965C41.3819 10.1942 41.3819 15.5188 41.3819 20.8434V21.6088C41.82 21.6088 42.2416 21.6088 42.6631 21.6088C43.3952 21.6088 43.6642 21.8306 43.8279 22.5544C43.9499 23.1091 44.058 23.6637 44.1884 24.1989C44.2189 24.3321 44.2854 24.5151 44.388 24.5622C44.9427 24.8248 45.5112 25.0651 46.0936 25.2833C46.1934 25.3193 46.3709 25.2167 46.4874 25.1418C46.9976 24.8294 47.5033 24.5077 48.0043 24.1768C48.1978 24.0229 48.4441 23.9513 48.6899 23.9772C48.9358 24.0031 49.1616 24.1246 49.3188 24.3154C49.9788 24.981 50.6444 25.641 51.3044 26.3066C51.4784 26.4549 51.5893 26.6639 51.6146 26.8912C51.6398 27.1184 51.5775 27.3467 51.4403 27.5296C51.1131 28.0537 50.7553 28.5612 50.4586 29.102C50.3955 29.3113 50.3803 29.5322 50.4142 29.7481C50.4142 29.8175 50.4947 29.8813 50.5057 29.9506C50.7276 31.2096 51.615 31.5785 52.741 31.7393C53.8669 31.9002 53.9778 32.0998 53.9778 33.2674C53.9778 34.0189 53.9778 34.7677 53.9778 35.5192C53.9778 36.1931 53.767 36.451 53.0987 36.6146C52.5441 36.7533 51.9617 36.8559 51.407 37.0195C51.2172 37.0974 51.0577 37.2346 50.9522 37.4105C50.833 37.5936 50.8274 37.857 50.6999 38.0317C50.1646 38.7611 50.4087 39.3462 50.8801 40.0229C51.9118 41.501 51.8785 41.526 50.6028 42.7961C50.2478 43.1566 49.8901 43.5144 49.5324 43.8749C48.8335 44.5793 48.5922 44.6043 47.7409 44.0552L47.6937 44.0219C46.1657 43.0374 46.1629 43.0318 44.5101 43.7862C44.3586 43.8752 44.2474 44.0192 44.1995 44.1883C44.0469 44.7679 43.9443 45.3586 43.8057 45.9409C43.667 46.5233 43.251 46.8755 42.7408 46.7729C42.2305 46.6703 41.931 46.2183 42.0585 45.5638C42.1984 44.7151 42.3836 43.8746 42.6132 43.0457C42.7422 42.7124 42.9902 42.4387 43.3093 42.2775C44.0719 41.892 44.89 41.6175 45.672 41.2598C45.8433 41.1645 46.0376 41.1185 46.2333 41.1268C46.4291 41.1352 46.6188 41.1975 46.7813 41.3069C47.2056 41.5842 47.6493 41.831 48.0515 42.1389C48.3593 42.369 48.559 42.3219 48.8058 42.0501C49.057 41.8014 49.3238 41.5689 49.6045 41.354C49.1996 40.719 48.8834 40.1921 48.534 39.6901C48.3999 39.5098 48.3219 39.294 48.3096 39.0696C48.2972 38.8453 48.3512 38.6222 48.4647 38.4283C48.8085 37.7045 49.1164 36.9613 49.3909 36.2097C49.4419 35.9993 49.5534 35.8084 49.7116 35.6606C49.8697 35.5128 50.0677 35.4144 50.2811 35.3778C50.9023 35.2585 51.518 35.1004 52.1475 34.9618V33.4254C51.5568 33.2951 50.9633 33.1481 50.3643 33.0372C50.1238 32.9998 49.9 32.8914 49.7216 32.7259C49.5432 32.5603 49.4184 32.3452 49.3632 32.1082C49.1132 31.3853 48.8187 30.6786 48.4813 29.9922C48.3617 29.8018 48.3015 29.5801 48.3084 29.3554C48.3153 29.1306 48.389 28.913 48.5201 28.7304C48.7974 28.331 49.0249 27.8984 49.316 27.5074C49.5462 27.1996 49.4824 27.0082 49.2245 26.7558C48.4591 26.0071 48.4702 25.996 47.5606 26.5784C47.4945 26.6138 47.4314 26.6546 47.372 26.7004C46.6454 27.3438 45.9327 27.3965 45.0924 26.828C44.6127 26.5007 43.9832 26.3621 43.4285 26.1818C43.208 26.1355 43.0068 26.0231 42.8518 25.8596C42.6967 25.6961 42.5951 25.4893 42.5605 25.2666C42.4523 24.6593 42.2998 24.0603 42.1584 23.4308H41.4068V28.7609C41.7036 28.8053 41.9975 28.833 42.2859 28.8912C44.5683 29.3488 46.0575 30.7132 46.6011 32.954C47.1446 35.1947 46.4069 37.0556 44.621 38.5004C44.4047 38.6999 44.1192 38.8074 43.8251 38.7999C43.5014 38.7041 43.2247 38.4916 43.0486 38.2037C42.824 37.8099 43.0486 37.441 43.4008 37.1887C44.2061 36.6192 44.7527 35.7535 44.9205 34.7815C45.3115 32.6656 43.5145 30.5385 41.3708 30.6522V49.1412C41.3708 52.1391 39.4961 54.0082 36.4899 54.0082H17.4324C14.4678 54.0082 12.5848 52.1252 12.5848 49.1634C12.5848 43.8204 12.5848 38.4773 12.5848 33.1342V32.3993C12.0968 32.3993 11.653 32.3993 11.1982 32.3993C10.9505 32.4258 10.7024 32.3532 10.508 32.1973C10.3137 32.0414 10.1889 31.8149 10.161 31.5674C10.0363 30.9822 9.90869 30.3971 9.7728 29.8147C9.74507 29.6927 9.71179 29.5124 9.6286 29.4736C9.03513 29.1963 8.43611 28.9384 7.82601 28.7026C7.74004 28.6694 7.58751 28.7803 7.47936 28.8469C6.97186 29.163 6.46436 29.4847 5.96518 29.8147C5.77348 29.9717 5.52755 30.0467 5.28087 30.0233C5.03419 29.9999 4.80672 29.8801 4.64791 29.6899C3.98788 29.0271 3.32231 28.3671 2.65951 27.7015C2.47821 27.5478 2.36381 27.3296 2.34052 27.0931C2.31723 26.8566 2.38687 26.6203 2.53471 26.4342C2.60682 26.3232 2.67892 26.2151 2.74548 26.1014C3.05885 25.5911 3.57744 25.0975 3.62182 24.5678C3.66619 24.0381 3.23911 23.4585 2.98675 22.9177C2.89988 22.7655 2.75795 22.6523 2.59018 22.6016C1.99671 22.438 1.39215 22.3243 0.787592 22.18C0.542365 22.1482 0.319653 22.0207 0.167978 21.8254C0.0163023 21.6301 -0.052042 21.3828 -0.0221815 21.1373C-0.0221815 20.2388 -0.0221815 19.3375 -0.0221815 18.439C-0.0373032 18.3173 -0.0282686 18.1939 0.00440975 18.0757C0.0370881 17.9575 0.0927638 17.847 0.168248 17.7504C0.243733 17.6538 0.337537 17.573 0.444292 17.5127C0.551047 17.4524 0.668656 17.4138 0.790368 17.399C1.37644 17.2733 1.95974 17.1402 2.54026 16.9997C3.0339 16.8777 3.76325 15.0889 3.49425 14.6619C3.18642 14.171 2.87859 13.6802 2.55413 13.1948C2.39633 13.0046 2.32003 12.7598 2.34185 12.5136C2.36366 12.2674 2.48182 12.0398 2.67061 11.8803L4.65345 9.8864C4.8031 9.70133 5.01933 9.58228 5.25574 9.5548C5.49216 9.52732 5.72993 9.5936 5.91804 9.73942C6.4394 10.0722 6.94967 10.4244 7.48768 10.7267C7.67822 10.8035 7.88881 10.8152 8.08669 10.76C8.30023 10.7128 8.48603 10.5298 8.69957 10.4826C9.53153 10.3273 9.89483 9.80043 9.96138 8.9851C10.0049 8.60876 10.0839 8.23736 10.1971 7.87582C10.2435 7.6533 10.3734 7.45706 10.5602 7.32755C10.747 7.19804 10.9764 7.14513 11.201 7.17974C11.318 7.19595 11.4305 7.23595 11.5315 7.2973C11.6325 7.35864 11.7199 7.44002 11.7882 7.53642C11.8566 7.63282 11.9044 7.74219 11.9289 7.8578C11.9533 7.9734 11.9538 8.09279 11.9304 8.2086C11.7556 9.16536 11.5698 10.1249 11.3036 11.0567C11.1592 11.3487 10.911 11.5761 10.6075 11.6945C9.85045 12.0578 9.05454 12.3351 8.29468 12.6873C8.11518 12.7881 7.91087 12.836 7.7053 12.8257C7.49972 12.8154 7.30124 12.7473 7.1327 12.6291C6.69454 12.3518 6.26192 12.0384 5.80157 11.7971C5.71157 11.7631 5.61516 11.7495 5.51927 11.7572C5.42337 11.7648 5.33037 11.7936 5.24692 11.8415C4.93292 12.085 4.63379 12.3471 4.35117 12.6263C4.74497 13.2392 5.0528 13.7356 5.3939 14.2348C5.54787 14.4348 5.63635 14.6774 5.64726 14.9295C5.65818 15.1817 5.59101 15.431 5.45491 15.6436C5.12085 16.3121 4.83449 17.0035 4.59798 17.7124C4.54691 17.9404 4.42921 18.1481 4.25985 18.3091C4.09048 18.47 3.87708 18.577 3.64677 18.6165C3.04221 18.7302 2.4432 18.8938 1.82477 19.0269V20.5522C2.43765 20.6964 3.0644 20.8572 3.69669 20.982C3.9076 21.0224 4.10261 21.1222 4.25882 21.2695C4.41503 21.4169 4.52596 21.6058 4.57858 21.814C4.8559 22.5655 5.16372 23.3087 5.50483 24.0326C5.61564 24.2179 5.66994 24.4316 5.66108 24.6473C5.65221 24.8631 5.58056 25.0716 5.45491 25.2472C5.15208 25.6745 4.87429 26.1189 4.62295 26.5784C4.58684 26.6683 4.57277 26.7656 4.58194 26.8621C4.5911 26.9586 4.62323 27.0515 4.67563 27.133C5.44936 28.0288 5.46046 28.0204 6.44772 27.3881C6.59493 27.3049 6.73665 27.2122 6.87202 27.1108C7.45717 26.6144 8.01736 26.6643 8.66629 27.0498C9.21967 27.3646 9.81163 27.606 10.4273 27.7681C10.6949 27.8179 10.9394 27.9527 11.1242 28.1526C11.3091 28.3525 11.4245 28.6066 11.4534 28.8774C11.5421 29.4514 11.6863 30.0116 11.8111 30.5829ZM39.5821 27.0027C39.5821 19.5982 39.5821 12.1937 39.5821 4.78923C39.5821 2.88404 38.4894 1.80248 36.5759 1.80248H17.4075C15.4662 1.80248 14.3957 2.88681 14.3957 4.85302C14.3957 19.6268 14.3957 34.3988 14.3957 49.169C14.3957 51.149 15.4662 52.2195 17.4463 52.2195H36.5038C38.5227 52.2195 39.571 51.1601 39.571 49.1246C39.5802 41.7441 39.5839 34.3702 39.5821 27.0027Z" fill="white"/>
<path d="M45.8719 7.20483C46.1067 7.20542 46.3322 7.29708 46.5008 7.46053C46.6694 7.62398 46.768 7.84647 46.7759 8.08117C46.7803 8.33497 46.6878 8.58089 46.5173 8.76893C46.3468 8.95696 46.111 9.07298 45.858 9.09339C45.7414 9.0973 45.6252 9.07711 45.5168 9.0341C45.4083 8.99109 45.3099 8.92618 45.2277 8.84342C45.1454 8.76066 45.0811 8.66183 45.0388 8.5531C44.9965 8.44438 44.977 8.32809 44.9817 8.21151C44.969 8.08594 44.9825 7.95911 45.0212 7.839C45.0599 7.71888 45.123 7.60807 45.2067 7.51353C45.2903 7.41899 45.3925 7.34276 45.507 7.28964C45.6215 7.23651 45.7457 7.20764 45.8719 7.20483Z" fill="#4BA7E5"/>
<path d="M44.9813 11.7946C44.9705 11.6675 44.9864 11.5395 45.028 11.4189C45.0697 11.2983 45.1362 11.1878 45.2232 11.0945C45.3103 11.0012 45.4159 10.9272 45.5333 10.8772C45.6507 10.8273 45.7773 10.8025 45.9048 10.8046C46.1395 10.8132 46.3617 10.9125 46.5247 11.0816C46.6876 11.2508 46.7785 11.4765 46.7784 11.7114C46.7758 11.9653 46.6761 12.2085 46.4997 12.3911C46.3232 12.5737 46.0836 12.6818 45.83 12.6931C45.7142 12.6933 45.5996 12.6698 45.4932 12.6241C45.3869 12.5784 45.291 12.5113 45.2115 12.4272C45.132 12.343 45.0706 12.2435 45.031 12.1347C44.9914 12.0259 44.9745 11.9102 44.9813 11.7946Z" fill="#4BA7E5"/>
<path d="M44.9817 15.3831C44.9724 15.257 44.9895 15.1303 45.032 15.0112C45.0744 14.8921 45.1412 14.7831 45.2281 14.6912C45.315 14.5994 45.4201 14.5267 45.5367 14.4777C45.6532 14.4287 45.7788 14.4046 45.9052 14.4069C46.1401 14.4141 46.363 14.5125 46.5266 14.6813C46.6902 14.8501 46.7816 15.0759 46.7815 15.311C46.779 15.5644 46.6796 15.8072 46.5038 15.9897C46.328 16.1723 46.089 16.2806 45.8358 16.2927C45.7179 16.2963 45.6005 16.2749 45.4915 16.2297C45.3825 16.1845 45.2843 16.1166 45.2035 16.0306C45.1227 15.9446 45.0612 15.8423 45.0229 15.7307C44.9847 15.6191 44.9706 15.5006 44.9817 15.3831Z" fill="#4BA7E5"/>
<path d="M7.19905 38.5671C7.19536 38.4463 7.21568 38.3261 7.25884 38.2132C7.302 38.1004 7.36713 37.9973 7.45046 37.9098C7.53378 37.8224 7.63366 37.7523 7.74426 37.7038C7.85487 37.6552 7.97402 37.6291 8.0948 37.627C8.21568 37.628 8.33511 37.6532 8.44606 37.7012C8.557 37.7492 8.65719 37.819 8.7407 37.9064C8.82421 37.9938 8.88936 38.097 8.93227 38.21C8.97519 38.323 8.99501 38.4435 8.99055 38.5643C8.98767 38.6896 8.96013 38.8131 8.90951 38.9277C8.85889 39.0424 8.78617 39.1459 8.69552 39.2325C8.60486 39.319 8.49805 39.3868 8.38118 39.432C8.2643 39.4773 8.13966 39.499 8.01437 39.4961C7.89785 39.4946 7.78296 39.4686 7.67713 39.4198C7.57129 39.371 7.47688 39.3006 7.40002 39.213C7.32315 39.1254 7.26554 39.0226 7.23092 38.9114C7.1963 38.8001 7.18544 38.6828 7.19905 38.5671Z" fill="#4BA7E5"/>
<path d="M7.19928 42.1777C7.19387 42.0523 7.21441 41.9271 7.25959 41.81C7.30478 41.6929 7.37365 41.5864 7.46189 41.4971C7.55013 41.4078 7.65585 41.3377 7.77243 41.2911C7.88901 41.2446 8.01393 41.2226 8.1394 41.2265C8.37381 41.2408 8.59361 41.3452 8.75281 41.5178C8.91201 41.6905 8.99828 41.918 8.99355 42.1528C8.98917 42.4058 8.88501 42.6469 8.70373 42.8235C8.52246 43.0001 8.27876 43.0979 8.0257 43.0957C7.90928 43.0955 7.7942 43.0709 7.68788 43.0235C7.58156 42.9761 7.48638 42.9069 7.40849 42.8204C7.3306 42.7338 7.27173 42.6319 7.23569 42.5212C7.19966 42.4106 7.18725 42.2935 7.19928 42.1777Z" fill="#4BA7E5"/>
<path d="M7.19948 45.7803C7.19371 45.6549 7.21387 45.5296 7.25872 45.4124C7.30356 45.2951 7.37212 45.1884 7.4601 45.0989C7.54808 45.0093 7.65359 44.9389 7.77004 44.892C7.88648 44.8451 8.01135 44.8227 8.13683 44.8263C8.37124 44.8399 8.59133 44.9436 8.75104 45.1157C8.91076 45.2878 8.99772 45.515 8.99375 45.7498C8.9901 46.0028 8.88664 46.2442 8.70589 46.4213C8.52513 46.5984 8.28174 46.6969 8.02868 46.6954C7.91229 46.6956 7.79715 46.6714 7.69071 46.6243C7.58427 46.5772 7.4889 46.5083 7.41075 46.4221C7.3326 46.3358 7.27342 46.2342 7.23703 46.1236C7.20063 46.013 7.18784 45.8961 7.19948 45.7803Z" fill="#4BA7E5"/>
<path d="M20.1143 27.0472C20.4388 27.3467 20.7355 27.6018 21.0128 27.8792C21.6544 28.5115 22.2904 29.1475 22.9208 29.7871C23.456 30.3279 23.5198 30.8437 23.1066 31.2514C22.6934 31.6591 22.1831 31.5953 21.6424 31.0573C20.5682 29.985 19.4968 28.9117 18.4282 27.8376C17.8209 27.2275 17.8181 26.817 18.4282 26.2097C19.4839 25.1466 20.5423 24.0873 21.6035 23.0316C22.1859 22.4492 22.6851 22.3688 23.1094 22.782C23.5337 23.1952 23.4671 23.7166 22.8959 24.2879C22.0029 25.167 21.1016 26.0627 20.1143 27.0472Z" fill="#4BA7E5"/>
<path d="M33.8304 27.0027L31.1459 24.3321C31.021 24.2174 30.9043 24.0941 30.7965 23.9632C30.6514 23.7989 30.5754 23.5849 30.5842 23.3659C30.593 23.1468 30.6859 22.9396 30.8436 22.7874C30.9169 22.7009 31.0072 22.6303 31.1088 22.58C31.2104 22.5296 31.3212 22.5005 31.4344 22.4946C31.5476 22.4886 31.6609 22.5058 31.7672 22.5452C31.8736 22.5846 31.9707 22.6453 32.0527 22.7236C33.3025 23.9364 34.5348 25.1668 35.7494 26.4148C35.8307 26.4893 35.8956 26.58 35.94 26.6809C35.9844 26.7819 36.0073 26.891 36.0073 27.0013C36.0073 27.1116 35.9844 27.2207 35.94 27.3217C35.8956 27.4226 35.8307 27.5133 35.7494 27.5878C34.5477 28.821 33.3303 30.0403 32.0971 31.2457C32.015 31.3308 31.9161 31.398 31.8067 31.4431C31.6973 31.4881 31.5798 31.5101 31.4615 31.5075C31.3432 31.5048 31.2268 31.4778 31.1195 31.428C31.0122 31.3781 30.9164 31.3066 30.8381 31.218C30.7522 31.1304 30.6855 31.0259 30.6421 30.9113C30.5986 30.7966 30.5794 30.6741 30.5857 30.5517C30.592 30.4292 30.6235 30.3094 30.6784 30.1997C30.7333 30.09 30.8103 29.993 30.9046 29.9146C31.8531 28.955 32.8154 28.0121 33.8304 27.0027Z" fill="#4BA7E5"/>
<path d="M28.786 23.5002C28.6945 23.8719 28.578 24.3322 28.4587 24.812C27.9744 26.7532 27.489 28.6945 27.0028 30.6357C26.8392 31.2847 26.4121 31.6008 25.8935 31.4816C25.3749 31.3623 25.1004 30.8714 25.2668 30.2003C25.838 27.8967 26.413 25.594 26.9917 23.2923C27.1304 22.7376 27.5214 22.4603 27.9928 22.5158C28.2232 22.5531 28.4317 22.6742 28.5781 22.856C28.7245 23.0377 28.7986 23.2672 28.786 23.5002Z" fill="#4BA7E5"/>
<path d="M27.0222 5.4161C26.1598 5.4161 25.3001 5.4161 24.4376 5.4161C23.7859 5.4161 23.381 5.04171 23.3949 4.49539C23.4087 3.94907 23.7998 3.6246 24.4237 3.62183C26.1283 3.62183 27.8339 3.62183 29.5403 3.62183C30.192 3.62183 30.5969 3.99344 30.583 4.53976C30.5692 5.08608 30.1782 5.40778 29.5514 5.4161C28.7111 5.4161 27.8792 5.4161 27.0222 5.4161Z" fill="white"/>
</g>
<defs>
<clipPath id="clip0_839_1570">
<rect width="53.9806" height="54" fill="white"/>
</clipPath>
</defs>
</svg>
