<svg width="62" height="60" viewBox="0 0 62 60" fill="none" xmlns="http://www.w3.org/2000/svg">
<g clip-path="url(#clip0_622_798)">
<path d="M14.4815 6.73464C15.5407 6.72883 16.5888 6.95134 17.5543 7.38703C20.5096 8.62874 23.2866 7.48054 24.513 4.51001C25.7308 1.57862 28.0555 -0.0175559 31.0782 -0.00233353C33.9726 0.0128888 36.3713 1.64602 37.4564 4.5448C38.3828 7.02169 41.3142 8.78531 44.6848 7.31526C49.3407 5.28416 54.438 8.90056 54.2292 13.9761C54.2058 14.786 54.014 15.5821 53.666 16.3138C52.2264 19.2735 53.5921 22.4246 56.6561 23.6293C61.0054 25.3385 62.3558 30.6229 59.5158 34.2849C58.7287 35.2659 57.6921 36.0171 56.5148 36.4596C53.4899 37.6774 52.3352 40.4565 53.5921 43.4618C55.521 48.0742 52.6831 52.8127 47.7075 53.2476C46.5963 53.3433 45.5329 53.0737 44.5152 52.6496C41.3881 51.3448 38.6829 52.48 37.4042 55.6027C36.2777 58.358 33.8704 60.0194 30.9999 60.0216C28.1294 60.0238 25.6591 58.3384 24.537 55.5593C23.2974 52.4843 20.5117 51.3296 17.476 52.6279C14.7055 53.8152 11.8502 53.2803 9.77563 51.2035C7.70104 49.1267 7.18564 46.2976 8.37516 43.4988C9.65166 40.4957 8.51435 37.7252 5.48945 36.4682C2.61026 35.2744 0.957538 32.8953 0.97276 29.9727C0.987983 27.05 2.64939 24.7144 5.4851 23.5467C8.52957 22.2984 9.62774 19.5497 8.34471 16.4509C6.5376 12.0864 9.14063 7.49142 13.8182 6.79771C14.0379 6.76341 14.2594 6.74235 14.4815 6.73464ZM10.7847 18.508C10.7847 20.2477 10.3497 21.5677 9.51251 22.7529C8.64266 23.9881 7.45964 24.7862 6.06571 25.332C4.20206 26.0605 3.11694 27.4371 2.93427 29.4399C2.71681 31.9494 3.84327 33.7717 6.19621 34.7025C7.86632 35.3548 9.15803 36.4422 9.98656 38.0231C11.0413 40.052 11.0043 42.1092 10.1105 44.1947C9.16674 46.3976 9.59513 48.5157 11.2979 50.0335C13.0376 51.5775 14.9578 51.6667 17.0389 50.7664C18.3224 50.1973 19.7508 50.0403 21.1273 50.3173C22.5038 50.5942 23.7604 51.2913 24.724 52.3125C25.5025 53.115 25.9613 54.0936 26.405 55.1004C27.2748 57.0946 28.8666 58.0862 31.0304 58.0666C33.1941 58.047 34.6924 57.038 35.5732 55.0809C35.745 54.7025 35.8841 54.3067 36.0755 53.9392C37.7652 50.6772 41.5121 49.3246 44.9414 50.7707C46.107 51.2622 47.277 51.5253 48.51 51.2057C49.2145 51.0358 49.8736 50.7142 50.441 50.2634C51.0085 49.8126 51.4708 49.2434 51.7957 48.5956C52.1205 47.9477 52.3001 47.2368 52.322 46.5124C52.3438 45.788 52.2073 45.0675 51.922 44.4013C51.4457 43.227 51.0652 42.0418 51.1956 40.7675C51.4957 37.7904 53.0658 35.7832 55.8515 34.6785C57.937 33.8522 59.0917 32.1234 59.0852 29.977C59.0787 27.8307 57.9131 26.1584 55.8232 25.2994C51.785 23.6445 50.191 19.815 51.8633 15.7767C52.1416 15.1584 52.3087 14.4959 52.3569 13.8196C52.5069 10.5163 48.9471 7.45662 45.2111 9.08541C41.1946 10.8382 37.3477 9.20284 35.6819 5.17109C34.7968 3.02474 33.1376 1.87219 30.9434 1.88306C28.8101 1.89393 27.1248 3.07911 26.2701 5.16675C24.6283 9.1724 20.814 10.7729 16.8192 9.13108C16.1548 8.82766 15.4392 8.65208 14.7098 8.61352C11.1587 8.54611 8.64482 12.2582 10.0214 15.5723C10.478 16.6074 10.8129 17.6578 10.7912 18.508H10.7847Z" fill="white"/>
<path d="M23.6866 40.9524C23.3017 42.2854 22.7689 42.6921 21.4228 42.6921C20.5116 42.6921 19.6005 42.6921 18.6871 42.6921C17.4041 42.6769 16.6473 42.0005 16.6408 40.7349C16.6191 35.8638 16.6191 30.9912 16.6408 26.1171C16.6408 24.8384 17.3628 24.173 18.6611 24.1447C19.6005 24.123 20.5377 24.1447 21.4772 24.1447C22.782 24.1447 23.293 24.5557 23.6801 25.8475C24.6065 25.356 25.5633 24.9776 26.6376 24.9776C27.1182 24.9776 27.3465 24.6362 27.527 24.2252C28.212 22.666 28.3142 21.0002 28.4403 19.341C28.4676 18.5334 28.5835 17.7312 28.7861 16.9489C29.4537 14.7612 31.5479 14.1067 33.3376 15.5398C34.9403 16.825 35.4513 18.6408 35.6383 20.5762C35.7677 21.8768 35.6459 23.1902 35.2795 24.4448C35.1317 24.9494 35.2795 24.9972 35.7144 24.9928C37.6955 24.9754 39.6744 24.9798 41.6555 24.9928C43.9628 24.9928 45.2197 26.7826 44.4325 28.9528C44.3797 29.0637 44.3639 29.1887 44.3874 29.3092C44.4109 29.4298 44.4724 29.5396 44.563 29.6226C45.6633 30.9404 45.6133 32.404 44.4173 33.6C44.3092 33.6811 44.2324 33.7969 44.1995 33.9279C44.1667 34.059 44.1798 34.1973 44.2368 34.3198C44.7022 35.792 44.2368 36.9946 42.8994 37.7709C42.5906 37.9492 42.5449 38.071 42.6123 38.4233C42.9625 40.2869 41.7425 41.8309 39.8353 41.844C35.4317 41.8766 31.0281 41.8614 26.6245 41.844C25.5806 41.8307 24.5618 41.5216 23.6866 40.9524ZM33.1875 39.9912H37.6433C38.3457 39.9912 39.0503 40.0064 39.7527 39.9912C40.3768 39.9716 40.84 39.6911 40.7987 38.9996C40.7661 38.3472 40.342 38.1297 39.7266 38.1515C39.2308 38.1732 38.735 38.171 38.2414 38.1515C37.6586 38.1275 37.2345 37.8883 37.1997 37.2338C37.1606 36.5314 37.5933 36.2682 38.2066 36.1987C38.4144 36.1845 38.6229 36.1845 38.8307 36.1987C39.7157 36.2161 40.6008 36.2508 41.4859 36.2487C42.1165 36.2487 42.5602 35.9529 42.5297 35.2636C42.5014 34.6112 42.0796 34.3937 41.4641 34.4111C40.5008 34.4329 39.5352 34.4111 38.5719 34.4111C37.7412 34.4111 37.3345 34.0827 37.3258 33.4478C37.3171 32.8128 37.7042 32.4735 38.5458 32.4735C39.7962 32.4735 41.0466 32.5018 42.297 32.5062C43.0364 32.5062 43.4974 32.13 43.4561 31.5385C43.4061 30.8578 42.9798 30.6338 42.3318 30.6468C41.0553 30.6708 39.7788 30.6642 38.5023 30.6468C37.7347 30.6468 37.3389 30.312 37.3258 29.6987C37.3128 29.0855 37.6825 28.731 38.461 28.7136C39.5026 28.6897 40.5443 28.7136 41.5881 28.7136C42.4449 28.7136 42.8929 28.3874 42.8255 27.7764C42.758 27.0457 42.2601 26.8804 41.6055 26.8869C39.1569 26.9043 36.7082 26.8869 34.2574 26.9022C33.2332 26.9022 32.857 26.4129 33.1136 25.4321C33.5202 23.8686 33.9552 22.305 33.766 20.6654C33.6007 19.2758 33.3137 17.9231 32.1198 17.0011C31.4261 16.464 30.9238 16.6249 30.6302 17.436C30.443 18.0601 30.3428 18.707 30.3323 19.3584C30.2148 20.9415 30.0778 22.5159 29.619 24.0534C29.1014 25.7931 28.1707 26.8804 26.17 26.9435C24.5695 26.9892 23.6388 28.1678 23.6388 29.7487C23.6388 32.2495 23.7084 34.7504 23.6083 37.2512C23.5605 38.4559 24.1476 39.067 25.0566 39.5693C25.6876 39.8881 26.3903 40.038 27.0964 40.0042L33.1875 39.9912ZM21.7534 33.3825C21.7534 31.4036 21.7534 29.4247 21.7534 27.4458C21.7534 26.0301 21.7751 26.0301 20.3225 26.0301C19.932 26.0508 19.5408 26.0508 19.1503 26.0301C18.6263 25.9758 18.498 26.1823 18.498 26.6825C18.5154 31.1883 18.5154 35.6942 18.498 40.2C18.498 40.6566 18.5806 40.8524 19.0894 40.8263C19.7657 40.7806 20.4443 40.7806 21.1205 40.8263C21.6359 40.8611 21.7729 40.6936 21.7729 40.1739C21.7381 37.9144 21.7534 35.6485 21.7534 33.376V33.3825Z" fill="#4BA7E5"/>
</g>
<defs>
<clipPath id="clip0_622_798">
<rect width="60.037" height="60" fill="white" transform="translate(0.981445)"/>
</clipPath>
</defs>
</svg>
