<svg width="51" height="54" viewBox="0 0 51 54" fill="none" xmlns="http://www.w3.org/2000/svg">
<g clip-path="url(#clip0_839_868)">
<path d="M31.5254 20.5277H45.9716C45.9845 20.3428 46.0067 20.1893 46.0067 20.0321C46.0067 19.2334 45.9624 18.4309 46.0215 17.6377C46.0936 16.667 45.9698 16.0254 44.8844 15.5335C43.2536 14.7939 42.6157 12.76 43.1722 11.046C43.7399 9.29501 45.4058 8.22444 47.3158 8.37791C49.0058 8.51289 50.498 9.94031 50.7531 11.6636C50.8903 12.5412 50.7208 13.4392 50.2732 14.2064C49.8256 14.9736 49.1272 15.5631 48.2958 15.8756C47.8465 16.0383 47.7411 16.2454 47.7411 16.6855C47.7651 18.1647 47.7522 19.6254 47.7411 21.0953C47.7411 22.0198 47.4656 22.2953 46.5411 22.2953C42.5127 22.2953 38.4838 22.2953 34.4542 22.2953H33.7682V22.9332C33.7682 24.5973 33.7682 26.2725 33.7682 27.9403C33.7682 28.6651 33.4576 28.9868 32.7457 28.9887C27.8459 28.9887 22.946 28.9887 18.0462 28.9887C17.3435 28.9887 17.0422 28.6596 17.0385 27.9292C17.0385 26.2781 17.0385 24.6269 17.0385 22.9758V22.2972H4.34879C3.30226 22.2972 3.05449 22.0531 3.05449 21.0269C3.05449 19.5477 3.03969 18.0519 3.06372 16.5653C3.06372 16.1955 2.94541 16.0365 2.59964 15.9107C1.75155 15.6141 1.03253 15.0326 0.565182 14.2652C0.0978317 13.4979 -0.0889397 12.5922 0.0366874 11.7026C0.162315 10.8129 0.592577 9.9944 1.25413 9.38646C1.91569 8.77853 2.76758 8.41883 3.66465 8.36867C5.61534 8.27991 7.22769 9.45773 7.70473 11.3271C7.94077 12.2607 7.8194 13.2488 7.36443 14.0975C6.90946 14.9462 6.15372 15.5942 5.24555 15.9144C4.89794 16.042 4.77961 16.1955 4.787 16.5671C4.81104 17.8725 4.787 19.1761 4.787 20.5221H19.2702V9.69439H16.9552C16.5984 10.8741 15.905 11.806 14.7365 12.3366C13.9395 12.7089 13.0375 12.7906 12.1867 12.5677C11.317 12.3503 10.5486 11.8402 10.0105 11.1232C9.47241 10.4062 9.19742 9.52584 9.23169 8.63002C9.26595 7.73421 9.60738 6.87745 10.1987 6.20362C10.7899 5.52979 11.5951 5.07991 12.4788 4.92953C14.4332 4.58192 16.0363 5.63214 16.983 7.91935C17.9389 7.91935 18.917 7.91935 19.8952 7.91935C20.7919 7.91935 21.0471 8.18561 21.0471 9.09717C21.0471 12.6719 21.0471 16.2466 21.0471 19.8214V20.5129H24.4714V7.72706L24.1016 7.59393C23.2307 7.29347 22.4939 6.69487 22.0215 5.90386C21.5491 5.11285 21.3714 4.18033 21.5199 3.27103C21.6683 2.36172 22.1334 1.53414 22.8328 0.93447C23.5323 0.334799 24.4212 0.00162338 25.3425 -0.00620645C26.2638 -0.0140363 27.1583 0.303985 27.8678 0.891682C28.5774 1.47938 29.0565 2.29893 29.2203 3.20558C29.3842 4.11223 29.2225 5.04764 28.7636 5.84656C28.3047 6.64549 27.5782 7.25652 26.7124 7.57174C26.4443 7.67159 26.2465 7.72336 26.2483 8.10241C26.265 12.1295 26.2483 16.1585 26.2594 20.1856C26.2594 20.291 26.2761 20.3946 26.289 20.5258H29.73V19.8639C29.73 16.2892 29.73 12.7144 29.73 9.13969C29.73 8.15973 29.9685 7.92121 30.9485 7.91751C31.7472 7.91751 32.546 7.89532 33.3522 7.92675C33.722 7.94154 33.8754 7.80657 34.0012 7.46081C34.6169 5.74494 36.207 4.75572 38.0486 4.89809C39.685 5.02382 41.1531 6.34401 41.4896 7.99332C41.6845 8.95078 41.5137 9.9465 41.0109 10.7843C40.508 11.6221 39.7096 12.2411 38.773 12.5195C37.8365 12.7979 36.8296 12.7155 35.9508 12.2884C35.072 11.8613 34.385 11.1206 34.0252 10.2121C33.9586 10.0457 33.905 9.87375 33.8403 9.6833H31.5235L31.5254 20.5277ZM18.8098 22.3231V27.2081H31.9894V22.3231H18.8098ZM27.5685 3.88299C27.5641 3.45524 27.4334 3.03833 27.1926 2.68471C26.9519 2.33109 26.612 2.05655 26.2157 1.89563C25.8193 1.73471 25.3842 1.69458 24.9651 1.78031C24.546 1.86604 24.1616 2.07379 23.8603 2.37742C23.559 2.68106 23.3541 3.06702 23.2716 3.48676C23.1891 3.9065 23.2325 4.34127 23.3965 4.73638C23.5604 5.1315 23.8375 5.46932 24.193 5.70733C24.5484 5.94535 24.9663 6.07294 25.3941 6.07406C25.6808 6.07333 25.9646 6.01604 26.2292 5.90547C26.4938 5.79489 26.7339 5.63321 26.9359 5.42968C27.1379 5.22615 27.2977 4.98477 27.4063 4.71936C27.5148 4.45395 27.57 4.16974 27.5685 3.88299ZM13.1334 6.62876C12.5663 6.6258 12.0212 6.84774 11.6174 7.24595C11.2136 7.64416 10.9842 8.18618 10.9793 8.75325C10.9683 9.04108 11.0151 9.32819 11.1169 9.59763C11.2187 9.86708 11.3734 10.1134 11.572 10.322C11.7706 10.5307 12.009 10.6974 12.2731 10.8124C12.5371 10.9274 12.8216 10.9883 13.1096 10.9915C13.3976 10.9947 13.6834 10.9401 13.9499 10.8311C14.2165 10.722 14.4586 10.5607 14.6618 10.3565C14.8649 10.1523 15.0252 9.90954 15.133 9.64243C15.2407 9.37532 15.2939 9.08933 15.2893 8.80133C15.2943 8.51606 15.242 8.2327 15.1356 7.96796C15.0292 7.70323 14.8709 7.46249 14.6699 7.25997C14.469 7.05745 14.2295 6.89726 13.9655 6.78885C13.7016 6.68043 13.4187 6.626 13.1334 6.62876ZM46.8684 10.1012C46.4411 10.1053 46.0246 10.2365 45.672 10.478C45.3195 10.7195 45.0467 11.0604 44.8884 11.4574C44.7301 11.8543 44.6935 12.2894 44.7832 12.7072C44.8729 13.125 45.0848 13.5067 45.3921 13.8038C45.6993 14.1008 46.0879 14.2998 46.5086 14.3753C46.9292 14.4509 47.3627 14.3996 47.7541 14.228C48.1455 14.0565 48.477 13.7723 48.7065 13.4118C48.936 13.0513 49.053 12.6307 49.0428 12.2035C49.0316 11.6369 48.7966 11.0977 48.3892 10.7038C47.9818 10.3099 47.435 10.0932 46.8684 10.1012ZM35.5118 8.80688C35.5147 9.23232 35.6435 9.64739 35.8818 9.99982C36.1202 10.3523 36.4574 10.6263 36.8512 10.7874C37.245 10.9485 37.6776 10.9896 38.0946 10.9053C38.5116 10.8211 38.8944 10.6153 39.1948 10.3139C39.4951 10.0126 39.6995 9.62911 39.7824 9.21179C39.8652 8.79448 39.8227 8.36199 39.6602 7.96877C39.4977 7.57556 39.2226 7.23921 38.8693 7.00207C38.5161 6.76494 38.1006 6.63762 37.6751 6.63615C37.3899 6.63191 37.1067 6.68498 36.8423 6.79219C36.5779 6.89941 36.3377 7.0586 36.136 7.26033C35.9343 7.46207 35.7751 7.70224 35.6679 7.96662C35.5606 8.231 35.5076 8.51422 35.5118 8.79948V8.80688ZM1.75464 12.2516C1.75173 12.6799 1.87635 13.0994 2.11266 13.4566C2.34896 13.8139 2.68626 14.0927 3.08158 14.2577C3.47689 14.4226 3.91233 14.4661 4.33247 14.3827C4.75261 14.2993 5.13843 14.0928 5.44079 13.7894C5.74314 13.486 5.94837 13.0995 6.03031 12.679C6.11226 12.2586 6.0672 11.8233 5.90092 11.4286C5.73463 11.0338 5.45463 10.6975 5.09656 10.4624C4.73849 10.2274 4.31856 10.1042 3.89024 10.1086C3.3243 10.11 2.78195 10.3355 2.38177 10.7357C1.98158 11.1359 1.7561 11.6782 1.75464 12.2442V12.2516Z" fill="#4BA7E5"/>
<path d="M30.9264 45.9938C30.4716 47.1753 30.0611 48.2366 29.6506 49.298C29.364 50.0376 29.1773 50.1725 28.4044 50.1725C26.41 50.1725 24.4143 50.1725 22.4173 50.1725C21.6315 50.1725 21.4337 50.0339 21.1582 49.3164C20.7884 48.3365 20.3927 47.3602 20.0358 46.3728C19.9872 46.241 19.9075 46.1228 19.8036 46.0282C19.6996 45.9335 19.5745 45.8653 19.4386 45.8292C17.8596 45.2006 16.2953 44.5571 14.7311 43.8748C14.6012 43.8034 14.4558 43.7647 14.3076 43.7621C14.1594 43.7596 14.0128 43.7932 13.8805 43.86C12.9283 44.302 11.9576 44.7069 11.0053 45.1543C10.4506 45.4095 10.0217 45.3392 9.58899 44.8899C8.1665 43.4391 6.72984 42.0018 5.27899 40.5781C4.84262 40.151 4.74462 39.7312 5.01457 39.1691C5.47682 38.2052 5.90825 37.2283 6.30887 36.2385C6.38692 35.9969 6.37975 35.7358 6.28853 35.4989C5.64139 33.889 4.97512 32.2865 4.28976 30.6915C4.18706 30.4603 4.00647 30.2725 3.77945 30.1608C2.77915 29.7392 1.76219 29.351 0.74339 28.9775C0.229368 28.7926 -0.00730379 28.4671 0.0037902 27.9161C0.0222802 26.9547 0.0037902 25.9932 0.0037902 25.0317C0.0037902 24.1775 0.279287 23.9075 1.15571 23.9057C4.9289 23.9057 8.7027 23.9057 12.4771 23.9057C13.3924 23.9057 13.6327 24.1386 13.6753 25.052C13.8602 29.1198 15.6167 32.3482 19.0152 34.5799C26.6109 39.5722 36.5252 34.4228 37.0984 25.2388C37.1742 24.0425 37.3184 23.9038 38.5 23.9038H49.4959C50.5554 23.9038 50.7902 24.1294 50.7902 25.1704C50.7902 26.0782 50.7736 26.9861 50.7902 27.8921C50.8032 28.4671 50.5572 28.7963 50.021 28.9886C49.0004 29.3584 47.9871 29.7577 46.9813 30.1664C46.7893 30.24 46.6304 30.3805 46.5338 30.5621C45.8534 32.2927 45.2007 34.0345 44.5129 35.8409C45.7334 36.4223 46.8151 37.2585 47.6852 38.2932C48.5553 39.3279 49.1935 40.537 49.5569 41.8391C50.1284 43.7685 50.0577 45.8313 49.3554 47.7171C48.6718 49.588 47.4216 51.1991 45.779 52.3259C44.1365 53.4528 42.1834 54.0392 40.1918 54.0037C36.6861 53.9611 32.132 51.5981 30.9264 45.9938ZM49.0466 25.6437H46.471C44.0931 25.6437 41.7153 25.6437 39.3394 25.6437C39.0139 25.6437 38.7847 25.6604 38.7847 26.0893C38.7718 26.47 38.721 26.8485 38.6331 27.2191C37.1428 34.6557 30.3699 39.2875 22.8833 37.995C17.2106 37.0151 12.5086 31.9192 12.0278 26.1929C11.9872 25.7232 11.8226 25.6382 11.4029 25.6382C8.37236 25.653 5.34185 25.6382 2.31134 25.6474C2.13753 25.6474 1.96557 25.6696 1.75664 25.6844C1.73781 26.1688 1.74336 26.6539 1.77327 27.1377C1.79206 27.2398 1.83335 27.3363 1.89412 27.4205C1.95488 27.5046 2.0336 27.5741 2.12459 27.624C3.06018 28.0172 4.00625 28.3839 4.96279 28.7241C5.18823 28.7899 5.39121 28.9164 5.54941 29.09C5.70761 29.2635 5.81493 29.4773 5.85958 29.7078C6.32316 31.6122 7.07846 33.4334 8.09871 35.1069C8.2259 35.2941 8.29993 35.5123 8.31295 35.7383C8.32598 35.9642 8.27749 36.1895 8.17265 36.3901C7.74553 37.3146 7.35172 38.2391 6.92275 39.1636C6.78962 39.4465 6.79702 39.6314 7.03739 39.8662C8.14679 40.9423 9.23029 42.0351 10.312 43.1352C10.3843 43.2359 10.4923 43.3052 10.6139 43.3289C10.7356 43.3526 10.8617 43.329 10.9665 43.2628C11.9187 42.8172 12.8913 42.416 13.8435 41.9685C14.0283 41.8729 14.2356 41.8291 14.4433 41.8418C14.651 41.8545 14.8514 41.9232 15.0232 42.0406C16.727 43.0817 18.583 43.8502 20.524 44.3186C20.737 44.3623 20.934 44.4631 21.094 44.6104C21.2539 44.7576 21.3707 44.9457 21.4318 45.1543C21.785 46.1251 22.1825 47.0792 22.5412 48.048C22.566 48.1717 22.6374 48.2811 22.7407 48.3534C22.844 48.4257 22.9713 48.4554 23.0959 48.4363C24.638 48.4197 26.1801 48.416 27.7184 48.4363C28.0605 48.4363 28.1881 48.3069 28.2953 48.0129C28.6374 47.0773 29.0201 46.1639 29.3566 45.2209C29.5415 44.7106 29.8355 44.3741 30.3847 44.2964C30.7434 44.252 30.871 44.0856 30.9024 43.701C31.0068 42.3493 31.3987 41.0355 32.0518 39.8474C32.7048 38.6593 33.6041 37.6243 34.6894 36.8118C35.7747 35.9992 37.0209 35.4278 38.3448 35.1357C39.6687 34.8436 41.0398 34.8375 42.3662 35.118C42.6861 35.1864 42.7766 35.0181 42.8987 34.8055C43.813 33.2386 44.498 31.5487 44.9326 29.7873C44.9749 29.528 45.09 29.2861 45.2645 29.0897C45.439 28.8933 45.6656 28.7505 45.9181 28.6779C46.8611 28.3599 47.7856 27.9827 48.7064 27.6037C48.7889 27.5695 48.8627 27.5171 48.9222 27.4505C48.9817 27.384 49.0255 27.3049 49.0503 27.2191C49.0706 26.7383 49.0466 26.2317 49.0466 25.6437ZM48.1905 44.4721C48.1927 42.9319 47.7386 41.4257 46.8855 40.1434C46.0325 38.8611 44.8187 37.8602 43.3974 37.2671C41.9761 36.6739 40.411 36.5151 38.8995 36.8106C37.388 37.1061 35.9978 37.8427 34.9046 38.9275C33.8113 40.0123 33.0638 41.3966 32.7565 42.9057C32.4492 44.4149 32.5959 45.9812 33.1779 47.4071C33.7599 48.833 34.7513 50.0546 36.0269 50.9176C37.3025 51.7806 38.8052 52.2465 40.3452 52.2564C41.3733 52.2669 42.3932 52.0732 43.3458 51.6865C44.2984 51.2998 45.1647 50.7277 45.8945 50.0036C46.6244 49.2795 47.2031 48.4176 47.5972 47.4681C47.9914 46.5185 48.193 45.5002 48.1905 44.4721Z" fill="white"/>
<path d="M39.1434 43.9692C40.4173 42.7285 41.6081 41.5655 42.8026 40.4062C43.6568 39.5778 44.8365 39.4817 45.711 40.1751C46.6781 40.9424 46.8611 42.3587 46.0031 43.2592C44.2688 45.0841 42.4901 46.8703 40.6965 48.6342C40.3079 49.0159 39.7835 49.2277 39.2388 49.2228C38.694 49.218 38.1735 48.9969 37.7918 48.6083C36.7859 47.645 35.7967 46.6576 34.8334 45.6499C34.4608 45.2444 34.2585 44.711 34.2684 44.1604C34.2783 43.6097 34.4997 43.084 34.8866 42.6921C35.2735 42.3002 35.7964 42.0721 36.3468 42.0551C36.8973 42.0382 37.4332 42.2336 37.8435 42.6009C38.3243 43.0355 38.7422 43.5402 39.1434 43.9692ZM44.7865 41.9353C44.7717 41.5507 44.4648 41.3658 44.1948 41.5137C44.0563 41.6021 43.9317 41.7105 43.825 41.8355C42.5603 43.1094 41.3011 44.3871 40.0346 45.6573C39.4614 46.2324 39.038 46.2268 38.4556 45.6573C37.9009 45.1026 37.3702 44.5368 36.7915 44.0173C36.6509 43.8897 36.2904 43.8213 36.1554 43.9119C35.8632 44.106 36.0056 44.3815 36.222 44.596C37.0928 45.4669 37.9692 46.3359 38.8346 47.2123C39.1212 47.5026 39.3708 47.5193 39.6648 47.2123C41.2937 45.5593 42.9301 43.9156 44.5591 42.2626C44.6456 42.164 44.7218 42.0568 44.7865 41.9427V41.9353Z" fill="white"/>
</g>
<defs>
<clipPath id="clip0_839_868">
<rect width="50.7975" height="54" fill="white"/>
</clipPath>
</defs>
</svg>
