<svg width="67" height="54" viewBox="0 0 67 54" fill="none" xmlns="http://www.w3.org/2000/svg">
<g clip-path="url(#clip0_839_1595)">
<path d="M0.333532 3.55305C0.62741 2.5039 1.0359 1.47533 2.00864 0.908147C2.69827 0.491543 3.46146 0.211196 4.25679 0.0823426C5.30445 -0.00935054 6.35747 -0.023098 7.40717 0.0412044C8.08015 0.0412044 8.46513 0.426181 8.45925 1.00218C8.45338 1.57818 8.06839 1.94259 7.38953 1.96022C6.49027 1.98373 5.58512 1.96022 4.68292 1.96022C3.17826 1.9808 2.27607 2.88006 2.26725 4.37002C2.26725 5.56905 2.26725 6.76512 2.26725 7.99941H64.3371C64.3371 6.56528 64.4253 5.13116 64.3077 3.71173C64.2225 2.70373 63.2997 2.03664 62.2771 1.97198C61.9979 1.95435 61.7187 1.97198 61.4395 1.97198H12.7175C12.4226 1.98297 12.1274 1.96525 11.8359 1.91908C11.608 1.88825 11.4012 1.7696 11.2595 1.58842C11.1179 1.40724 11.0526 1.17789 11.0777 0.949285C11.0776 0.720465 11.1664 0.50056 11.3254 0.336042C11.4845 0.171523 11.7013 0.0752796 11.9299 0.0676523C12.144 0.0500204 12.3588 0.0441348 12.5735 0.0500204C28.9425 0.0500204 45.3115 0.0764705 61.6805 0.0235725C64.6192 0.0235725 66.3825 2.14831 66.3825 4.72561C66.3237 19.6752 66.3531 34.6277 66.3531 49.5772C66.3531 51.7695 65.1218 53.427 63.1205 53.9001C62.7003 53.9884 62.2712 54.0269 61.8421 54.0148H17.0317C16.8352 54.0234 16.6385 54.0135 16.4439 53.9854C16.2278 53.9607 16.0284 53.8571 15.8841 53.6943C15.7398 53.5316 15.6608 53.3212 15.6622 53.1037C15.6336 52.8868 15.6893 52.6672 15.8178 52.4901C15.9463 52.313 16.1377 52.1918 16.3528 52.1516C16.6478 52.0936 16.9487 52.0709 17.2491 52.084C32.0488 52.084 46.8495 52.084 61.6511 52.084C62.4534 52.084 63.2556 52.037 63.7494 51.3522C64.1006 50.9009 64.3111 50.3561 64.3547 49.7859C64.3881 36.6378 64.3969 23.4907 64.3812 10.3446C64.3812 10.2593 64.3665 10.177 64.3547 10.0507H2.26725V49.4685C2.26725 51.2317 3.11361 52.081 4.86806 52.084H11.6272C11.8629 52.0753 12.0987 52.0951 12.3296 52.1428C12.5444 52.1807 12.7375 52.297 12.8716 52.4691C13.0057 52.6411 13.0712 52.8568 13.0555 53.0743C13.066 53.3044 12.9861 53.5294 12.8329 53.7013C12.6797 53.8732 12.4653 53.9783 12.2356 53.9942C12.15 54.0075 12.0635 54.0134 11.977 54.0118C9.44373 54.0118 6.90757 54.0412 4.37435 53.9971C3.48615 53.9814 2.62688 53.6787 1.92502 53.1341C1.22315 52.5896 0.716377 51.8325 0.480471 50.9761C0.430512 50.8144 0.377605 50.6528 0.324707 50.4912L0.333532 3.55305Z" fill="white"/>
<path d="M26.9441 20.0014C26.13 19.7428 25.3454 19.5224 24.593 19.2373C24.4238 19.1501 24.229 19.1262 24.0437 19.1698C23.8583 19.2134 23.6947 19.3218 23.5821 19.4754C22.9944 20.1072 22.4066 20.7185 21.7571 21.2945C21.6083 21.3976 21.5051 21.5542 21.4689 21.7316C21.4328 21.909 21.4665 22.0935 21.5632 22.2466C21.5926 22.3054 21.5896 22.3759 21.619 22.4318C22.5006 24.0275 22.245 25.5821 21.3486 27.0515C21.0612 27.5705 20.6139 27.9828 20.0732 28.227C18.5744 28.7237 18.1571 29.623 18.213 31.1805C18.26 32.4618 18.5068 33.2376 19.7852 33.6461C21.5485 34.2045 21.8571 35.8561 22.1774 37.3226C22.3273 38.0073 21.8835 38.8537 21.6043 39.5913C21.4899 39.8152 21.4602 40.0729 21.5207 40.317C21.5811 40.561 21.7277 40.775 21.9335 40.9196C22.5477 41.4545 23.0766 42.0951 23.6967 42.627C23.931 42.7595 24.1947 42.8312 24.4637 42.8357C24.5689 42.8293 24.6704 42.7948 24.7576 42.7358C25.4178 42.3773 26.1598 42.1964 26.9109 42.2108C27.662 42.2252 28.3964 42.4345 29.0424 42.8181C29.6918 43.1766 30.2355 43.5263 30.5529 44.214C30.8468 44.8341 31.0437 45.6569 31.5462 45.9772C32.0487 46.2976 32.8892 45.9772 33.5563 46.1066C34.8699 46.3417 35.5694 45.7833 35.9602 44.5843C36.5333 42.821 38.1761 42.5271 39.6396 42.1892C40.3214 42.0363 41.1677 42.483 41.9083 42.7622C42.4667 42.9679 42.8399 42.9003 43.2337 42.4419C43.728 41.8746 44.2602 41.3415 44.8265 40.8461C45.1968 40.5141 45.3526 40.1967 45.0939 39.7412C45.0734 39.7059 45.0763 39.6559 45.0587 39.6177C44.177 38.022 44.4327 36.4732 45.3232 34.998C45.6308 34.5437 46.0315 34.1601 46.4987 33.8724C47.0864 33.4786 47.9681 33.3464 48.2943 32.8292C48.6205 32.3119 48.3149 31.445 48.4265 30.7544C48.6264 29.5113 48.1326 28.806 46.9571 28.4386C45.1645 27.8773 44.8265 26.2257 44.5003 24.7358C44.3504 24.051 44.8442 23.2223 45.0587 22.4641C45.1674 22.0791 45.3026 21.7382 45.0939 21.3033C45.0034 21.1026 44.9963 20.8741 45.0739 20.6681C45.1516 20.462 45.3078 20.2952 45.5083 20.2042C45.6899 20.0807 45.9111 20.0294 46.1285 20.0604C46.3459 20.0914 46.5439 20.2024 46.6838 20.3717C46.9186 20.5929 47.0883 20.8742 47.1743 21.1851C47.2603 21.496 47.2594 21.8245 47.1717 22.135C46.9895 22.7727 46.772 23.4045 46.5663 24.0334C46.2959 24.8592 46.8601 26.2316 47.6595 26.6254L49.2141 27.4042C49.5583 27.5635 49.8477 27.8208 50.0464 28.1438C50.245 28.4669 50.344 28.8413 50.3308 29.2203C50.3485 30.4213 50.3485 31.6243 50.3308 32.8292C50.3418 33.2085 50.2405 33.5826 50.0398 33.9046C49.8391 34.2266 49.5477 34.4823 49.2023 34.6394C48.9804 34.769 48.7508 34.8848 48.5147 34.9862C47.5067 35.3418 46.7749 35.9531 46.5516 37.0434C46.4802 37.2988 46.4681 37.5672 46.5163 37.828C46.6809 38.4481 46.916 39.0505 47.1041 39.6618C47.2388 40.0277 47.261 40.4256 47.1678 40.8043C47.0746 41.1829 46.8702 41.525 46.581 41.7866C45.7493 42.6241 44.9147 43.4617 44.0742 44.2904C43.8194 44.5683 43.4885 44.7649 43.1226 44.8559C42.7568 44.9468 42.3723 44.928 42.0171 44.8017C41.6859 44.7137 41.3609 44.6038 41.0443 44.4726C40.6695 44.2704 40.2488 44.1684 39.8229 44.1767C39.3971 44.1849 38.9807 44.303 38.614 44.5196C38.2231 44.6757 37.9038 44.9709 37.7176 45.3483C37.4913 45.8803 37.2122 46.3887 36.9477 46.9059C36.7913 47.2396 36.5415 47.5208 36.2285 47.7154C35.9156 47.91 35.5529 48.0096 35.1844 48.0021C33.9619 48.0226 32.7364 48.0197 31.5139 48.0021C31.1467 48.0085 30.7855 47.9095 30.4729 47.7168C30.1604 47.524 29.9097 47.2457 29.7506 46.9147C29.5826 46.6397 29.4409 46.3494 29.3274 46.0478C29.013 44.9575 28.1989 44.4491 27.1909 44.164C26.9917 44.1106 26.7819 44.1106 26.5826 44.164C25.9243 44.3609 25.2778 44.5901 24.6254 44.8047C24.2882 44.9244 23.9235 44.9437 23.5756 44.8603C23.2276 44.7768 22.9114 44.5942 22.6652 44.3345C21.7699 43.4666 20.8882 42.5849 20.0203 41.6896C19.7613 41.443 19.5796 41.1264 19.4971 40.7784C19.4147 40.4304 19.4351 40.066 19.556 39.7294C19.622 39.4164 19.7205 39.111 19.8499 38.8184C20.4376 37.8016 20.1878 36.8523 19.6677 35.9208C19.5585 35.7441 19.403 35.6007 19.218 35.5064C18.6538 35.2125 18.0719 34.9186 17.4959 34.6248C17.1494 34.4709 16.8561 34.2181 16.6527 33.8981C16.4493 33.5782 16.345 33.2053 16.3527 32.8262C16.3351 31.6008 16.3322 30.3753 16.3527 29.1528C16.3462 28.7841 16.4465 28.4215 16.6416 28.1086C16.8366 27.7957 17.118 27.546 17.4518 27.3895C17.7073 27.2313 17.978 27.0994 18.26 26.9957C19.3826 26.6871 19.8998 25.8525 20.1908 24.8239C20.2451 24.6248 20.2451 24.4147 20.1908 24.2156C19.9968 23.5603 19.7617 22.9137 19.5501 22.2613C19.4327 21.9347 19.4118 21.5811 19.49 21.2428C19.5681 20.9046 19.742 20.5961 19.9909 20.3541C20.8706 19.4391 21.766 18.5418 22.677 17.6621C22.9269 17.4063 23.2449 17.2275 23.5934 17.1468C23.9418 17.066 24.306 17.0868 24.643 17.2066C24.9535 17.2852 25.2588 17.3834 25.557 17.5005C26.4151 17.9031 27.2644 18.0383 28.0873 17.4476C28.4133 17.2416 28.7008 16.98 28.9366 16.6747C29.2303 16.1755 29.4943 15.6593 29.7271 15.1289C29.8828 14.783 30.1377 14.4912 30.4594 14.2903C30.7812 14.0894 31.1553 13.9885 31.5344 14.0004C32.7393 13.9828 33.9413 13.9857 35.1433 14.0004C35.534 13.9869 35.9197 14.0919 36.2497 14.3017C36.5796 14.5115 36.8383 14.8163 36.9917 15.1759C37.1337 15.4152 37.2556 15.6659 37.3561 15.9253C37.6765 17.0391 38.5111 17.5563 39.5397 17.8443C39.7394 17.8929 39.9485 17.8868 40.145 17.8267C40.821 17.6239 41.4851 17.3712 42.164 17.1772C42.8429 16.9833 43.363 17.2507 43.5129 17.8003C43.6628 18.3498 43.3659 18.8024 42.6841 19.0228C42.0024 19.2432 41.3029 19.4901 40.6094 19.7134C40.3873 19.7914 40.1579 19.8465 39.9246 19.878C38.8579 19.9867 36.6391 18.7583 36.1513 17.8208C35.8368 17.2125 35.6575 16.3661 35.155 16.0576C34.6525 15.749 33.7738 16.0252 33.0979 15.9136C31.8606 15.7167 31.1436 16.1869 30.7733 17.3653C30.162 19.255 28.3929 19.3725 26.9441 20.0014Z" fill="white"/>
<path d="M24.7075 31.0275L27.5375 33.8664C27.7021 34.0339 27.8784 34.1926 28.0283 34.3748C28.1147 34.4638 28.1823 34.5693 28.2274 34.6848C28.2724 34.8004 28.2939 34.9238 28.2907 35.0478C28.2874 35.1718 28.2593 35.2939 28.2082 35.4069C28.1571 35.52 28.084 35.6217 27.9931 35.706C27.9059 35.7944 27.802 35.8645 27.6875 35.9123C27.5729 35.9602 27.4501 35.9848 27.3259 35.9848C27.2018 35.9848 27.079 35.9602 26.9644 35.9123C26.8499 35.8645 26.7461 35.7944 26.6589 35.706C26.1358 35.2299 25.6509 34.7127 25.1513 34.2131C24.346 33.4108 23.5379 32.6144 22.7444 31.8004C22.2125 31.2567 22.2066 30.7748 22.7444 30.2311C23.9944 28.9655 25.2522 27.7077 26.5178 26.4577C27.0086 25.9699 27.5904 25.9317 27.9872 26.3313C28.3839 26.731 28.3927 27.2894 27.8931 27.8007C26.9939 28.7206 26.077 29.6198 25.1689 30.5308C25.019 30.6837 24.8838 30.8394 24.7075 31.0275Z" fill="#4BA7E5"/>
<path d="M41.9937 31.0217L39.1489 28.1917C38.9961 28.0389 38.8374 27.8978 38.6963 27.7332C38.279 27.2601 38.2614 26.7546 38.6434 26.3549C38.7362 26.2567 38.8487 26.1792 38.9735 26.1274C39.0982 26.0756 39.2325 26.0507 39.3676 26.0543C39.5026 26.0579 39.6354 26.0899 39.7572 26.1483C39.8791 26.2067 39.9872 26.2901 40.0746 26.3931C41.1502 27.4393 42.2023 28.5061 43.2661 29.567C43.5071 29.8109 43.7598 30.0431 43.9861 30.3017C44.4152 30.7925 44.4358 31.2715 43.9861 31.7329C42.695 33.0495 41.3912 34.3533 40.0746 35.6444C39.9877 35.7477 39.8799 35.8315 39.7583 35.8901C39.6367 35.9488 39.5041 35.9809 39.3691 35.9845C39.2341 35.9882 39.0999 35.9631 38.9754 35.9111C38.8508 35.859 38.7387 35.7812 38.6464 35.6826C38.2526 35.2682 38.2702 34.7393 38.7463 34.2573C39.7955 33.1905 40.8681 32.1414 41.9937 31.0217Z" fill="#4BA7E5"/>
<path d="M30.3442 34.9919C30.4091 34.784 30.4857 34.5799 30.5735 34.3806C31.8352 31.8513 33.0988 29.321 34.3645 26.7898C34.6995 26.1256 35.2461 25.9081 35.7633 26.1579C36.2806 26.4077 36.4246 26.9778 36.0895 27.6538C34.82 30.2007 33.5465 32.7476 32.2691 35.2946C32.037 35.7618 31.6814 36.0469 31.1407 35.9382C30.6558 35.8559 30.4295 35.5179 30.3442 34.9919Z" fill="#4BA7E5"/>
<path d="M54.3161 4.97817C54.3115 5.2373 54.2061 5.48446 54.0223 5.66717C53.8385 5.84988 53.5908 5.95377 53.3316 5.95679C53.0831 5.9507 52.8467 5.84828 52.6724 5.67116C52.498 5.49404 52.3993 5.2561 52.3971 5.00756C52.3927 4.88463 52.4129 4.76206 52.4564 4.64698C52.4998 4.5319 52.5657 4.42661 52.6502 4.3372C52.7347 4.2478 52.8361 4.17607 52.9485 4.12618C53.0609 4.07629 53.1822 4.04923 53.3051 4.04658C53.433 4.04027 53.5607 4.05947 53.681 4.10307C53.8014 4.14666 53.9118 4.21376 54.0059 4.30048C54.1 4.38719 54.1759 4.49178 54.2291 4.60813C54.2824 4.72448 54.3119 4.85027 54.3161 4.97817Z" fill="white"/>
<path d="M61.3748 5.95687C61.1264 5.95736 60.8871 5.86308 60.7058 5.69325C60.5245 5.52342 60.4148 5.29083 60.3991 5.0429C60.3915 4.91465 60.4102 4.7862 60.454 4.66542C60.4978 4.54464 60.5658 4.43409 60.6539 4.34053C60.7419 4.24698 60.8481 4.17239 60.966 4.12135C61.0839 4.07031 61.2111 4.0439 61.3395 4.04372C61.5876 4.0379 61.8283 4.12825 62.0112 4.29587C62.1942 4.46348 62.3052 4.69537 62.3211 4.94299C62.3275 5.20222 62.2319 5.45364 62.055 5.64321C61.8781 5.83279 61.6339 5.9454 61.3748 5.95687Z" fill="white"/>
<path d="M57.3459 4.04377C57.4742 4.0422 57.6016 4.06627 57.7205 4.11456C57.8393 4.16285 57.9474 4.23439 58.0383 4.325C58.1292 4.4156 58.201 4.52344 58.2497 4.64218C58.2983 4.76093 58.3228 4.88819 58.3216 5.01651C58.3079 5.26398 58.2024 5.49746 58.0258 5.67136C57.8492 5.84525 57.6141 5.94706 57.3665 5.95692C57.2382 5.95695 57.1111 5.93135 56.9928 5.88163C56.8745 5.83191 56.7673 5.75905 56.6775 5.66736C56.5877 5.57566 56.5172 5.46695 56.47 5.34762C56.4227 5.22829 56.3998 5.10073 56.4026 4.97243C56.4033 4.84945 56.4284 4.72784 56.4762 4.61456C56.5241 4.50128 56.5938 4.39855 56.6815 4.31228C56.7691 4.22601 56.8729 4.15788 56.9869 4.11181C57.1009 4.06573 57.2229 4.04261 57.3459 4.04377Z" fill="white"/>
</g>
<defs>
<clipPath id="clip0_839_1595">
<rect width="66.0225" height="54" fill="white" transform="translate(0.333496)"/>
</clipPath>
</defs>
</svg>
