<svg width="55" height="54" viewBox="0 0 55 54" fill="none" xmlns="http://www.w3.org/2000/svg">
<g clip-path="url(#clip0_839_1328)">
<path d="M37.395 53.9999H17.8159C17.4846 53.7183 17.1848 53.4284 17.3786 52.9332C17.5724 52.4379 17.9765 52.3981 18.4205 52.4164C18.5944 52.4246 18.77 52.4164 18.9456 52.4164H21.1287V43.8161H20.4297C15.2395 43.8161 10.0494 43.8161 4.85918 43.8161C4.43875 43.8292 4.01818 43.7953 3.60526 43.7151C1.81631 43.301 0.683297 41.7936 0.681641 39.8456C0.681641 33.0796 0.681641 26.3136 0.681641 19.5476C0.681641 14.3629 0.681641 9.17826 0.681641 3.99359C0.681641 2.74464 1.07091 1.65139 2.07306 0.892736C2.58821 0.503472 3.24084 0.29476 3.83054 0.00488281H51.4102C52.5349 0.336171 53.5105 0.879484 54.0605 1.96445C54.2511 2.39133 54.417 2.8288 54.5574 3.2747V40.4999C54.0207 42.9448 52.2997 43.8824 49.8813 43.841C44.8324 43.7548 39.777 43.8144 34.7314 43.8161C34.5128 43.8161 34.2941 43.8393 34.0523 43.8526C34.0523 44.5317 34.0523 45.1462 34.0523 45.7591C34.0523 46.4217 33.7641 46.7762 33.2506 46.7646C32.7686 46.753 32.482 46.3935 32.4754 45.7707C32.4687 45.1479 32.4754 44.5102 32.4754 43.8575H22.7786V52.3799H32.477C32.477 51.4987 32.4654 50.6556 32.477 49.8141C32.487 49.2227 32.8381 48.8832 33.3467 48.9279C33.7873 48.966 34.0424 49.2741 34.049 49.8124C34.049 50.6672 34.049 51.5219 34.049 52.418C35.0097 52.418 35.9009 52.418 36.7921 52.418C37.236 52.418 37.6435 52.4495 37.834 52.9365C38.0244 53.4235 37.7197 53.7183 37.395 53.9999ZM2.24863 33.9719H52.9623V4.08139C52.9623 2.44979 52.0893 1.58182 50.4544 1.58182H4.77139C3.11494 1.58182 2.24863 2.44317 2.24863 4.11617C2.24863 13.8726 2.24863 23.6285 2.24863 33.3838V33.9719ZM52.9623 35.6449H2.28838C2.28838 37.2533 2.2271 38.8319 2.31157 40.4038C2.35961 41.3016 2.99072 41.8946 3.85373 42.1464C4.17933 42.2216 4.51398 42.2501 4.8476 42.2309C20.0217 42.2309 35.1964 42.2309 50.3716 42.2309C50.4759 42.2309 50.5819 42.2309 50.6863 42.2309C52.0545 42.1961 52.949 41.3 52.9623 39.9284C52.9738 38.7159 52.9623 37.5034 52.9623 36.2843V35.6449Z" fill="white"/>
<path d="M27.6417 25.2906C26.9791 25.9731 26.406 26.6886 25.7185 27.2783C22.0031 30.4256 17.7676 31.3201 13.1892 29.7017C8.65553 28.0983 5.88263 24.7854 4.97324 20.0364C4.29907 16.5148 5.09583 13.2715 7.18129 10.3545C7.59872 9.77306 8.30768 9.75318 8.5959 10.3048C8.79302 10.6808 8.65885 11.0071 8.43026 11.3285C6.99567 13.3072 6.25971 15.7068 6.33817 18.1497C6.43756 23.6159 10.9166 28.4097 16.3629 28.8089C20.5455 29.117 23.8815 27.55 26.396 24.194C26.6395 23.8627 26.6378 23.6226 26.4656 23.2532C24.7876 19.6289 24.7826 15.988 26.4656 12.367C26.5548 12.2135 26.5937 12.0359 26.5767 11.8591C26.5598 11.6823 26.4879 11.5153 26.3712 11.3815C22.9788 6.55625 16.2669 5.29569 11.3108 8.56551C10.6317 9.01275 10.1861 9.01938 9.88791 8.58539C9.58975 8.1514 9.75044 7.69919 10.4544 7.23539C15.8793 3.65085 23.156 4.82195 27.2491 9.93704C27.3568 10.0729 27.4661 10.2054 27.6019 10.3727C30.4361 6.76827 34.1001 4.94122 38.6702 5.20459C42.1007 5.40171 44.9763 6.86103 47.2722 9.43017C51.8754 14.5751 51.4133 22.5956 46.2783 27.2038C44.9657 28.383 43.4207 29.2745 41.7429 29.8209C40.0651 30.3673 38.2914 30.5564 36.5361 30.3762C34.7808 30.196 33.0826 29.6505 31.5507 28.7746C30.0189 27.8987 28.6873 26.712 27.6417 25.2906ZM48.8723 17.8068C48.8758 14.8774 47.7158 12.0666 45.6474 9.99223C43.5789 7.91789 40.7714 6.74991 37.842 6.74508C34.9124 6.74902 32.1038 7.91411 30.0316 9.98505C27.9594 12.056 26.7926 14.8639 26.7869 17.7935C26.7869 23.8727 31.7662 28.8735 37.8288 28.8718C40.7587 28.8631 43.5659 27.6938 45.6356 25.62C47.7054 23.5462 48.8692 20.7368 48.8723 17.8068Z" fill="#4BA7E5"/>
<path d="M12.2498 16.798C12.2498 16.0079 12.2498 15.2178 12.2498 14.4277C12.2498 13.8164 12.5695 13.4735 13.078 13.4918C13.5866 13.51 13.8268 13.833 13.8284 14.4376C13.8284 15.9284 13.8665 17.4192 13.8185 18.91C13.7837 19.932 14.6815 20.5201 15.4534 20.5366C15.6772 20.5508 15.9015 20.5181 16.112 20.4406C16.3224 20.3631 16.5144 20.2426 16.6756 20.0867C16.8368 19.9308 16.9637 19.7429 17.0482 19.5352C17.1326 19.3274 17.1728 19.1043 17.1662 18.8802C17.1662 17.4043 17.1662 15.9284 17.1662 14.4525C17.1662 13.8115 17.4361 13.4818 17.9397 13.4769C18.4433 13.4719 18.7381 13.8081 18.7414 14.4393C18.7414 15.9847 18.763 17.5302 18.7414 19.0773C18.7149 20.7851 17.2738 22.1119 15.4815 22.1185C13.729 22.1185 12.2846 20.7586 12.2548 19.0524C12.2399 18.3104 12.2498 17.5583 12.2498 16.798Z" fill="white"/>
<path d="M22.4835 17.7984C22.4835 18.9033 22.4835 20.0098 22.4835 21.1113C22.4835 21.759 22.1704 22.14 21.6785 22.1234C21.1865 22.1068 20.9099 21.7391 20.9082 21.1196C20.9082 18.89 20.8983 16.6621 20.9082 14.4325C20.9082 13.6772 21.5277 13.2217 22.0578 13.6043C22.1769 13.7086 22.2741 13.8356 22.3438 13.9777C22.4134 14.1199 22.4542 14.2745 22.4636 14.4325C22.51 15.5506 22.4835 16.6754 22.4835 17.7984Z" fill="white"/>
<path d="M27.6516 38.1363C28.1486 38.1363 28.6289 38.123 29.1176 38.1363C29.6377 38.1545 29.9458 38.4377 29.9458 38.8866C29.9458 39.3355 29.6559 39.69 29.1176 39.7016C28.1061 39.7226 27.0929 39.7226 26.078 39.7016C25.538 39.69 25.2299 39.3703 25.2415 38.8949C25.2531 38.4195 25.5728 38.1578 26.1211 38.1296C26.1559 38.1296 26.1907 38.1296 26.2254 38.1296H27.6401L27.6516 38.1363Z" fill="#4BA7E5"/>
<path d="M30.4375 16.8592C30.4375 16.031 30.4375 15.2028 30.4375 14.3746C30.4375 13.823 30.7257 13.4983 31.1895 13.4834C31.6533 13.4685 32.0061 13.7998 32.0177 14.3679C32.0293 15.8952 32.0177 17.4241 32.0177 18.9513C32.0146 19.1614 32.0538 19.3699 32.1329 19.5645C32.212 19.7591 32.3295 19.9357 32.4783 20.084C32.6272 20.2322 32.8043 20.3489 32.9993 20.4273C33.1942 20.5056 33.4029 20.5439 33.6129 20.5398C34.5819 20.5564 35.3174 19.8773 35.3223 18.9497C35.3223 17.5102 35.3223 16.0691 35.3223 14.6297C35.3153 14.4544 35.3275 14.2788 35.3588 14.1062C35.3828 13.9199 35.4791 13.7505 35.627 13.6346C35.7748 13.5187 35.9623 13.4656 36.1489 13.4867C36.2418 13.4829 36.3346 13.4977 36.4218 13.53C36.5089 13.5624 36.5888 13.6118 36.6568 13.6753C36.7248 13.7387 36.7794 13.8151 36.8176 13.8999C36.8558 13.9847 36.8768 14.0762 36.8794 14.1692C36.9125 14.5005 36.8993 14.8317 36.8993 15.163C36.8993 16.4981 36.9225 17.8349 36.8893 19.1683C36.8496 20.7552 35.6023 21.9445 33.8713 22.1002C32.3374 22.2394 30.7125 21.1411 30.5054 19.6851C30.3745 18.7559 30.4806 17.7935 30.4806 16.846L30.4375 16.8592Z" fill="white"/>
<path d="M42.7666 17.5583C43.507 18.6135 44.2342 19.6471 44.9564 20.6824C45.3308 21.2207 45.3059 21.6961 44.8968 21.9777C44.4876 22.2593 44.0487 22.1301 43.6627 21.5851C43.0465 20.7172 42.4353 19.8442 41.7943 18.9348C41.1317 19.8707 40.5221 20.7453 39.9026 21.6166C39.52 22.1566 39.0744 22.2792 38.6652 21.9678C38.2561 21.6564 38.2445 21.2389 38.6106 20.7138C39.2616 19.778 39.9076 18.8371 40.5834 17.9178C40.7872 17.6411 40.7756 17.454 40.5834 17.1856C40.0318 16.4369 39.5051 15.67 38.975 14.9064C38.6205 14.3978 38.6437 13.9324 39.0214 13.6475C39.3991 13.3626 39.891 13.4818 40.2621 13.9953C40.759 14.696 41.2559 15.4 41.8009 16.1768L43.02 14.4459C43.1608 14.2454 43.2933 14.0384 43.4474 13.8462C43.7538 13.4603 44.2027 13.3791 44.5589 13.6342C44.6458 13.6951 44.7194 13.773 44.7751 13.8633C44.8309 13.9536 44.8676 14.0543 44.8831 14.1593C44.8986 14.2642 44.8926 14.3712 44.8653 14.4738C44.838 14.5763 44.7901 14.6722 44.7245 14.7556C44.1945 15.5408 43.6379 16.3094 43.0929 17.0846C42.9919 17.227 42.8941 17.3695 42.7666 17.5583Z" fill="white"/>
</g>
<defs>
<clipPath id="clip0_839_1328">
<rect width="53.8857" height="54" fill="white" transform="translate(0.666504)"/>
</clipPath>
</defs>
</svg>
