<svg width="128" height="160" viewBox="0 0 128 160" fill="none" xmlns="http://www.w3.org/2000/svg">
<path fill-rule="evenodd" clip-rule="evenodd" d="M0 100.476C0.378388 34.7742 0.568705 1.92338 0.570944 1.92338C0.701925 -0.0245957 3.25773 -0.829048 4.4164 1.12558L31.0021 42.7877L31.0692 42.7478L51.2201 74.1913C46.2212 76.8913 42.2564 81.1415 39.935 86.2886C37.6136 91.4357 37.0641 97.1948 38.371 102.681C39.6778 108.167 42.7687 113.077 47.1685 116.655C51.5684 120.234 57.0338 122.283 62.7248 122.489C68.4158 122.694 74.0174 121.044 78.6689 117.792C83.3203 114.54 86.7642 109.866 88.4712 104.489C90.1781 99.1114 90.0538 93.3279 88.1172 88.0272C86.1806 82.7264 82.539 78.2018 77.752 75.1487L97.839 43.7816C107.039 49.5874 114.579 57.6351 119.734 67.1533C124.89 76.6714 127.489 87.3408 127.282 98.1387C127.075 108.937 124.069 119.501 118.553 128.819C113.036 138.136 105.194 145.895 95.778 151.352C86.3618 156.808 75.6874 159.779 64.7782 159.979C53.8689 160.179 43.0905 157.603 33.4763 152.496C23.8622 147.389 15.7346 139.923 9.87275 130.814C4.01091 121.705 0.611349 111.259 0 100.476Z" fill="white"/>
<path d="M47.3545 27.7568L63.4752 98.2297L80.2675 44.0454L47.3545 27.7568Z" stroke="white" stroke-width="0.545455" stroke-linejoin="round" stroke-dasharray="2.45 2.45"/>
<path d="M65.0992 82.672C73.0558 83.4525 78.8645 90.469 78.0762 98.3411C77.288 106.213 70.2009 111.965 62.2442 111.184C54.2875 110.404 48.479 103.387 49.2672 95.5151C50.0554 87.6429 57.1425 81.8914 65.0992 82.672Z" fill="white" stroke="white" stroke-width="0.272727"/>
<path d="M80.5277 36.1943C85.0695 36.6399 88.3841 40.6447 87.9343 45.1368C87.4845 49.6289 83.4402 52.9119 78.8984 52.4663C74.3566 52.0208 71.042 48.016 71.4918 43.5239C71.9416 39.0318 75.9859 35.7488 80.5277 36.1943Z" fill="white" stroke="white" stroke-width="0.272727"/>
<path d="M48.3335 22.0437C51.8133 22.3851 54.3523 25.4533 54.0078 28.8943C53.6632 32.3352 50.5651 34.8505 47.0853 34.5091C43.6056 34.1678 41.0665 31.0995 41.4111 27.6586C41.7556 24.2176 44.8537 21.7024 48.3335 22.0437Z" fill="white" stroke="white" stroke-width="0.272727"/>
</svg>
