<svg width="48" height="60" viewBox="0 0 48 60" fill="none" xmlns="http://www.w3.org/2000/svg">
<path fill-rule="evenodd" clip-rule="evenodd" d="M0 37.678C0.141062 13.0399 0.212012 0.720902 0.212847 0.720902C0.261676 -0.00958959 1.21447 -0.311259 1.64643 0.421725L11.5575 16.045L11.5826 16.0301L19.0948 27.8214C17.2312 28.8339 15.7531 30.4277 14.8877 32.3578C14.0223 34.288 13.8174 36.4477 14.3046 38.505C14.7918 40.5624 15.9441 42.4035 17.5843 43.7454C19.2246 45.0874 21.2621 45.8559 23.3837 45.9329C25.5053 46.0099 27.5936 45.3912 29.3276 44.1717C31.0617 42.9522 32.3455 41.1995 32.9819 39.1829C33.6183 37.1664 33.5719 34.9976 32.8499 33.0098C32.128 31.022 30.7704 29.3253 28.9858 28.1804L36.4742 16.4177C39.9041 18.5949 42.7148 21.6128 44.6368 25.1821C46.5588 28.7514 47.5277 32.7524 47.4505 36.8016C47.3734 40.8508 46.2529 44.8124 44.1963 48.3066C42.1398 51.8008 39.2162 54.7104 35.7059 56.7565C32.1955 58.8026 28.2161 59.9166 24.1492 59.9918C20.0822 60.0669 16.0641 59.1006 12.4799 57.1855C8.89578 55.2704 5.86583 52.4707 3.68054 49.0549C1.49526 45.6391 0.22791 41.7216 0 37.678Z" fill="#2284C8"/>
<path d="M17.6538 10.4087L23.6636 36.836L29.9237 16.5169L17.6538 10.4087Z" stroke="#084468" stroke-width="0.545455" stroke-linejoin="round" stroke-dasharray="2.45 2.45"/>
<path d="M24.2603 31.0872C27.1796 31.3752 29.3107 33.9647 29.0215 36.8699C28.7323 39.775 26.1322 41.8977 23.2129 41.6096C20.2936 41.3216 18.1626 38.7321 18.4517 35.8269C18.7409 32.9218 21.341 30.7991 24.2603 31.0872Z" fill="#084468" stroke="#084468" stroke-width="0.272727"/>
<path d="M30.012 13.6578C31.6582 13.8203 32.8595 15.2804 32.6965 16.918C32.5335 18.5557 31.0677 19.7526 29.4214 19.5902C27.7752 19.4277 26.5739 17.9676 26.737 16.33C26.9 14.6923 28.3657 13.4954 30.012 13.6578Z" fill="#084468" stroke="#084468" stroke-width="0.272727"/>
<path d="M18.01 8.35145C19.2603 8.47483 20.1724 9.58375 20.0487 10.8272C19.9249 12.0707 18.8118 12.9797 17.5615 12.8564C16.3112 12.733 15.3991 11.6241 15.5228 10.3806C15.6466 9.13716 16.7596 8.22808 18.01 8.35145Z" fill="#084468" stroke="#084468" stroke-width="0.272727"/>
</svg>
