<svg width="745" height="657" viewBox="0 0 745 657" fill="none" xmlns="http://www.w3.org/2000/svg">
<g clip-path="url(#clip0_894_561)">
<path d="M745 510.392H0V510.765H745V510.392Z" fill="white"/>
<path d="M670.351 534.438H621.002V534.811H670.351V534.438Z" fill="white"/>
<path d="M493.517 538.502H480.569V538.875H493.517V538.502Z" fill="#666666"/>
<path d="M619.512 520.569H590.919V520.942H619.512V520.569Z" fill="white"/>
<path d="M142.518 523.079H78.165V523.452H142.518V523.079Z" fill="white"/>
<path d="M165.226 523.079H155.794V523.452H165.226V523.079Z" fill="white"/>
<path d="M335.474 529.386H195.891V529.759H335.474V529.386Z" fill="white"/>
<path d="M353.145 443.709H65.4259C63.1695 443.709 61.0054 442.81 59.4099 441.21C57.8143 439.609 56.918 437.439 56.918 435.176V29.5656C56.918 27.3024 57.8143 25.1319 59.4099 23.5316C61.0054 21.9313 63.1695 21.0322 65.4259 21.0322H353.145C355.401 21.0322 357.565 21.9313 359.161 23.5316C360.757 25.1319 361.653 27.3024 361.653 29.5656V435.206C361.645 437.464 360.745 439.626 359.15 441.22C357.556 442.814 355.396 443.709 353.145 443.709ZM65.4259 21.3759C63.2695 21.3799 61.2024 22.2409 59.6776 23.7703C58.1528 25.2996 57.2944 27.3728 57.2905 29.5357V435.206C57.2944 437.368 58.1528 439.442 59.6776 440.971C61.2024 442.5 63.2695 443.361 65.4259 443.365H353.145C355.301 443.361 357.368 442.5 358.893 440.971C360.418 439.442 361.276 437.368 361.28 435.206V29.5656C361.276 27.4027 360.418 25.3295 358.893 23.8001C357.368 22.2707 355.301 21.4098 353.145 21.4058L65.4259 21.3759Z" fill="white"/>
<path d="M675.432 443.709H387.713C385.456 443.709 383.292 442.81 381.697 441.21C380.101 439.609 379.205 437.439 379.205 435.176V29.5656C379.205 27.3024 380.101 25.1319 381.697 23.5316C383.292 21.9313 385.456 21.0322 387.713 21.0322H675.432C677.686 21.0362 679.846 21.937 681.438 23.5369C683.031 25.1367 683.925 27.305 683.925 29.5656V435.206C683.917 437.461 683.019 439.621 681.428 441.215C679.836 442.808 677.681 443.705 675.432 443.709ZM387.713 21.3759C385.556 21.3799 383.489 22.2409 381.965 23.7703C380.44 25.2996 379.582 27.3728 379.578 29.5357V435.206C379.582 437.368 380.44 439.442 381.965 440.971C383.489 442.5 385.556 443.361 387.713 443.365H675.432C677.587 443.361 679.652 442.5 681.175 440.97C682.697 439.44 683.552 437.367 683.552 435.206V29.5656C683.552 27.4041 682.697 25.3309 681.175 23.8011C679.652 22.2712 677.587 21.4098 675.432 21.4058L387.713 21.3759Z" fill="white"/>
<path d="M248.472 79.9736H142.31V441.198H248.472V79.9736Z" fill="black" fill-opacity="0.12"/>
<path d="M232.663 79.9736H226.465L189.438 441.198H195.637L232.663 79.9736Z" fill="white" fill-opacity="0.12"/>
<path d="M246.595 81.3633H141.625V84.5465H246.595V81.3633Z" fill="#5E5E5E"/>
<path d="M246.595 438.03H141.625V444.845H246.595V438.03Z" fill="white"/>
<path d="M244.851 444.546H145.662V444.844H244.851V444.546Z" fill="#666666"/>
<path d="M145.662 81.3629H244.851V444.545H250.781V76.8945H139.717V444.545H145.662V81.3629Z" fill="white"/>
<path d="M366.6 79.9736H260.438V441.198H366.6V79.9736Z" fill="black" fill-opacity="0.12"/>
<path d="M337.157 79.9736H303.319L266.293 441.198H300.131L337.157 79.9736Z" fill="white" fill-opacity="0.12"/>
<path d="M367.717 81.3633H259.767V84.5465H367.717V81.3633Z" fill="#5E5E5E"/>
<path d="M367.717 438.03H259.767V444.844H367.717V438.03Z" fill="white"/>
<path d="M362.994 444.546H263.805V444.844H362.994V444.546Z" fill="#666666"/>
<path d="M263.804 81.3634H362.994V444.546H368.924V76.895H257.859V444.546H263.804V81.3634Z" fill="white"/>
<path d="M481.762 79.9736H378.579V441.198H481.762V79.9736Z" fill="black" fill-opacity="0.12"/>
<path d="M437.047 79.9736H430.849L393.822 441.198H400.021L437.047 79.9736Z" fill="white" fill-opacity="0.12"/>
<path d="M482.879 81.3633H377.908V84.5465H482.879V81.3633Z" fill="#5E5E5E"/>
<path d="M482.879 438.03H377.908V444.845H482.879V438.03Z" fill="#666666"/>
<path d="M481.136 444.546H381.946V444.844H481.136V444.546Z" fill="#666666"/>
<path d="M381.932 81.3629H481.121V444.545H487.067V76.8945H376.002V444.545H381.932V81.3629Z" fill="white"/>
<path d="M602.884 79.9736H496.722V441.198H602.884V79.9736Z" fill="black" fill-opacity="0.12"/>
<path d="M592.498 79.9736H558.661L521.619 441.198H555.472L592.498 79.9736Z" fill="white" fill-opacity="0.12"/>
<path d="M601.007 81.3633H496.036V84.5465H601.007V81.3633Z" fill="#5E5E5E"/>
<path d="M601.007 438.03H496.036V444.844H601.007V438.03Z" fill="white"/>
<path d="M500.074 81.3634H599.263V444.546H605.208V76.895H494.144V444.546H500.074V81.3634Z" fill="white"/>
<path d="M599.264 444.546H500.074V444.844H599.264V444.546Z" fill="#666666"/>
<path d="M223.068 358.106H176.982V438.045H223.068V358.106Z" fill="#FAFAFA"/>
<path d="M214.218 346.928V366.984H210.597H189.469H185.833V346.928H214.218Z" fill="#FAFAFA"/>
<path d="M214.232 366.983H220.133V361.065H214.232V366.983Z" fill="black"/>
<path d="M202.789 366.983H208.689V361.065H202.789V366.983Z" fill="black"/>
<path d="M191.36 366.983H197.261V361.065H191.36V366.983Z" fill="black"/>
<path d="M179.933 366.983H185.833V361.065H179.933V366.983Z" fill="#7B7B7B"/>
<path d="M214.232 377.729H220.133V371.81H214.232V377.729Z" fill="#7B7B7B"/>
<path d="M202.789 377.729H208.689V371.81H202.789V377.729Z" fill="#7B7B7B"/>
<path d="M191.36 377.729H197.261V371.811H191.36V377.729Z" fill="black"/>
<path d="M179.933 377.729H185.833V371.81H179.933V377.729Z" fill="black"/>
<path d="M214.232 388.489H220.133V382.571H214.232V388.489Z" fill="#7B7B7B"/>
<path d="M202.789 388.489H208.689V382.571H202.789V388.489Z" fill="black"/>
<path d="M191.36 388.489H197.261V382.571H191.36V388.489Z" fill="black"/>
<path d="M202.789 357.688H208.689V351.77H202.789V357.688Z" fill="black"/>
<path d="M191.36 357.688H197.261V351.77H191.36V357.688Z" fill="#7B7B7B"/>
<path d="M179.933 388.489H185.833V382.571H179.933V388.489Z" fill="#7B7B7B"/>
<path d="M214.232 399.234H220.133V393.316H214.232V399.234Z" fill="black"/>
<path d="M202.789 399.234H208.689V393.316H202.789V399.234Z" fill="#7B7B7B"/>
<path d="M191.36 399.234H197.261V393.316H191.36V399.234Z" fill="#7B7B7B"/>
<path d="M179.933 399.234H185.833V393.316H179.933V399.234Z" fill="black"/>
<path d="M214.232 410.009H220.133V404.091H214.232V410.009Z" fill="#7B7B7B"/>
<path d="M202.789 410.009H208.689V404.091H202.789V410.009Z" fill="black"/>
<path d="M191.36 410.009H197.261V404.091H191.36V410.009Z" fill="black"/>
<path d="M179.933 410.009H185.833V404.091H179.933V410.009Z" fill="#7B7B7B"/>
<path d="M214.232 420.754H220.133V414.836H214.232V420.754Z" fill="#7B7B7B"/>
<path d="M202.789 420.754H208.689V414.836H202.789V420.754Z" fill="black"/>
<path d="M191.36 420.754H197.261V414.836H191.36V420.754Z" fill="#7B7B7B"/>
<path d="M179.933 420.754H185.833V414.836H179.933V420.754Z" fill="black"/>
<path d="M214.232 431.514H220.133V425.596H214.232V431.514Z" fill="black"/>
<path d="M202.789 431.514H208.689V425.596H202.789V431.514Z" fill="black"/>
<path d="M191.36 431.515H197.261V425.597H191.36V431.515Z" fill="#7B7B7B"/>
<path d="M179.933 431.514H185.833V425.596H179.933V431.514Z" fill="#7B7B7B"/>
<path d="M547.724 387.218H506.437V438.03H547.724V387.218Z" fill="#E1E1E1"/>
<path d="M510.042 392.868H519.638H522.29H524.927V398.158H522.29H519.638H510.042V392.868Z" fill="#6D6D6D"/>
<path d="M510.042 403.134H519.638H522.29H524.927V408.425H522.29H519.638H510.042V403.134Z" fill="black"/>
<path d="M510.042 413.401H519.638H522.29H524.927V418.707H522.29H519.638H510.042V413.401Z" fill="#6D6D6D"/>
<path d="M510.042 423.668H519.638H523.72H524.927V428.974H523.72H519.638H510.042V423.668Z" fill="black"/>
<path d="M529.248 392.868H538.844H541.496H544.133V398.158H541.496H538.844H529.248V392.868Z" fill="black"/>
<path d="M529.248 403.134H538.844H542.569H544.133V408.425H542.569H538.844H529.248V403.134Z" fill="black"/>
<path d="M529.248 413.401H538.844H541.496H544.133V418.707H541.496H538.844H529.248V413.401Z" fill="#6D6D6D"/>
<path d="M529.248 423.668H538.844H541.496H544.133V428.974H541.496H538.844H529.248V423.668Z" fill="black"/>
<path d="M348.779 406.467H311.261V438.045H348.779V406.467Z" fill="#E1E1E1"/>
<path d="M341.582 415.225H346.38V410.412H341.582V415.225Z" fill="black"/>
<path d="M332.27 415.225H337.067V410.412H332.27V415.225Z" fill="black"/>
<path d="M322.973 415.225H327.771V410.412H322.973V415.225Z" fill="black"/>
<path d="M313.675 415.225H318.473V410.412H313.675V415.225Z" fill="black"/>
<path d="M341.582 423.967H346.38V419.155H341.582V423.967Z" fill="black"/>
<path d="M332.27 423.967H337.067V419.155H332.27V423.967Z" fill="black"/>
<path d="M322.973 423.967H327.771V419.155H322.973V423.967Z" fill="black"/>
<path d="M313.675 423.967H318.473V419.155H313.675V423.967Z" fill="#6D6D6D"/>
<path d="M341.582 432.725H346.38V427.912H341.582V432.725Z" fill="#6D6D6D"/>
<path d="M332.27 432.725H337.067V427.912H332.27V432.725Z" fill="#6D6D6D"/>
<path d="M322.973 432.725H327.771V427.912H322.973V432.725Z" fill="black"/>
<path d="M313.675 432.725H318.473V427.912H313.675V432.725Z" fill="#6D6D6D"/>
<path d="M306.18 383.124H268.662V438.045H306.18V383.124Z" fill="#E1E1E1"/>
<path d="M303.781 385.53H289.671V399.099H303.781V385.53Z" fill="black"/>
<path d="M285.171 385.53H271.061V399.099H285.171V385.53Z" fill="black"/>
<path d="M303.781 403.03H289.671V416.599H303.781V403.03Z" fill="black"/>
<path d="M285.171 403.03H271.061V416.6H285.171V403.03Z" fill="black"/>
<path d="M303.781 420.53H289.671V434.099H303.781V420.53Z" fill="black"/>
<path d="M285.171 420.53H271.061V434.099H285.171V420.53Z" fill="black"/>
<path d="M372.5 577.881C532.053 577.881 661.396 570.307 661.396 560.964C661.396 551.621 532.053 544.047 372.5 544.047C212.947 544.047 83.6035 551.621 83.6035 560.964C83.6035 570.307 212.947 577.881 372.5 577.881Z" fill="#606060"/>
<path d="M505.199 561.906H366.897C364.912 561.943 362.941 561.556 361.117 560.769C359.292 559.983 357.656 558.815 356.316 557.345C354.977 555.874 353.965 554.134 353.349 552.24C352.733 550.347 352.526 548.344 352.742 546.364L388.502 136.689C388.928 132.478 390.879 128.571 393.985 125.707C397.09 122.842 401.136 121.22 405.354 121.146H543.671C545.655 121.111 547.624 121.5 549.447 122.288C551.27 123.075 552.904 124.243 554.242 125.713C555.58 127.184 556.59 128.923 557.205 130.815C557.821 132.708 558.027 134.71 557.811 136.689L522.051 546.364C521.619 550.571 519.666 554.475 516.562 557.338C513.458 560.201 509.416 561.826 505.199 561.906Z" fill="#006AA6"/>
<path opacity="0.4" d="M505.199 561.906H366.897C364.912 561.943 362.941 561.556 361.117 560.769C359.292 559.983 357.656 558.815 356.316 557.345C354.977 555.874 353.965 554.134 353.349 552.24C352.733 550.347 352.526 548.344 352.742 546.364L388.502 136.689C388.928 132.478 390.879 128.571 393.985 125.707C397.09 122.842 401.136 121.22 405.354 121.146H543.671C545.655 121.111 547.624 121.5 549.447 122.288C551.27 123.075 552.904 124.243 554.242 125.713C555.58 127.184 556.59 128.923 557.205 130.815C557.821 132.708 558.027 134.71 557.811 136.689L522.051 546.364C521.619 550.571 519.666 554.475 516.562 557.338C513.458 560.201 509.416 561.826 505.199 561.906Z" fill="black"/>
<path d="M490.299 561.906H351.997C350.011 561.943 348.041 561.556 346.216 560.769C344.392 559.983 342.755 558.815 341.416 557.345C340.077 555.874 339.065 554.134 338.449 552.24C337.832 550.347 337.626 548.344 337.842 546.364L373.602 136.689C374.028 132.478 375.979 128.571 379.084 125.707C382.19 122.842 386.235 121.22 390.454 121.146H528.771C530.755 121.111 532.724 121.5 534.547 122.288C536.369 123.075 538.004 124.243 539.342 125.713C540.679 127.184 541.689 128.923 542.305 130.815C542.92 132.708 543.127 134.71 542.911 136.689L507.151 546.364C506.718 550.571 504.766 554.475 501.662 557.338C498.557 560.201 494.515 561.826 490.299 561.906Z" fill="#263238"/>
<path d="M490.299 561.906H351.997C350.011 561.943 348.041 561.556 346.216 560.769C344.392 559.983 342.755 558.815 341.416 557.345C340.077 555.874 339.065 554.134 338.449 552.24C337.832 550.347 337.626 548.344 337.842 546.364L373.602 136.689C374.028 132.478 375.979 128.571 379.084 125.707C382.19 122.842 386.235 121.22 390.454 121.146H528.771C530.755 121.111 532.724 121.5 534.547 122.288C536.369 123.075 538.004 124.243 539.342 125.713C540.679 127.184 541.689 128.923 542.305 130.815C542.92 132.708 543.127 134.71 542.911 136.689L507.151 546.364C506.718 550.571 504.766 554.475 501.662 557.338C498.557 560.201 494.515 561.826 490.299 561.906Z" fill="black"/>
<path opacity="0.4" d="M537.294 135.852L501.534 546.289C501.251 549.666 499.135 552.267 496.81 552.267H346.797C344.652 552.267 343.251 549.875 343.519 546.767L379.354 135.418C379.577 132.728 381.157 130.382 383.004 130.382H420.493C421.55 130.382 422.415 131.383 422.683 132.818L423.756 138.347C424.024 139.842 424.903 140.768 425.961 140.768H489.763C490.386 140.68 490.969 140.406 491.436 139.982C491.903 139.559 492.234 139.005 492.385 138.392L494.426 132.833C494.577 132.212 494.906 131.649 495.372 131.214C495.838 130.778 496.421 130.489 497.049 130.382H534.001C536.102 130.382 537.502 132.952 537.294 135.852Z" fill="#333333"/>
<path d="M535.506 156.027L504.782 508.195H346.901L377.625 156.027H535.506Z" fill="#006AA6"/>
<path opacity="0.6" d="M395.804 146.926H397.756L398.083 143.16H396.146L395.804 146.926Z" fill="white"/>
<path opacity="0.6" d="M392.63 146.926H394.582L395.014 141.904H393.077L392.63 146.926Z" fill="white"/>
<path opacity="0.6" d="M389.456 146.926H391.408L391.959 140.649H390.007L389.456 146.926Z" fill="white"/>
<path opacity="0.6" d="M386.282 146.926H388.234L388.89 139.394H386.938L386.282 146.926Z" fill="white"/>
<path opacity="0.6" d="M518.55 145.551H517.388L517.715 141.785H518.878L518.55 145.551Z" fill="white"/>
<path opacity="0.6" d="M519.22 146.925H528.428L528.994 140.41H519.786L519.22 146.925Z" fill="white"/>
<path opacity="0.6" d="M458.711 130.92C458.562 132.654 457.474 134.058 456.282 134.058C455.09 134.058 454.226 132.654 454.39 130.92C454.554 129.187 455.627 127.782 456.819 127.782C458.011 127.782 458.875 129.187 458.711 130.92Z" fill="#263238"/>
<path opacity="0.6" d="M463.107 130.92C463.003 132.026 462.302 132.938 461.617 132.938C460.932 132.938 460.306 132.026 460.395 130.92C460.485 129.814 461.2 128.917 461.96 128.917C462.72 128.917 463.196 129.874 463.107 130.92Z" fill="#263238"/>
<path d="M535.491 156.027L531.23 204.881L530.499 213.309L527.087 252.449L526.551 258.532L521.708 314.021L521.187 320.103L516.538 373.38L515.868 381.047L504.782 508.195H346.887L377.611 156.027H535.491Z" fill="#263238"/>
<path opacity="0.5" d="M379.548 264.823C379.707 264.944 379.9 265.012 380.099 265.017C380.257 265.014 380.412 264.976 380.553 264.906C380.695 264.836 380.82 264.737 380.919 264.614C381.005 264.52 381.071 264.41 381.113 264.29C381.155 264.169 381.173 264.042 381.164 263.915C381.156 263.788 381.122 263.663 381.065 263.55C381.007 263.436 380.927 263.336 380.829 263.254L378.133 261.132L381.113 258.995C381.331 258.854 381.486 258.632 381.544 258.378C381.603 258.125 381.56 257.858 381.425 257.635C381.352 257.532 381.258 257.445 381.151 257.379C381.043 257.313 380.923 257.269 380.798 257.249C380.674 257.23 380.546 257.235 380.424 257.266C380.301 257.296 380.186 257.35 380.084 257.426L375.898 260.34C375.766 260.429 375.657 260.546 375.577 260.683C375.497 260.82 375.449 260.974 375.436 261.132C375.418 261.279 375.439 261.428 375.497 261.564C375.554 261.7 375.646 261.819 375.763 261.909L379.548 264.823Z" fill="white"/>
<path opacity="0.5" d="M393.077 261.117L390.097 263.239C389.878 263.383 389.722 263.606 389.661 263.861C389.6 264.117 389.639 264.386 389.769 264.614C389.855 264.735 389.969 264.834 390.102 264.902C390.234 264.969 390.38 265.004 390.529 265.003C390.743 265.003 390.952 264.935 391.125 264.808L395.312 261.819C395.44 261.731 395.549 261.616 395.628 261.482C395.708 261.348 395.758 261.198 395.774 261.042C395.792 260.893 395.772 260.742 395.714 260.603C395.657 260.464 395.564 260.342 395.446 260.25L391.736 257.351C391.524 257.196 391.259 257.132 391 257.171C390.741 257.21 390.507 257.35 390.35 257.56C390.265 257.655 390.2 257.766 390.159 257.887C390.118 258.008 390.102 258.135 390.112 258.263C390.121 258.39 390.157 258.514 390.216 258.627C390.275 258.74 390.356 258.84 390.454 258.92L393.077 261.117Z" fill="white"/>
<path opacity="0.5" d="M383.928 264.958H384.241C384.449 264.956 384.653 264.895 384.827 264.781C385.001 264.667 385.139 264.506 385.225 264.315L387.773 258.487C387.828 258.374 387.86 258.251 387.865 258.125C387.87 257.999 387.849 257.874 387.803 257.757C387.756 257.64 387.686 257.534 387.596 257.446C387.506 257.358 387.399 257.29 387.281 257.247C387.029 257.166 386.757 257.183 386.517 257.293C386.277 257.404 386.087 257.6 385.985 257.844L383.437 263.658C383.373 263.774 383.335 263.902 383.326 264.034C383.316 264.166 383.336 264.298 383.382 264.422C383.429 264.546 383.502 264.658 383.597 264.75C383.691 264.843 383.804 264.914 383.928 264.958Z" fill="white"/>
<path opacity="0.5" d="M400.214 265.331H405.369C405.733 265.334 406.085 265.204 406.36 264.964C406.634 264.725 406.812 264.393 406.859 264.031C406.876 263.865 406.858 263.697 406.805 263.539C406.753 263.38 406.667 263.235 406.555 263.112C406.442 262.989 406.305 262.892 406.152 262.826C405.999 262.76 405.834 262.728 405.667 262.731H400.512C400.148 262.728 399.796 262.858 399.521 263.098C399.247 263.337 399.069 263.669 399.022 264.031C399.005 264.197 399.023 264.365 399.076 264.523C399.128 264.681 399.214 264.827 399.326 264.95C399.439 265.073 399.576 265.17 399.729 265.236C399.882 265.302 400.047 265.334 400.214 265.331Z" fill="white"/>
<path d="M418.392 299.091C418.409 298.925 418.39 298.757 418.338 298.599C418.285 298.44 418.2 298.295 418.087 298.172C417.975 298.049 417.837 297.952 417.684 297.886C417.531 297.82 417.366 297.788 417.2 297.791H372.5C372.136 297.788 371.784 297.918 371.509 298.158C371.235 298.397 371.057 298.729 371.01 299.091C370.993 299.257 371.011 299.425 371.064 299.583C371.116 299.742 371.202 299.887 371.314 300.01C371.427 300.133 371.565 300.23 371.718 300.296C371.87 300.362 372.035 300.394 372.202 300.391H416.902C417.266 300.394 417.618 300.264 417.893 300.024C418.167 299.785 418.345 299.453 418.392 299.091Z" fill="white"/>
<path opacity="0.5" d="M424.054 300.392H437.196C437.56 300.395 437.912 300.264 438.186 300.025C438.461 299.785 438.638 299.453 438.686 299.091C438.703 298.925 438.684 298.758 438.632 298.599C438.579 298.441 438.494 298.295 438.381 298.173C438.269 298.05 438.131 297.952 437.978 297.886C437.825 297.821 437.66 297.788 437.494 297.791H424.337C423.989 297.809 423.658 297.949 423.402 298.187C423.146 298.424 422.981 298.745 422.937 299.091C422.918 299.252 422.933 299.414 422.98 299.568C423.027 299.723 423.106 299.865 423.211 299.988C423.316 300.11 423.445 300.209 423.59 300.278C423.735 300.348 423.893 300.386 424.054 300.392Z" fill="white"/>
<path opacity="0.5" d="M372.962 292.142H389.888C390.236 292.123 390.567 291.983 390.823 291.746C391.079 291.508 391.244 291.188 391.289 290.841C391.306 290.675 391.287 290.508 391.235 290.349C391.182 290.191 391.097 290.045 390.984 289.923C390.871 289.8 390.734 289.702 390.581 289.636C390.428 289.571 390.263 289.538 390.097 289.541H373.185C372.834 289.556 372.5 289.694 372.241 289.932C371.982 290.17 371.815 290.492 371.77 290.841C371.753 291.007 371.771 291.175 371.824 291.334C371.876 291.492 371.962 291.637 372.074 291.76C372.187 291.883 372.324 291.981 372.477 292.046C372.63 292.112 372.795 292.145 372.962 292.142Z" fill="white"/>
<path d="M452.364 290.841C452.381 290.675 452.362 290.508 452.31 290.349C452.257 290.191 452.172 290.045 452.059 289.923C451.946 289.8 451.809 289.702 451.656 289.636C451.503 289.571 451.338 289.538 451.172 289.541H398.59C398.239 289.556 397.904 289.694 397.645 289.932C397.386 290.17 397.219 290.492 397.174 290.841C397.157 291.007 397.176 291.175 397.228 291.334C397.281 291.492 397.366 291.637 397.479 291.76C397.591 291.883 397.729 291.981 397.882 292.046C398.035 292.112 398.2 292.145 398.366 292.142H450.874C451.237 292.145 451.59 292.014 451.864 291.775C452.139 291.535 452.316 291.203 452.364 290.841Z" fill="white"/>
<path d="M373.647 283.908H404.341C404.689 283.889 405.02 283.749 405.276 283.512C405.532 283.274 405.697 282.954 405.742 282.607C405.761 282.44 405.744 282.271 405.693 282.11C405.641 281.95 405.556 281.803 405.443 281.678C405.33 281.554 405.192 281.455 405.038 281.388C404.884 281.322 404.717 281.289 404.55 281.292H373.87C373.504 281.29 373.15 281.422 372.875 281.665C372.601 281.907 372.424 282.243 372.38 282.607C372.362 282.78 372.383 282.954 372.439 283.118C372.496 283.282 372.588 283.432 372.709 283.556C372.83 283.68 372.977 283.776 373.139 283.837C373.301 283.897 373.475 283.922 373.647 283.908Z" fill="white"/>
<path opacity="0.5" d="M410.212 282.607C410.195 282.773 410.214 282.941 410.266 283.1C410.319 283.258 410.404 283.403 410.517 283.526C410.629 283.649 410.767 283.747 410.92 283.812C411.073 283.878 411.238 283.91 411.404 283.908H419.003C419.367 283.911 419.719 283.78 419.994 283.541C420.268 283.301 420.446 282.969 420.493 282.607C420.512 282.44 420.496 282.271 420.444 282.11C420.393 281.95 420.308 281.803 420.195 281.678C420.082 281.554 419.944 281.455 419.79 281.388C419.636 281.322 419.469 281.289 419.301 281.292H411.702C411.336 281.29 410.982 281.422 410.707 281.665C410.432 281.907 410.256 282.243 410.212 282.607Z" fill="white"/>
<path opacity="0.5" d="M374.347 275.658H410.643C410.992 275.64 411.322 275.5 411.578 275.262C411.834 275.024 411.999 274.704 412.044 274.357C412.063 274.191 412.047 274.022 411.995 273.863C411.943 273.703 411.858 273.557 411.745 273.433C411.632 273.31 411.493 273.212 411.339 273.148C411.185 273.083 411.019 273.052 410.852 273.057H374.63C374.266 273.054 373.914 273.185 373.639 273.424C373.365 273.664 373.187 273.996 373.14 274.357C373.123 274.525 373.142 274.694 373.195 274.853C373.248 275.013 373.335 275.159 373.449 275.282C373.564 275.405 373.703 275.502 373.858 275.567C374.012 275.632 374.179 275.663 374.347 275.658Z" fill="white"/>
<path d="M437.463 275.658H465.267C465.615 275.64 465.946 275.5 466.202 275.262C466.458 275.024 466.622 274.704 466.667 274.357C466.687 274.191 466.67 274.022 466.618 273.863C466.567 273.703 466.482 273.557 466.368 273.433C466.255 273.31 466.117 273.212 465.963 273.148C465.809 273.083 465.643 273.052 465.475 273.057H437.687C437.323 273.054 436.971 273.185 436.696 273.424C436.422 273.664 436.244 273.996 436.197 274.357C436.179 274.53 436.199 274.705 436.256 274.868C436.312 275.032 436.405 275.182 436.526 275.306C436.646 275.43 436.793 275.526 436.955 275.587C437.117 275.648 437.291 275.672 437.463 275.658Z" fill="white"/>
<path opacity="0.5" d="M495.649 339.008H415.114C414.75 339.005 414.398 339.135 414.124 339.375C413.849 339.614 413.672 339.946 413.624 340.308C413.607 340.474 413.626 340.642 413.678 340.8C413.731 340.959 413.816 341.104 413.929 341.227C414.042 341.35 414.179 341.447 414.332 341.513C414.485 341.579 414.65 341.611 414.816 341.608H495.425C495.776 341.594 496.11 341.455 496.369 341.217C496.628 340.979 496.795 340.657 496.841 340.308C496.858 340.142 496.839 339.974 496.787 339.816C496.734 339.658 496.649 339.512 496.536 339.389C496.424 339.266 496.286 339.169 496.133 339.103C495.98 339.037 495.815 339.005 495.649 339.008Z" fill="white"/>
<path d="M513.364 339.008H503.396C503.033 339.005 502.68 339.135 502.406 339.375C502.131 339.614 501.954 339.946 501.906 340.308C501.89 340.474 501.908 340.642 501.96 340.8C502.013 340.959 502.098 341.104 502.211 341.227C502.324 341.35 502.461 341.447 502.614 341.513C502.767 341.579 502.932 341.611 503.099 341.608H513.067C513.43 341.611 513.783 341.481 514.057 341.241C514.332 341.002 514.509 340.67 514.557 340.308C514.573 340.142 514.555 339.974 514.503 339.816C514.45 339.658 514.365 339.512 514.252 339.389C514.139 339.266 514.002 339.169 513.849 339.103C513.696 339.037 513.531 339.005 513.364 339.008Z" fill="white"/>
<path d="M439.818 333.359H472.285C472.633 333.341 472.964 333.201 473.22 332.963C473.476 332.726 473.641 332.406 473.686 332.059C473.703 331.893 473.684 331.725 473.631 331.566C473.579 331.408 473.494 331.263 473.381 331.14C473.268 331.017 473.131 330.919 472.978 330.854C472.825 330.788 472.66 330.756 472.494 330.758H440.041C439.678 330.755 439.325 330.886 439.051 331.125C438.776 331.365 438.599 331.697 438.551 332.059C438.533 332.231 438.553 332.406 438.61 332.57C438.667 332.734 438.759 332.883 438.88 333.007C439.001 333.131 439.148 333.227 439.31 333.288C439.472 333.349 439.645 333.373 439.818 333.359Z" fill="white"/>
<path opacity="0.5" d="M496.125 333.359C496.489 333.362 496.841 333.231 497.116 332.992C497.39 332.752 497.568 332.42 497.615 332.059C497.632 331.893 497.613 331.725 497.561 331.566C497.508 331.408 497.423 331.263 497.311 331.14C497.198 331.017 497.06 330.919 496.907 330.854C496.754 330.788 496.589 330.756 496.423 330.758H478.021C477.658 330.755 477.305 330.886 477.031 331.125C476.756 331.365 476.579 331.697 476.531 332.059C476.515 332.225 476.533 332.392 476.585 332.551C476.638 332.709 476.723 332.855 476.836 332.978C476.949 333.1 477.086 333.198 477.239 333.264C477.392 333.329 477.557 333.362 477.724 333.359H496.125Z" fill="white"/>
<path opacity="0.5" d="M514.05 330.758H504.26C503.909 330.773 503.575 330.911 503.316 331.149C503.057 331.387 502.89 331.709 502.845 332.058C502.828 332.225 502.846 332.392 502.899 332.551C502.951 332.709 503.037 332.854 503.149 332.977C503.262 333.1 503.4 333.198 503.552 333.263C503.705 333.329 503.871 333.362 504.037 333.359H513.826C514.19 333.362 514.542 333.231 514.817 332.992C515.091 332.752 515.269 332.42 515.316 332.058C515.334 331.886 515.314 331.711 515.257 331.547C515.201 331.383 515.109 331.234 514.988 331.11C514.867 330.986 514.72 330.89 514.558 330.829C514.396 330.768 514.222 330.744 514.05 330.758Z" fill="white"/>
<path d="M497.168 322.509H453.765C453.399 322.507 453.044 322.639 452.77 322.882C452.495 323.124 452.319 323.46 452.275 323.824C452.258 323.99 452.276 324.158 452.329 324.317C452.381 324.475 452.467 324.62 452.579 324.743C452.692 324.866 452.829 324.964 452.982 325.029C453.135 325.095 453.3 325.128 453.467 325.125H496.885C497.234 325.107 497.564 324.967 497.82 324.729C498.076 324.491 498.241 324.171 498.286 323.824C498.307 323.663 498.294 323.499 498.248 323.343C498.201 323.187 498.123 323.042 498.018 322.918C497.913 322.794 497.783 322.694 497.636 322.624C497.49 322.553 497.331 322.514 497.168 322.509Z" fill="white"/>
<path d="M514.75 322.509H504.842C504.476 322.506 504.121 322.639 503.847 322.882C503.572 323.124 503.396 323.46 503.352 323.824C503.335 323.99 503.353 324.158 503.406 324.316C503.458 324.475 503.544 324.62 503.656 324.743C503.769 324.866 503.906 324.963 504.059 325.029C504.212 325.095 504.377 325.127 504.544 325.124H514.452C514.816 325.127 515.168 324.997 515.443 324.757C515.717 324.518 515.895 324.186 515.942 323.824C515.962 323.657 515.945 323.488 515.893 323.327C515.842 323.167 515.757 323.02 515.644 322.895C515.531 322.771 515.393 322.672 515.239 322.605C515.085 322.539 514.918 322.506 514.75 322.509Z" fill="white"/>
<path opacity="0.5" d="M473.849 315.575C473.866 315.409 473.848 315.241 473.795 315.083C473.743 314.924 473.657 314.779 473.545 314.656C473.432 314.533 473.295 314.436 473.142 314.37C472.989 314.304 472.824 314.272 472.657 314.275H428.404C428.041 314.272 427.688 314.402 427.414 314.642C427.139 314.881 426.962 315.213 426.914 315.575C426.897 315.742 426.916 315.911 426.969 316.071C427.023 316.23 427.109 316.376 427.224 316.499C427.338 316.622 427.477 316.72 427.632 316.784C427.787 316.849 427.953 316.88 428.121 316.875H472.359C472.723 316.878 473.075 316.748 473.35 316.508C473.624 316.269 473.802 315.937 473.849 315.575Z" fill="white"/>
<path opacity="0.5" d="M480.674 314.275C480.31 314.272 479.958 314.402 479.683 314.642C479.409 314.881 479.231 315.213 479.184 315.575C479.167 315.741 479.185 315.909 479.238 316.067C479.29 316.225 479.376 316.371 479.488 316.494C479.601 316.616 479.738 316.714 479.891 316.78C480.044 316.845 480.209 316.878 480.376 316.875H497.541C497.891 316.86 498.226 316.722 498.485 316.484C498.744 316.246 498.911 315.924 498.956 315.575C498.973 315.409 498.955 315.241 498.902 315.083C498.85 314.924 498.764 314.779 498.651 314.656C498.539 314.533 498.402 314.436 498.249 314.37C498.096 314.304 497.93 314.272 497.764 314.275H480.674Z" fill="white"/>
<path d="M515.45 314.275H505.661C505.297 314.272 504.945 314.402 504.67 314.642C504.396 314.881 504.218 315.213 504.171 315.575C504.154 315.741 504.173 315.909 504.225 316.067C504.278 316.225 504.363 316.371 504.476 316.494C504.588 316.616 504.726 316.714 504.879 316.78C505.032 316.845 505.197 316.878 505.363 316.875H515.152C515.516 316.878 515.868 316.748 516.143 316.508C516.417 316.269 516.595 315.937 516.642 315.575C516.659 315.409 516.641 315.241 516.588 315.083C516.536 314.924 516.45 314.779 516.338 314.656C516.225 314.533 516.088 314.436 515.935 314.37C515.782 314.304 515.617 314.272 515.45 314.275Z" fill="white"/>
<path d="M483.654 308.64H492.177C492.527 308.622 492.86 308.48 493.116 308.239C493.373 307.998 493.536 307.675 493.578 307.325C493.594 307.159 493.576 306.991 493.524 306.833C493.471 306.675 493.386 306.529 493.273 306.406C493.16 306.284 493.023 306.186 492.87 306.12C492.717 306.055 492.552 306.022 492.385 306.025H483.878C483.527 306.04 483.192 306.178 482.933 306.416C482.674 306.654 482.507 306.976 482.462 307.325C482.445 307.492 482.464 307.66 482.516 307.82C482.569 307.979 482.654 308.125 482.766 308.249C482.879 308.373 483.016 308.472 483.169 308.539C483.322 308.607 483.487 308.641 483.654 308.64Z" fill="white"/>
<path opacity="0.5" d="M498.166 308.64H515.912C516.265 308.625 516.601 308.485 516.861 308.244C517.12 308.003 517.286 307.677 517.328 307.325C517.345 307.159 517.326 306.991 517.274 306.833C517.221 306.675 517.136 306.529 517.023 306.406C516.911 306.284 516.773 306.186 516.62 306.12C516.467 306.055 516.302 306.022 516.136 306.025H498.39C498.026 306.022 497.674 306.152 497.399 306.392C497.125 306.632 496.947 306.963 496.9 307.325C496.882 307.498 496.902 307.674 496.959 307.838C497.016 308.003 497.107 308.153 497.228 308.278C497.349 308.403 497.495 308.501 497.657 308.563C497.819 308.626 497.993 308.652 498.166 308.64Z" fill="white"/>
<path d="M387.653 168.73C387.809 168.857 388.003 168.926 388.204 168.924C388.363 168.925 388.519 168.889 388.661 168.819C388.803 168.749 388.927 168.647 389.024 168.521C389.11 168.427 389.176 168.317 389.218 168.196C389.26 168.076 389.278 167.949 389.269 167.822C389.261 167.694 389.227 167.57 389.169 167.457C389.112 167.343 389.032 167.242 388.934 167.161L386.237 165.039L389.292 162.916C389.511 162.772 389.667 162.549 389.725 162.292C389.783 162.036 389.74 161.767 389.605 161.542C389.531 161.438 389.437 161.351 389.329 161.285C389.221 161.219 389.101 161.176 388.976 161.158C388.85 161.139 388.723 161.147 388.6 161.18C388.478 161.212 388.364 161.269 388.264 161.347L384.077 164.262C383.946 164.347 383.837 164.462 383.757 164.597C383.676 164.731 383.628 164.882 383.615 165.039C383.596 165.188 383.617 165.339 383.675 165.478C383.732 165.617 383.824 165.738 383.943 165.831L387.653 168.73Z" fill="white"/>
<path d="M401.183 164.993L398.128 167.13C397.907 167.269 397.749 167.489 397.688 167.743C397.627 167.998 397.667 168.266 397.8 168.49C397.886 168.613 397.999 168.714 398.132 168.784C398.264 168.855 398.411 168.892 398.56 168.894C398.774 168.889 398.981 168.822 399.156 168.7L403.343 165.711C403.472 165.619 403.58 165.502 403.66 165.365C403.74 165.228 403.789 165.076 403.805 164.919C403.822 164.772 403.801 164.623 403.744 164.486C403.686 164.35 403.594 164.231 403.477 164.141L399.767 161.153C399.554 161.002 399.291 160.939 399.032 160.978C398.774 161.017 398.541 161.155 398.381 161.362C398.296 161.457 398.231 161.568 398.19 161.688C398.149 161.809 398.133 161.937 398.143 162.064C398.153 162.191 398.188 162.315 398.247 162.428C398.306 162.541 398.387 162.641 398.486 162.722L401.183 164.993Z" fill="white"/>
<path d="M392.034 168.834C392.137 168.856 392.244 168.856 392.347 168.834C392.556 168.83 392.76 168.765 392.934 168.649C393.108 168.532 393.245 168.369 393.33 168.177L395.878 162.363C395.934 162.249 395.966 162.125 395.971 161.998C395.977 161.871 395.955 161.745 395.909 161.627C395.863 161.508 395.792 161.401 395.702 161.312C395.612 161.223 395.505 161.153 395.386 161.108C395.135 161.027 394.863 161.044 394.623 161.155C394.383 161.265 394.193 161.462 394.09 161.706L391.542 167.534C391.476 167.649 391.436 167.778 391.425 167.911C391.414 168.043 391.433 168.177 391.48 168.301C391.527 168.426 391.601 168.538 391.697 168.63C391.793 168.723 391.908 168.792 392.034 168.834Z" fill="white"/>
<path opacity="0.5" d="M408.29 169.223H413.445C413.796 169.208 414.13 169.069 414.389 168.832C414.648 168.594 414.815 168.272 414.86 167.922C414.877 167.756 414.859 167.589 414.806 167.43C414.754 167.272 414.669 167.126 414.556 167.004C414.443 166.881 414.306 166.783 414.153 166.717C414 166.652 413.835 166.619 413.669 166.622H408.513C408.149 166.619 407.797 166.75 407.522 166.989C407.248 167.229 407.07 167.561 407.023 167.922C407.005 168.095 407.025 168.27 407.082 168.433C407.139 168.597 407.231 168.747 407.352 168.871C407.473 168.995 407.619 169.091 407.781 169.152C407.944 169.213 408.117 169.237 408.29 169.223Z" fill="white"/>
<path opacity="0.5" d="M474.252 179.55H481.21C481.574 179.553 481.926 179.422 482.201 179.183C482.475 178.943 482.653 178.611 482.7 178.249C482.719 178.082 482.702 177.913 482.651 177.753C482.599 177.592 482.514 177.445 482.401 177.321C482.289 177.196 482.151 177.097 481.996 177.03C481.842 176.964 481.676 176.931 481.508 176.934H474.55C474.197 176.95 473.86 177.09 473.601 177.331C473.342 177.572 473.176 177.897 473.134 178.249C473.118 178.409 473.134 178.571 473.182 178.724C473.23 178.877 473.309 179.019 473.413 179.141C473.518 179.263 473.646 179.362 473.791 179.432C473.935 179.502 474.092 179.542 474.252 179.55Z" fill="white"/>
<path d="M398.962 178.249C398.945 178.415 398.964 178.583 399.016 178.742C399.069 178.9 399.154 179.045 399.267 179.168C399.379 179.291 399.517 179.389 399.67 179.454C399.823 179.52 399.988 179.553 400.154 179.55H465.297C465.645 179.531 465.976 179.391 466.232 179.154C466.488 178.916 466.653 178.596 466.697 178.249C466.719 178.082 466.704 177.911 466.654 177.75C466.603 177.589 466.518 177.44 466.405 177.315C466.292 177.19 466.152 177.091 465.997 177.025C465.842 176.96 465.674 176.929 465.505 176.934H400.378C400.024 176.949 399.688 177.09 399.429 177.331C399.17 177.572 399.004 177.897 398.962 178.249Z" fill="white"/>
<path opacity="0.5" d="M382.453 179.55H392.421C392.785 179.553 393.137 179.422 393.412 179.183C393.686 178.943 393.864 178.611 393.911 178.249C393.93 178.082 393.913 177.913 393.862 177.753C393.81 177.592 393.725 177.445 393.613 177.321C393.5 177.196 393.362 177.097 393.208 177.03C393.053 176.964 392.887 176.931 392.719 176.934H382.751C382.385 176.932 382.031 177.064 381.756 177.307C381.481 177.549 381.305 177.885 381.261 178.249C381.244 178.415 381.262 178.583 381.315 178.742C381.367 178.9 381.453 179.045 381.565 179.168C381.678 179.291 381.816 179.389 381.968 179.454C382.121 179.52 382.286 179.553 382.453 179.55Z" fill="white"/>
<path d="M449.25 187.784C449.6 187.769 449.935 187.631 450.194 187.393C450.453 187.155 450.62 186.833 450.665 186.484C450.682 186.318 450.664 186.15 450.611 185.992C450.559 185.833 450.473 185.688 450.361 185.565C450.248 185.442 450.11 185.345 449.958 185.279C449.805 185.213 449.64 185.181 449.473 185.184H423.532C423.168 185.181 422.816 185.311 422.541 185.551C422.267 185.79 422.089 186.122 422.042 186.484C422.025 186.65 422.044 186.818 422.096 186.976C422.149 187.135 422.234 187.28 422.347 187.403C422.459 187.526 422.597 187.623 422.75 187.689C422.903 187.755 423.068 187.787 423.234 187.784H449.25Z" fill="white"/>
<path d="M399.468 187.784H417.87C418.234 187.787 418.586 187.657 418.861 187.417C419.135 187.178 419.313 186.846 419.36 186.484C419.377 186.318 419.358 186.15 419.306 185.992C419.253 185.833 419.168 185.688 419.055 185.565C418.943 185.442 418.805 185.345 418.652 185.279C418.499 185.213 418.334 185.181 418.168 185.184H399.751C399.403 185.202 399.072 185.342 398.816 185.579C398.56 185.817 398.396 186.137 398.351 186.484C398.335 186.644 398.351 186.805 398.399 186.959C398.447 187.112 398.526 187.254 398.63 187.376C398.735 187.497 398.863 187.596 399.007 187.667C399.151 187.737 399.308 187.777 399.468 187.784Z" fill="white"/>
<path opacity="0.5" d="M381.768 187.784H391.557C391.921 187.787 392.273 187.657 392.548 187.417C392.822 187.178 393 186.846 393.047 186.484C393.064 186.318 393.045 186.15 392.993 185.992C392.94 185.833 392.855 185.688 392.742 185.565C392.63 185.442 392.492 185.345 392.339 185.279C392.187 185.213 392.021 185.181 391.855 185.184H382.051C381.687 185.181 381.335 185.311 381.06 185.551C380.786 185.79 380.608 186.122 380.561 186.484C380.544 186.651 380.562 186.82 380.616 186.98C380.669 187.139 380.756 187.285 380.87 187.409C380.984 187.532 381.124 187.629 381.279 187.694C381.433 187.758 381.6 187.789 381.768 187.784Z" fill="white"/>
<path d="M436.943 194.733C436.959 194.567 436.941 194.399 436.888 194.241C436.836 194.082 436.75 193.937 436.638 193.814C436.525 193.691 436.388 193.594 436.235 193.528C436.082 193.462 435.917 193.43 435.75 193.433H398.858C398.507 193.447 398.173 193.586 397.914 193.824C397.655 194.062 397.488 194.384 397.443 194.733C397.426 194.899 397.444 195.067 397.497 195.225C397.549 195.384 397.634 195.529 397.747 195.652C397.86 195.775 397.997 195.872 398.15 195.938C398.303 196.004 398.468 196.036 398.634 196.033H435.527C435.878 196.018 436.212 195.88 436.471 195.642C436.73 195.404 436.897 195.082 436.943 194.733Z" fill="white"/>
<path opacity="0.5" d="M381.067 196.034H390.975C391.324 196.016 391.655 195.876 391.91 195.638C392.166 195.4 392.331 195.08 392.376 194.733C392.393 194.567 392.374 194.4 392.322 194.241C392.269 194.083 392.184 193.937 392.071 193.815C391.959 193.692 391.821 193.594 391.668 193.528C391.515 193.463 391.35 193.43 391.184 193.433H381.29C380.927 193.43 380.574 193.561 380.3 193.8C380.025 194.04 379.848 194.372 379.8 194.733C379.782 194.906 379.802 195.081 379.859 195.245C379.916 195.408 380.008 195.558 380.129 195.682C380.25 195.806 380.397 195.902 380.559 195.963C380.721 196.024 380.894 196.048 381.067 196.034Z" fill="white"/>
<path d="M423.16 204.268H460.887C461.25 204.271 461.603 204.141 461.877 203.901C462.152 203.662 462.329 203.33 462.377 202.968C462.393 202.802 462.375 202.634 462.323 202.476C462.27 202.317 462.185 202.172 462.072 202.049C461.959 201.926 461.822 201.829 461.669 201.763C461.516 201.697 461.351 201.665 461.185 201.668H423.443C423.095 201.686 422.764 201.826 422.508 202.063C422.252 202.301 422.087 202.621 422.042 202.968C422.026 203.128 422.042 203.289 422.09 203.443C422.138 203.596 422.217 203.738 422.322 203.859C422.426 203.981 422.555 204.08 422.699 204.15C422.843 204.221 423 204.261 423.16 204.268Z" fill="white"/>
<path d="M398.187 201.608C397.824 201.605 397.471 201.735 397.197 201.975C396.922 202.214 396.745 202.546 396.697 202.908C396.681 203.074 396.699 203.242 396.751 203.4C396.804 203.558 396.889 203.704 397.002 203.827C397.115 203.95 397.252 204.047 397.405 204.113C397.558 204.178 397.723 204.211 397.889 204.208H415.114C415.478 204.211 415.83 204.081 416.104 203.841C416.379 203.602 416.557 203.27 416.604 202.908C416.621 202.742 416.602 202.574 416.55 202.416C416.497 202.257 416.412 202.112 416.299 201.989C416.187 201.866 416.049 201.769 415.896 201.703C415.743 201.637 415.578 201.605 415.412 201.608H398.187Z" fill="white"/>
<path opacity="0.5" d="M380.367 204.268H390.156C390.52 204.271 390.872 204.141 391.147 203.901C391.421 203.662 391.599 203.33 391.646 202.968C391.663 202.802 391.645 202.634 391.592 202.476C391.54 202.317 391.454 202.172 391.341 202.049C391.229 201.926 391.092 201.829 390.939 201.763C390.786 201.697 390.62 201.665 390.454 201.668H380.665C380.314 201.682 379.979 201.821 379.72 202.059C379.461 202.297 379.295 202.619 379.249 202.968C379.233 203.128 379.249 203.289 379.297 203.443C379.345 203.596 379.424 203.738 379.529 203.859C379.633 203.981 379.762 204.08 379.906 204.15C380.05 204.221 380.207 204.261 380.367 204.268Z" fill="white"/>
<path d="M412.224 209.917H403.701C403.35 209.931 403.016 210.07 402.757 210.308C402.498 210.546 402.331 210.868 402.285 211.217C402.268 211.383 402.287 211.551 402.339 211.709C402.392 211.867 402.477 212.013 402.59 212.136C402.702 212.259 402.84 212.356 402.993 212.422C403.146 212.488 403.311 212.52 403.477 212.517H412C412.351 212.502 412.685 212.364 412.944 212.126C413.203 211.888 413.37 211.566 413.416 211.217C413.433 211.051 413.414 210.883 413.362 210.725C413.309 210.566 413.224 210.421 413.111 210.298C412.999 210.175 412.861 210.078 412.708 210.012C412.555 209.946 412.39 209.914 412.224 209.917Z" fill="white"/>
<path d="M397.636 209.917H379.89C379.542 209.935 379.211 210.075 378.955 210.312C378.699 210.55 378.534 210.87 378.489 211.217C378.47 211.383 378.486 211.552 378.538 211.712C378.59 211.871 378.675 212.018 378.788 212.141C378.901 212.264 379.04 212.362 379.194 212.427C379.348 212.492 379.514 212.522 379.681 212.517H397.427C397.775 212.499 398.106 212.359 398.362 212.121C398.618 211.884 398.783 211.564 398.828 211.217C398.845 211.051 398.826 210.883 398.774 210.725C398.721 210.566 398.636 210.421 398.523 210.298C398.411 210.175 398.273 210.078 398.12 210.012C397.967 209.946 397.802 209.914 397.636 209.917Z" fill="white"/>
<path d="M452.677 219.452C452.657 219.619 452.674 219.788 452.726 219.949C452.777 220.109 452.862 220.256 452.975 220.381C453.088 220.505 453.226 220.604 453.38 220.671C453.534 220.737 453.701 220.77 453.869 220.767H523.332C523.686 220.752 524.022 220.611 524.281 220.37C524.54 220.129 524.706 219.804 524.748 219.452C524.765 219.286 524.746 219.118 524.694 218.96C524.641 218.801 524.556 218.656 524.443 218.533C524.331 218.41 524.193 218.312 524.04 218.247C523.887 218.181 523.722 218.149 523.556 218.152H454.092C453.741 218.166 453.407 218.305 453.148 218.543C452.889 218.78 452.722 219.102 452.677 219.452Z" fill="white"/>
<path opacity="0.5" d="M433.917 218.152C433.566 218.166 433.232 218.305 432.973 218.543C432.714 218.78 432.547 219.102 432.502 219.452C432.483 219.619 432.499 219.788 432.551 219.949C432.602 220.109 432.687 220.256 432.8 220.381C432.913 220.505 433.051 220.604 433.205 220.671C433.359 220.737 433.526 220.77 433.694 220.767H446.836C447.202 220.77 447.556 220.637 447.831 220.394C448.106 220.152 448.282 219.816 448.326 219.452C448.343 219.286 448.324 219.118 448.272 218.96C448.219 218.801 448.134 218.656 448.021 218.533C447.908 218.41 447.771 218.312 447.618 218.247C447.465 218.181 447.3 218.149 447.134 218.152H433.917Z" fill="white"/>
<path opacity="0.5" d="M522.856 226.401H506.004C505.64 226.397 505.288 226.528 505.013 226.767C504.739 227.007 504.561 227.339 504.514 227.701C504.497 227.867 504.515 228.035 504.568 228.193C504.62 228.351 504.706 228.497 504.819 228.62C504.931 228.743 505.068 228.84 505.221 228.906C505.374 228.971 505.54 229.004 505.706 229.001H522.632C522.983 228.986 523.318 228.848 523.577 228.61C523.835 228.372 524.002 228.05 524.048 227.701C524.065 227.535 524.046 227.367 523.994 227.209C523.941 227.05 523.856 226.905 523.743 226.782C523.631 226.659 523.493 226.562 523.34 226.496C523.187 226.43 523.022 226.398 522.856 226.401Z" fill="white"/>
<path d="M498.718 227.701C498.735 227.535 498.716 227.367 498.664 227.209C498.611 227.05 498.526 226.905 498.413 226.782C498.301 226.659 498.163 226.562 498.01 226.496C497.857 226.43 497.692 226.398 497.526 226.401H426.706C426.342 226.397 425.99 226.528 425.715 226.767C425.441 227.007 425.263 227.339 425.216 227.701C425.199 227.867 425.218 228.035 425.27 228.193C425.323 228.351 425.408 228.497 425.521 228.62C425.633 228.743 425.771 228.84 425.924 228.906C426.077 228.971 426.242 229.004 426.408 229.001H497.228C497.591 229.004 497.944 228.874 498.218 228.634C498.493 228.395 498.67 228.063 498.718 227.701Z" fill="white"/>
<path d="M522.156 234.635H491.477C491.11 234.633 490.756 234.765 490.481 235.008C490.207 235.25 490.03 235.586 489.987 235.95C489.97 236.116 489.988 236.284 490.041 236.443C490.093 236.601 490.179 236.746 490.291 236.869C490.404 236.992 490.541 237.09 490.694 237.155C490.847 237.221 491.012 237.254 491.179 237.251H521.873C522.221 237.233 522.552 237.092 522.808 236.855C523.064 236.617 523.228 236.297 523.273 235.95C523.292 235.789 523.277 235.626 523.23 235.471C523.183 235.316 523.105 235.172 523 235.049C522.895 234.926 522.766 234.825 522.621 234.754C522.475 234.683 522.317 234.642 522.156 234.635Z" fill="white"/>
<path opacity="0.5" d="M476.814 234.635C476.448 234.632 476.094 234.765 475.819 235.008C475.545 235.25 475.368 235.586 475.324 235.95C475.308 236.116 475.326 236.284 475.378 236.442C475.431 236.601 475.516 236.746 475.629 236.869C475.742 236.992 475.879 237.089 476.032 237.155C476.185 237.221 476.35 237.253 476.516 237.25H484.115C484.479 237.253 484.832 237.123 485.106 236.883C485.38 236.644 485.558 236.312 485.605 235.95C485.625 235.783 485.608 235.613 485.556 235.453C485.505 235.293 485.42 235.146 485.307 235.021C485.194 234.897 485.056 234.798 484.902 234.731C484.748 234.665 484.581 234.632 484.413 234.635H476.814Z" fill="white"/>
<path d="M521.47 242.884H460.484C460.121 242.881 459.768 243.012 459.494 243.251C459.219 243.491 459.042 243.823 458.994 244.185C458.977 244.351 458.996 244.518 459.049 244.677C459.101 244.835 459.186 244.981 459.299 245.104C459.412 245.226 459.549 245.324 459.702 245.39C459.855 245.455 460.02 245.488 460.186 245.485H521.172C521.536 245.488 521.888 245.357 522.163 245.118C522.437 244.878 522.615 244.546 522.662 244.185C522.679 244.019 522.66 243.851 522.608 243.692C522.555 243.534 522.47 243.389 522.358 243.266C522.245 243.143 522.108 243.045 521.955 242.98C521.802 242.914 521.636 242.881 521.47 242.884Z" fill="white"/>
<path d="M433.56 242.884H412.283C411.932 242.899 411.598 243.038 411.339 243.275C411.08 243.513 410.913 243.835 410.867 244.185C410.851 244.351 410.869 244.518 410.921 244.677C410.974 244.835 411.059 244.981 411.172 245.103C411.285 245.226 411.422 245.324 411.575 245.39C411.728 245.455 411.893 245.488 412.059 245.485H433.351C433.7 245.467 434.031 245.327 434.287 245.089C434.542 244.852 434.707 244.531 434.752 244.185C434.772 244.018 434.755 243.849 434.703 243.69C434.652 243.53 434.566 243.384 434.453 243.26C434.34 243.137 434.202 243.04 434.048 242.975C433.893 242.91 433.727 242.879 433.56 242.884Z" fill="white"/>
<path d="M512.56 417.781L504.544 508.195V508.509H347.17V508.195L364.186 316.038L372.828 318.31L414.98 329.324L417.319 329.937L420.195 330.684L423.741 331.61L425.946 332.193L454.256 339.576H454.435C456.491 340.114 458.503 340.726 460.469 341.414C476.137 346.9 489.647 357.264 499.029 370.993C508.41 384.723 513.172 401.1 512.619 417.736L512.56 417.781Z" fill="#006AA6"/>
<path opacity="0.8" d="M512.56 417.781L504.544 508.195V508.509H347.17V508.195L364.186 316.038L372.828 318.31L414.98 329.324L417.319 329.937L420.195 330.684L423.741 331.61L425.946 332.193L454.256 339.576H454.435C456.491 340.114 458.503 340.726 460.469 341.414C476.137 346.9 489.647 357.264 499.029 370.993C508.41 384.723 513.172 401.1 512.619 417.736L512.56 417.781Z" fill="white"/>
<path opacity="0.6" d="M425.976 332.193H371.636L371.889 329.324L372.858 318.31L415.01 329.324L417.349 329.936L420.225 330.684L423.771 331.61L425.976 332.193Z" fill="black"/>
<path opacity="0.5" d="M425.976 332.193H371.636L371.889 329.324H415.01L417.349 329.936L420.225 330.684L423.771 331.61L425.976 332.193Z" fill="black"/>
<path opacity="0.6" d="M420.225 330.684L420.091 332.193H371.636L371.889 329.324H415.01L417.349 329.936L420.225 330.684Z" fill="white"/>
<path d="M423.771 331.625C423.711 331.827 423.631 332.022 423.532 332.208C423.218 332.819 422.744 333.334 422.162 333.697C421.58 334.06 420.91 334.258 420.225 334.271C419.571 334.303 418.925 334.118 418.386 333.745C417.848 333.373 417.447 332.833 417.245 332.208C417.092 331.778 417.035 331.318 417.081 330.863C417.111 330.552 417.181 330.245 417.289 329.952L420.165 330.699L423.771 331.625Z" fill="white"/>
<path opacity="0.4" d="M441.308 353.265H372.44C372.097 353.271 371.756 353.204 371.441 353.068C371.125 352.932 370.842 352.729 370.611 352.475C370.38 352.22 370.205 351.919 370.099 351.591C369.993 351.264 369.958 350.917 369.996 350.575C370.071 349.835 370.417 349.15 370.968 348.652C371.519 348.155 372.235 347.881 372.976 347.885H441.844C442.187 347.881 442.527 347.95 442.841 348.087C443.155 348.224 443.437 348.426 443.668 348.68C443.899 348.934 444.073 349.234 444.18 349.561C444.287 349.888 444.324 350.233 444.288 350.575C444.214 351.315 443.867 352 443.316 352.498C442.765 352.995 442.049 353.269 441.308 353.265Z" fill="#006AA6"/>
<path opacity="0.4" d="M460.47 342.266C460.392 343.003 460.044 343.685 459.494 344.179C458.943 344.673 458.229 344.945 457.49 344.941H373.126C372.784 344.947 372.445 344.88 372.13 344.745C371.816 344.609 371.534 344.409 371.303 344.156C371.072 343.903 370.897 343.603 370.79 343.278C370.683 342.952 370.646 342.607 370.682 342.266C370.756 341.526 371.103 340.84 371.654 340.343C372.205 339.846 372.921 339.572 373.662 339.576H454.212H454.39C456.447 340.114 458.458 340.726 460.425 341.414C460.482 341.694 460.497 341.981 460.47 342.266Z" fill="#006AA6"/>
<path opacity="0.3" d="M506.749 385.426L502.905 428.855H363.068L368.462 368H496.841C500.878 373.356 504.209 379.213 506.749 385.426Z" fill="black"/>
<path opacity="0.5" d="M461.11 378.641H450.159C449.848 378.647 449.539 378.586 449.252 378.463C448.966 378.34 448.71 378.157 448.499 377.927C448.289 377.696 448.131 377.423 448.034 377.126C447.937 376.83 447.905 376.515 447.939 376.205C448.004 375.545 448.309 374.933 448.796 374.484C449.282 374.035 449.915 373.78 450.576 373.769H461.543C461.854 373.763 462.163 373.823 462.449 373.947C462.735 374.07 462.992 374.253 463.202 374.483C463.412 374.714 463.571 374.987 463.668 375.283C463.764 375.58 463.797 375.894 463.763 376.205C463.694 376.866 463.386 377.478 462.897 377.927C462.408 378.376 461.773 378.63 461.11 378.641Z" fill="white"/>
<path opacity="0.5" d="M491.432 386.457H449.458C449.148 386.463 448.839 386.403 448.554 386.28C448.268 386.156 448.012 385.973 447.803 385.742C447.594 385.511 447.437 385.238 447.342 384.941C447.247 384.645 447.217 384.331 447.253 384.021C447.319 383.363 447.625 382.752 448.111 382.306C448.598 381.859 449.231 381.608 449.89 381.6H491.864C492.173 381.594 492.48 381.654 492.765 381.776C493.049 381.899 493.304 382.081 493.513 382.31C493.722 382.539 493.879 382.81 493.975 383.105C494.071 383.4 494.103 383.713 494.069 384.021C494.003 384.681 493.698 385.293 493.212 385.742C492.726 386.191 492.092 386.446 491.432 386.457Z" fill="white"/>
<path opacity="0.3" d="M433.739 423.161H370.176L374.556 373.769H438.105L433.739 423.161Z" fill="#006AA6"/>
<path opacity="0.5" d="M371.144 412.266L389.874 398.472L399.693 406.258L420.448 391.374L435.304 405.451L433.739 423.161H370.176L371.144 412.266Z" fill="white"/>
<path opacity="0.5" d="M392.421 385.426C392.307 386.82 391.69 388.124 390.686 389.095C389.683 390.066 388.361 390.637 386.968 390.701C386.314 390.691 385.67 390.541 385.079 390.262C384.488 389.982 383.964 389.579 383.541 389.08C383.117 388.58 382.805 387.996 382.625 387.366C382.446 386.736 382.402 386.074 382.498 385.426C382.612 384.032 383.229 382.728 384.232 381.757C385.236 380.786 386.558 380.215 387.951 380.15C388.604 380.16 389.248 380.31 389.839 380.59C390.43 380.87 390.955 381.273 391.378 381.772C391.801 382.271 392.113 382.856 392.293 383.486C392.473 384.116 392.517 384.777 392.421 385.426Z" fill="white"/>
<path opacity="0.3" d="M496.825 497.659H356.974L362.367 436.79H502.219L496.825 497.659Z" fill="black"/>
<path opacity="0.5" d="M455.031 447.386H444.064C443.753 447.392 443.444 447.331 443.158 447.208C442.871 447.085 442.615 446.902 442.405 446.671C442.195 446.441 442.036 446.168 441.939 445.871C441.843 445.574 441.81 445.26 441.844 444.95C441.913 444.29 442.222 443.679 442.711 443.233C443.2 442.787 443.835 442.536 444.496 442.529H455.448C455.758 442.52 456.067 442.579 456.353 442.7C456.64 442.822 456.897 443.003 457.107 443.233C457.317 443.462 457.476 443.734 457.573 444.03C457.67 444.326 457.702 444.64 457.668 444.95C457.602 445.609 457.298 446.222 456.811 446.671C456.325 447.12 455.692 447.374 455.031 447.386Z" fill="white"/>
<path opacity="0.5" d="M485.337 455.202H443.423C443.114 455.208 442.807 455.148 442.523 455.025C442.238 454.903 441.983 454.721 441.774 454.492C441.566 454.263 441.408 453.992 441.312 453.696C441.216 453.401 441.184 453.089 441.218 452.781C441.284 452.121 441.589 451.509 442.075 451.059C442.561 450.61 443.195 450.356 443.856 450.345H485.829C486.14 450.338 486.448 450.399 486.734 450.522C487.019 450.645 487.275 450.829 487.484 451.059C487.693 451.29 487.85 451.563 487.945 451.86C488.04 452.157 488.07 452.471 488.034 452.781C487.967 453.449 487.653 454.068 487.154 454.516C486.655 454.964 486.007 455.209 485.337 455.202Z" fill="white"/>
<path opacity="0.3" d="M427.644 491.921H364.081L368.462 442.529H432.025L427.644 491.921Z" fill="#006AA6"/>
<path opacity="0.5" d="M365.05 481.026L383.779 467.217L393.613 475.018L414.354 460.119L429.209 474.211L427.644 491.921H364.081L365.05 481.026Z" fill="white"/>
<path opacity="0.5" d="M386.327 454.17C386.213 455.564 385.596 456.869 384.592 457.84C383.589 458.811 382.267 459.382 380.874 459.446C380.22 459.436 379.577 459.286 378.986 459.006C378.395 458.727 377.87 458.324 377.447 457.824C377.024 457.325 376.712 456.741 376.532 456.11C376.352 455.48 376.308 454.819 376.404 454.17C376.518 452.777 377.135 451.472 378.139 450.501C379.142 449.53 380.464 448.959 381.857 448.895C382.511 448.905 383.154 449.055 383.745 449.334C384.336 449.614 384.861 450.017 385.284 450.517C385.707 451.016 386.019 451.6 386.199 452.23C386.379 452.861 386.423 453.522 386.327 454.17Z" fill="white"/>
<path opacity="0.2" d="M482.745 355.536C441.502 334.883 376.24 375.532 374.332 376.235C367.761 378.686 360.118 375.398 353.204 370.451L358.568 308.865L361.697 308.67C361.697 308.67 450.203 330.445 482.745 355.536Z" fill="black"/>
<path d="M267.47 289.542C267.47 289.542 277.021 295.295 282.191 297.791C285.171 299.181 296.078 297.163 304.913 302.857C313.466 308.342 312.512 313.841 316.118 318.728C327.025 333.478 350.388 333.015 350.388 333.015C350.388 333.015 449.786 314.275 500.774 373.754C500.744 373.754 463.002 299.958 267.47 289.542Z" fill="#006AA6"/>
<path opacity="0.4" d="M267.47 289.542C267.47 289.542 277.021 295.295 282.191 297.791C285.171 299.181 296.078 297.163 304.913 302.857C313.466 308.342 312.512 313.841 316.118 318.728C327.025 333.478 350.388 333.015 350.388 333.015C350.388 333.015 449.786 314.275 500.774 373.754C500.744 373.754 463.002 299.958 267.47 289.542Z" fill="white"/>
<path d="M216.035 148.838H146.914C145.028 148.838 143.219 149.589 141.883 150.925C140.548 152.262 139.796 154.075 139.792 155.967V193.522C139.796 195.414 140.548 197.227 141.883 198.564C143.219 199.9 145.028 200.651 146.914 200.651H195.056C196.904 205.134 202.193 213.966 215.737 218.076C215.737 218.076 207.617 210.694 208.019 200.651H216.11C217.994 200.647 219.799 199.895 221.131 198.559C222.463 197.223 223.213 195.412 223.217 193.522V155.967C223.215 155.025 223.028 154.093 222.665 153.224C222.303 152.355 221.772 151.566 221.105 150.904C220.437 150.241 219.646 149.718 218.776 149.363C217.906 149.009 216.974 148.83 216.035 148.838Z" fill="#006AA6"/>
<path opacity="0.6" d="M216.035 148.838H146.914C145.028 148.838 143.219 149.589 141.883 150.925C140.548 152.262 139.796 154.075 139.792 155.967V193.522C139.796 195.414 140.548 197.227 141.883 198.564C143.219 199.9 145.028 200.651 146.914 200.651H195.056C196.904 205.134 202.193 213.966 215.737 218.076C215.737 218.076 207.617 210.694 208.019 200.651H216.11C217.994 200.647 219.799 199.895 221.131 198.559C222.463 197.223 223.213 195.412 223.217 193.522V155.967C223.215 155.025 223.028 154.093 222.665 153.224C222.303 152.355 221.772 151.566 221.105 150.904C220.437 150.241 219.646 149.718 218.776 149.363C217.906 149.009 216.974 148.83 216.035 148.838Z" fill="white"/>
<g opacity="0.5">
<path d="M148.211 161.347C148.211 158.567 149.701 156.863 151.668 156.863C153.635 156.863 155.139 158.507 155.139 161.347C155.139 164.186 153.649 165.83 151.668 165.83C149.686 165.83 148.211 164.111 148.211 161.347ZM154.171 161.347C154.171 159.015 153.128 157.745 151.623 157.745C150.118 157.745 149.075 159.015 149.075 161.347C149.075 163.678 150.118 164.948 151.623 164.948C153.128 164.948 154.216 163.663 154.216 161.347H154.171Z" fill="black"/>
<path d="M158.834 156.998V165.74H157.941V157.834H155.854V157.042L158.834 156.998Z" fill="black"/>
<path d="M160.86 161.347C160.86 158.567 162.35 156.863 164.317 156.863C166.284 156.863 167.774 158.507 167.774 161.347C167.774 164.186 166.284 165.83 164.317 165.83C162.35 165.83 160.86 164.111 160.86 161.347ZM166.82 161.347C166.82 159.015 165.777 157.745 164.273 157.745C162.768 157.745 161.71 159.015 161.71 161.347C161.71 163.678 162.753 164.948 164.273 164.948C165.792 164.948 166.865 163.663 166.865 161.347H166.82Z" fill="black"/>
<path d="M169.056 161.347C169.056 158.567 170.546 156.863 172.512 156.863C174.479 156.863 175.984 158.507 175.984 161.347C175.984 164.186 174.494 165.83 172.512 165.83C170.531 165.83 169.056 164.111 169.056 161.347ZM175.016 161.347C175.016 159.015 173.973 157.745 172.468 157.745C170.963 157.745 169.905 159.015 169.905 161.347C169.905 163.678 170.948 164.948 172.468 164.948C173.988 164.948 175.06 163.663 175.06 161.347H175.016Z" fill="black"/>
<path d="M179.694 156.998V165.74H178.8V157.834H176.714V157.042L179.694 156.998Z" fill="black"/>
<path d="M184.165 156.998V165.74H183.271V157.834H181.185V157.042L184.165 156.998Z" fill="black"/>
<path d="M188.634 156.998V165.74H187.74V157.834H185.654V157.042L188.634 156.998Z" fill="black"/>
<path d="M190.631 161.347C190.631 158.567 192.121 156.863 194.088 156.863C196.054 156.863 197.559 158.507 197.559 161.347C197.559 164.186 196.069 165.83 194.088 165.83C192.106 165.83 190.631 164.111 190.631 161.347ZM196.591 161.347C196.591 159.015 195.548 157.745 194.028 157.745C192.508 157.745 191.48 159.015 191.48 161.347C191.48 163.678 192.523 164.948 194.028 164.948C195.533 164.948 196.65 163.663 196.65 161.347H196.591Z" fill="black"/>
<path d="M198.826 161.347C198.826 158.567 200.316 156.863 202.298 156.863C204.28 156.863 205.755 158.507 205.755 161.347C205.755 164.186 204.265 165.83 202.298 165.83C200.331 165.83 198.826 164.111 198.826 161.347ZM204.786 161.347C204.786 159.015 203.743 157.745 202.238 157.745C200.733 157.745 199.675 159.015 199.675 161.347C199.675 163.678 200.718 164.948 202.238 164.948C203.758 164.948 204.846 163.663 204.846 161.347H204.786Z" fill="black"/>
<path d="M209.405 156.998V165.74H208.511V157.834H206.515V157.042L209.405 156.998Z" fill="black"/>
<path d="M213.875 156.998V165.74H212.981V157.834H210.984V157.042L213.875 156.998Z" fill="black"/>
<path d="M150.594 169.581V178.294H149.715V170.388H147.659V169.581H150.594Z" fill="black"/>
<path d="M152.666 173.945C152.666 171.165 154.156 169.461 156.123 169.461C158.09 169.461 159.595 171.12 159.595 173.945C159.595 176.769 158.105 178.428 156.123 178.428C154.141 178.428 152.666 176.71 152.666 173.945ZM158.626 173.945C158.626 171.613 157.598 170.328 156.078 170.328C154.558 170.328 153.53 171.613 153.53 173.945C153.53 176.276 154.573 177.546 156.078 177.546C157.583 177.546 158.671 176.201 158.671 173.945H158.626Z" fill="black"/>
<path d="M160.86 173.945C160.86 171.165 162.35 169.461 164.317 169.461C166.284 169.461 167.789 171.12 167.789 173.945C167.789 176.769 166.299 178.428 164.317 178.428C162.335 178.428 160.86 176.71 160.86 173.945ZM166.82 173.945C166.82 171.613 165.777 170.328 164.258 170.328C162.738 170.328 161.71 171.613 161.71 173.945C161.71 176.276 162.753 177.546 164.258 177.546C165.762 177.546 166.88 176.201 166.88 173.945H166.82Z" fill="black"/>
<path d="M171.439 169.581V178.294H170.545V170.388H168.504V169.581H171.439Z" fill="black"/>
<path d="M175.91 169.581V178.294H175.016V170.388H172.975V169.581H175.91Z" fill="black"/>
<path d="M180.38 169.581V178.294H179.486V170.388H177.444V169.581H180.38Z" fill="black"/>
<path d="M182.45 173.945C182.45 171.165 183.94 169.461 185.907 169.461C187.874 169.461 189.379 171.12 189.379 173.945C189.379 176.769 187.889 178.428 185.907 178.428C183.925 178.428 182.45 176.71 182.45 173.945ZM188.41 173.945C188.41 171.613 187.367 170.328 185.862 170.328C184.357 170.328 183.314 171.613 183.314 173.945C183.314 176.276 184.357 177.546 185.862 177.546C187.367 177.546 188.455 176.201 188.455 173.945H188.41Z" fill="black"/>
<path d="M190.646 173.945C190.646 171.165 192.136 169.461 194.102 169.461C196.069 169.461 197.574 171.12 197.574 173.945C197.574 176.769 196.084 178.428 194.102 178.428C192.121 178.428 190.646 176.71 190.646 173.945ZM196.606 173.945C196.606 171.613 195.577 170.328 194.058 170.328C192.538 170.328 191.51 171.613 191.51 173.945C191.51 176.276 192.553 177.546 194.058 177.546C195.563 177.546 196.65 176.201 196.65 173.945H196.606Z" fill="black"/>
<path d="M201.224 169.581V178.294H200.33V170.388H198.289V169.581H201.224Z" fill="black"/>
<path d="M205.695 169.581V178.294H204.801V170.388H202.76V169.581H205.695Z" fill="black"/>
<path d="M207.766 173.945C207.766 171.165 209.256 169.461 211.222 169.461C213.189 169.461 214.694 171.12 214.694 173.945C214.694 176.769 213.204 178.428 211.222 178.428C209.241 178.428 207.766 176.71 207.766 173.945ZM213.726 173.945C213.726 171.613 212.683 170.328 211.178 170.328C209.673 170.328 208.615 171.613 208.615 173.945C208.615 176.276 209.658 177.546 211.178 177.546C212.697 177.546 213.77 176.201 213.77 173.945H213.726Z" fill="black"/>
<path d="M148.211 186.528C148.211 183.764 149.701 182.045 151.668 182.045C153.635 182.045 155.139 183.704 155.139 186.528C155.139 189.353 153.649 191.012 151.668 191.012C149.686 191.012 148.211 189.308 148.211 186.528ZM154.171 186.528C154.171 184.212 153.128 182.927 151.623 182.927C150.118 182.927 149.075 184.212 149.075 186.528C149.075 188.845 150.118 190.13 151.623 190.13C153.128 190.13 154.216 188.86 154.216 186.528H154.171Z" fill="black"/>
<path d="M156.405 186.528C156.405 183.764 157.895 182.045 159.862 182.045C161.829 182.045 163.334 183.704 163.334 186.528C163.334 189.353 161.844 191.012 159.862 191.012C157.88 191.012 156.405 189.308 156.405 186.528ZM162.365 186.528C162.365 184.212 161.337 182.927 159.817 182.927C158.298 182.927 157.269 184.212 157.269 186.528C157.269 188.845 158.312 190.13 159.817 190.13C161.322 190.13 162.41 188.86 162.41 186.528H162.365Z" fill="black"/>
<path d="M166.984 182.179V190.877H166.09V182.971H164.049V182.179H166.984Z" fill="black"/>
<path d="M171.455 182.179V190.877H170.561V182.971H168.52V182.179H171.455Z" fill="black"/>
<path d="M173.525 186.528C173.525 183.764 175.015 182.045 176.982 182.045C178.949 182.045 180.454 183.704 180.454 186.528C180.454 189.353 178.964 191.012 176.982 191.012C175.001 191.012 173.525 189.308 173.525 186.528ZM179.485 186.528C179.485 184.212 178.442 182.927 176.938 182.927C175.433 182.927 174.375 184.212 174.375 186.528C174.375 188.845 175.418 190.13 176.938 190.13C178.457 190.13 179.53 188.86 179.53 186.528H179.485Z" fill="black"/>
<path d="M181.721 186.528C181.721 183.764 183.211 182.045 185.178 182.045C187.144 182.045 188.649 183.704 188.649 186.528C188.649 189.353 187.159 191.012 185.178 191.012C183.196 191.012 181.721 189.308 181.721 186.528ZM187.681 186.528C187.681 184.212 186.638 182.927 185.133 182.927C183.628 182.927 182.585 184.212 182.585 186.528C182.585 188.845 183.613 190.13 185.133 190.13C186.653 190.13 187.725 188.86 187.725 186.528H187.681Z" fill="black"/>
<path d="M192.3 182.179V190.877H191.406V182.971H189.364V182.179H192.3Z" fill="black"/>
<path d="M196.769 182.179V190.877H195.875V182.971H193.834V182.179H196.769Z" fill="black"/>
<path d="M201.24 182.179V190.877H200.346V182.971H198.305V182.179H201.24Z" fill="black"/>
<path d="M203.311 186.528C203.311 183.764 204.801 182.045 206.767 182.045C208.734 182.045 210.224 183.704 210.224 186.528C210.224 189.353 208.734 191.012 206.767 191.012C204.801 191.012 203.311 189.308 203.311 186.528ZM209.271 186.528C209.271 184.212 208.228 182.927 206.723 182.927C205.218 182.927 204.16 184.212 204.16 186.528C204.16 188.845 205.203 190.13 206.723 190.13C208.243 190.13 209.315 188.86 209.315 186.528H209.271Z" fill="black"/>
<path d="M213.875 182.179V190.877H212.981V182.971H210.984V182.179H213.875Z" fill="black"/>
</g>
<path d="M276.365 296.669C277.957 294.937 279.801 293.456 281.834 292.276C284.087 291.353 286.48 290.822 288.911 290.707L290.058 298.552C288.267 299.964 286.352 301.21 284.337 302.274C282.325 303.125 277.781 302.722 277.781 302.722L276.365 296.669Z" fill="#EBB376"/>
<path d="M230.577 278.811C230.577 278.811 240.829 293.591 244.718 296.146C248.606 298.702 276.365 296.669 276.365 296.669L277.781 302.722C277.781 302.722 249.277 307.952 243.287 304.739C237.297 301.526 222.293 284.878 222.293 284.878L230.577 278.811Z" fill="#EBB376"/>
<path opacity="0.2" d="M276.365 296.669C277.957 294.937 279.801 293.456 281.834 292.276C284.087 291.353 286.48 290.822 288.911 290.707L290.058 298.552C288.267 299.964 286.352 301.21 284.337 302.274C282.325 303.125 277.781 302.722 277.781 302.722L276.365 296.669Z" fill="#EBB376"/>
<path opacity="0.2" d="M230.577 278.811C230.577 278.811 240.829 293.591 244.718 296.146C248.606 298.702 276.365 296.669 276.365 296.669L277.781 302.722C277.781 302.722 249.277 307.952 243.287 304.739C237.297 301.526 222.293 284.878 222.293 284.878L230.577 278.811Z" fill="#EBB376"/>
<path d="M269.973 241.763C269.216 241.606 268.432 241.625 267.683 241.819C266.934 242.013 266.239 242.378 265.652 242.884" stroke="#263238" stroke-width="0.5" stroke-linecap="round" stroke-linejoin="round"/>
<path d="M267.604 248.01C268.26 249.525 269.096 250.955 270.093 252.269C269.775 252.648 269.359 252.93 268.891 253.086C268.423 253.242 267.921 253.264 267.44 253.151L267.604 248.01Z" fill="#D58745"/>
<path d="M269.481 245.47C269.481 246.277 268.975 246.889 268.438 246.86C267.902 246.83 267.514 246.157 267.559 245.365C267.604 244.573 268.081 243.871 268.602 243.975C269.124 244.08 269.526 244.678 269.481 245.47Z" fill="#263238"/>
<path d="M268.379 243.99L270.152 243.407C270.152 243.407 269.213 244.827 268.379 243.99Z" fill="#263238"/>
<path d="M245.746 260.384C245.833 260.481 245.928 260.571 246.029 260.653C247.379 262.006 248.978 263.082 250.738 263.822C255.893 265.794 259.678 265.57 262.345 263.478C266.174 260.31 267.888 254.003 268.484 246.187C268.832 243.084 268.681 239.946 268.037 236.891C268.044 236.847 268.044 236.801 268.037 236.757L267.947 236.413C267.513 234.692 266.658 233.108 265.458 231.803C264.259 230.498 262.753 229.514 261.078 228.941C259.634 228.397 258.135 228.011 256.608 227.79C241.544 225.519 235.391 250.147 245.746 260.384Z" fill="#EBB376"/>
<path opacity="0.2" d="M246.029 260.653C247.398 261.952 249.008 262.968 250.767 263.642C255.923 265.615 259.707 265.211 262.404 263.089C259.106 263.432 255.786 262.693 252.943 260.982C251.891 260.403 250.722 260.073 249.524 260.016C248.326 259.959 247.131 260.177 246.029 260.653Z" fill="black"/>
<path d="M251.214 222.993C251.214 222.993 261.644 221.827 266.665 226.654C272.521 232.303 274.309 237.564 265.563 244.124C265.563 244.124 249.396 236.278 243.6 236.652C240.222 236.871 236.868 237.371 233.572 238.146C233.915 226.774 245.895 219.914 251.214 222.993Z" fill="#263238"/>
<path d="M253.375 264.374C252.479 264.776 251.683 265.37 251.042 266.114C250.401 266.858 249.931 267.735 249.665 268.682C249.399 269.628 249.344 270.622 249.503 271.593C249.663 272.563 250.033 273.487 250.588 274.298L228.864 268.245C228.864 268.245 239.175 263.762 240.009 256.439C239.965 256.439 251.408 255.512 253.375 264.374Z" fill="#EBB376"/>
<path d="M253.374 225.518C253.374 225.518 250.827 208.362 237.655 208.765C224.483 209.169 222.919 222.948 231.174 228.866C239.428 234.784 252.391 235.546 253.374 225.518Z" fill="#263238"/>
<path d="M234.705 229.239C234.705 229.239 223.575 227.072 223.143 236.921C224.086 235.208 225.607 233.888 227.434 233.2C227.434 233.2 223.575 235.157 226.093 240.283C226.093 240.283 225.288 237.1 230.294 235.92C235.301 234.739 247.876 237.324 246.684 230.614C245.492 223.904 234.705 229.239 234.705 229.239Z" fill="#263238"/>
<path d="M251.408 225.1C251.408 225.1 252.391 204.999 235.882 205.986" stroke="#263238" stroke-width="0.5" stroke-linecap="round" stroke-linejoin="round"/>
<path d="M239.741 252.762C239.741 252.762 229.311 244.767 233.11 235.92" stroke="#263238" stroke-width="0.5" stroke-linecap="round" stroke-linejoin="round"/>
<path d="M233.558 229.09C233.558 229.09 223.515 227.043 221.354 233.753" stroke="#263238" stroke-width="0.5" stroke-linecap="round" stroke-linejoin="round"/>
<path d="M268.066 236.801C268.066 236.801 267.44 247.517 256.801 250.685C256.801 250.685 250.99 261.146 244.628 260.369C235.971 259.398 230.056 246.022 234.764 233.902C240.888 218.166 265.637 220.243 268.066 236.801Z" fill="#263238"/>
<path d="M262.285 248.339C262.509 246.68 261.57 243.721 258.947 243.751C256.325 243.781 253.881 250.117 260.199 252.493C261.093 252.822 261.823 251.791 262.285 248.339Z" fill="#EBB376"/>
<path d="M275.128 551.026L282.191 549.083C279.598 513.336 272.61 470.206 266.665 437.866C265.726 432.8 264.832 428.002 263.968 423.534C263.551 421.412 263.164 419.379 262.776 417.407C260.884 407.723 259.29 400.056 258.306 395.319L257.174 389.983L231.844 397.381L233.96 403.807L240.933 425.013L241.722 427.434L246.356 441.423L254.209 465.259C255.222 501.709 275.128 551.026 275.128 551.026Z" fill="#EBB376"/>
<path d="M213.488 549.292L220.789 548.59C224.603 509.824 224.752 461.553 224.231 428.017C224.156 422.817 224.052 417.96 223.962 413.566C223.962 413.342 223.962 413.133 223.962 412.908C223.754 404.181 223.53 397.246 223.367 392.853L223.158 387.518L196.859 390.506L198.483 401.476L200.882 417.601L201.359 420.754L202.998 431.738L207.468 461.209C202.253 497.285 213.488 549.292 213.488 549.292Z" fill="#EBB376"/>
<path opacity="0.2" d="M200.853 417.571L223.962 413.566C223.962 413.341 223.962 413.132 223.962 412.908C223.754 404.181 223.53 397.246 223.367 392.853L198.483 401.446L200.853 417.571Z" fill="black"/>
<path opacity="0.2" d="M260.855 407.722L236.538 411.862L233.886 403.792L258.307 395.333C258.933 398.337 259.812 402.551 260.855 407.722Z" fill="black"/>
<path d="M197.857 320.835C197.857 320.835 182.093 357.793 196.829 411.369L225.556 408.081V395.333L230.026 406.945L260.586 401.266C251.646 357.793 243.749 338.066 243.749 338.066L241.604 316.187L197.857 320.835Z" fill="#006AA6"/>
<path d="M210.031 547.798C210.031 546.871 221.325 547.603 221.325 547.603C221.325 547.603 228.253 554.672 234.988 556.256C241.723 557.84 237.968 561.905 230.429 561.905H211.819C206.514 561.905 209.807 557.287 210.031 547.798Z" fill="#D2D2D2"/>
<path d="M227.255 550.487C225.621 550.266 224.037 549.761 222.576 548.993H222.472C222.443 548.921 222.443 548.841 222.472 548.769C222.472 548.649 223.455 546.019 224.99 545.376C225.223 545.265 225.477 545.207 225.735 545.207C225.993 545.207 226.248 545.265 226.48 545.376C226.987 545.616 227.24 545.929 227.21 546.318C227.18 546.706 226.376 547.513 225.467 548.007C226.315 547.851 227.189 547.944 227.985 548.276C228.134 548.357 228.265 548.468 228.37 548.601C228.475 548.735 228.552 548.888 228.596 549.053C228.676 549.257 228.692 549.481 228.641 549.695C228.591 549.909 228.476 550.102 228.313 550.248C228.003 550.458 227.625 550.544 227.255 550.487ZM223.604 548.873C225.273 549.576 227.329 550.203 227.866 549.755C227.866 549.755 228.06 549.606 227.94 549.157C227.915 549.074 227.873 548.996 227.816 548.929C227.76 548.862 227.691 548.808 227.613 548.769C226.292 548.436 224.906 548.472 223.604 548.873ZM225.631 545.75C225.472 545.756 225.315 545.792 225.169 545.855C224.276 546.434 223.596 547.289 223.232 548.291C224.901 547.648 226.525 546.796 226.54 546.258C226.54 546.109 226.301 545.959 226.152 545.884C225.991 545.8 225.813 545.754 225.631 545.75Z" fill="white"/>
<path d="M273.117 547.798C273.117 546.871 284.397 547.603 284.397 547.603C284.397 547.603 291.34 554.672 298.075 556.256C304.81 557.84 301.055 561.905 293.515 561.905H274.89C269.556 561.905 272.894 557.287 273.117 547.798Z" fill="#D2D2D2"/>
<path d="M290.327 550.488C288.698 550.265 287.12 549.759 285.663 548.993C285.629 549 285.594 549 285.559 548.993C285.541 548.959 285.531 548.92 285.531 548.881C285.531 548.842 285.541 548.804 285.559 548.769C285.559 548.65 286.542 546.019 288.077 545.377C288.309 545.263 288.564 545.204 288.822 545.204C289.08 545.204 289.335 545.263 289.567 545.377C290.089 545.616 290.342 545.93 290.312 546.318C290.282 546.707 289.478 547.514 288.554 548.007C289.406 547.848 290.286 547.942 291.087 548.276C291.234 548.357 291.363 548.468 291.466 548.602C291.568 548.736 291.642 548.889 291.683 549.053C291.769 549.255 291.79 549.48 291.742 549.694C291.694 549.909 291.579 550.103 291.415 550.249C291.097 550.466 290.707 550.552 290.327 550.488ZM286.691 548.874C288.36 549.576 290.416 550.204 290.953 549.756C290.953 549.756 291.132 549.606 290.953 549.158C290.927 549.074 290.885 548.996 290.829 548.929C290.772 548.863 290.703 548.808 290.625 548.769C289.328 548.45 287.97 548.486 286.691 548.874ZM288.703 545.75C288.549 545.757 288.397 545.792 288.256 545.855C287.363 546.434 286.683 547.289 286.319 548.291C287.988 547.648 289.597 546.796 289.627 546.258C289.627 546.109 289.388 545.96 289.224 545.885C289.065 545.797 288.885 545.751 288.703 545.75Z" fill="white"/>
<path opacity="0.2" d="M225.557 395.318V402.865C195.533 390.282 202.968 360.199 202.968 360.199C204.905 371.751 218.077 376.025 218.077 376.025L225.557 395.318Z" fill="black"/>
<path d="M207.602 329.233L231.829 331.774V326.244L208.302 323.913C208.123 325.258 207.825 327.47 207.602 329.233Z" fill="#263238"/>
<path d="M233.722 326.439V331.968L243.749 333.015V327.425L233.722 326.439Z" fill="#263238"/>
<path d="M206.38 323.719L196.203 322.718L194.922 327.904L205.426 328.995L206.38 323.719Z" fill="#263238"/>
<path opacity="0.2" d="M210.642 341.578H223.143L224.469 354.071L217.555 359.466L210.642 355.177V341.578Z" fill="black"/>
<path opacity="0.2" d="M198.542 339.545L197.857 354.072L193.387 360.199C193.387 360.199 191.897 358.929 190.72 357.643C191.02 351.572 191.712 345.527 192.791 339.545H198.542Z" fill="black"/>
<path d="M309.503 316.889C311.426 315.546 313.541 314.503 315.776 313.796C318.177 313.383 320.631 313.383 323.032 313.796L322.451 321.701C320.4 322.69 318.266 323.495 316.074 324.108C313.928 324.496 309.578 323.121 309.578 323.121L309.503 316.889Z" fill="#EBB376"/>
<path d="M228 405.212C228 405.212 228.581 409.351 229.49 408.559C230.399 407.767 261.719 402.866 261.719 402.866V398.711L228 405.212Z" fill="#006AA6"/>
<path opacity="0.7" d="M228 405.212C228 405.212 228.581 409.351 229.49 408.559C230.399 407.767 261.719 402.866 261.719 402.866V398.711L228 405.212Z" fill="white"/>
<path d="M195.876 410.621C195.876 410.621 196.397 414.791 197.277 414.029C198.156 413.267 226.183 409.366 226.183 409.366V405.211L195.876 410.621Z" fill="#006AA6"/>
<path opacity="0.7" d="M195.876 410.621C195.876 410.621 196.397 414.791 197.277 414.029C198.156 413.267 226.183 409.366 226.183 409.366V405.211L195.876 410.621Z" fill="white"/>
<path d="M197.857 320.835L242.557 325.856L264.773 275.657C264.773 275.657 249.307 262.297 220.669 266.616C220.64 266.616 210.388 271.204 197.857 320.835Z" fill="#263238"/>
<path d="M268.647 289.541C268.647 289.541 275.471 306.189 278.704 309.537C281.938 312.884 309.503 316.89 309.503 316.89L309.577 323.121C309.577 323.121 280.627 322.045 275.471 317.607C270.316 313.168 259.245 293.696 259.245 293.696L268.647 289.541Z" fill="#EBB376"/>
<path d="M264.743 275.658C268.066 279.2 271.731 295.28 271.731 295.28H255.818L250.588 286.612C252.458 283.87 254.848 281.524 257.621 279.708C259.84 278.1 262.228 276.742 264.743 275.658Z" fill="#263238"/>
</g>
<defs>
<clipPath id="clip0_894_561">
<rect width="745" height="556.849" fill="white" transform="translate(0 21.0322)"/>
</clipPath>
</defs>
</svg>
