<svg width="745" height="655" viewBox="0 0 745 655" fill="none" xmlns="http://www.w3.org/2000/svg">
<g clip-path="url(#clip0_693_14906)">
<path d="M696.534 323.497C689.29 384.9 661.269 456.292 605.227 489.094C520.606 538.657 527.688 614.897 362.501 648.037C338.407 652.986 313.847 655.306 289.253 654.956C277.222 654.741 265.217 653.759 253.312 652.018C148.325 636.682 77.6772 563.733 51.7574 475.741C17.6532 359.854 85.7588 283.967 130.898 238.341C176.037 192.714 209.113 50.3122 371.244 16.5259C395.973 11.2203 421.232 8.78533 446.52 9.26916C504.208 10.7381 567.126 29.6144 610.664 69.1445C613.926 72.0824 617.105 75.1575 620.2 78.3696C680.724 140.492 706.438 239.78 696.534 323.497Z" fill="#ADC4D8"/>
<path opacity="0.7" d="M696.534 323.497C689.29 384.9 661.269 456.292 605.227 489.094C520.606 538.657 527.688 614.897 362.501 648.037C338.407 652.986 313.847 655.306 289.253 654.956C277.222 654.741 265.217 653.759 253.312 652.018C148.325 636.682 77.6772 563.733 51.7574 475.741C17.6532 359.854 85.7588 283.967 130.898 238.341C176.037 192.714 209.113 50.3122 371.244 16.5259C395.973 11.2203 421.232 8.78533 446.52 9.26916C504.208 10.7381 567.126 29.6144 610.664 69.1445C613.926 72.0824 617.105 75.1575 620.2 78.3696C680.724 140.492 706.438 239.78 696.534 323.497Z" fill="black"/>
<path d="M685.925 389.058H708.23" stroke="#062E4B" stroke-linecap="round" stroke-linejoin="round"/>
<path d="M37.6514 389.058H675.919" stroke="white" stroke-opacity="0.24" stroke-linecap="round" stroke-linejoin="round"/>
<path d="M651.659 217.055V205.553L640.639 203.981C639.64 198.457 637.488 193.206 634.321 188.571L641.021 179.64L632.881 171.502L623.976 178.2C619.359 175.009 614.123 172.822 608.607 171.781L607.02 160.734H595.529L593.942 171.752C588.416 172.746 583.163 174.899 578.528 178.068L569.595 171.37L561.469 179.508L568.14 188.41C564.939 193.021 562.751 198.258 561.719 203.775L550.654 205.362V216.849L561.675 218.436C562.681 223.959 564.839 229.21 568.008 233.845L561.307 242.776L569.433 250.9L578.337 244.231C582.953 247.426 588.19 249.613 593.707 250.65L595.294 261.697H606.799L608.371 250.694C613.897 249.691 619.15 247.533 623.785 244.363L632.719 251.061L640.859 242.923L634.174 234.11C637.379 229.495 639.568 224.253 640.595 218.729L651.659 217.055ZM601.157 239.089C595.635 239.089 590.237 237.452 585.646 234.386C581.055 231.319 577.477 226.96 575.364 221.86C573.251 216.76 572.698 211.148 573.775 205.734C574.852 200.32 577.511 195.347 581.416 191.443C585.32 187.54 590.295 184.882 595.71 183.805C601.126 182.728 606.739 183.28 611.841 185.393C616.942 187.505 621.302 191.083 624.37 195.673C627.438 200.263 629.075 205.659 629.075 211.179C629.071 218.579 626.128 225.674 620.893 230.905C615.657 236.136 608.559 239.075 601.157 239.075V239.089Z" stroke="white" stroke-miterlimit="10"/>
<path d="M683.545 285.671V277.445L675.67 276.314C674.947 272.366 673.405 268.613 671.144 265.296L675.934 258.906L670.056 253.03L663.694 257.805C660.39 255.517 656.64 253.955 652.689 253.221L651.557 245.318H643.343L642.212 253.192C638.258 253.899 634.501 255.441 631.192 257.716L624.8 252.928L618.922 258.804L623.698 265.179C621.407 268.475 619.844 272.221 619.113 276.167L611.193 277.298V285.524L619.084 286.641C619.789 290.591 621.327 294.347 623.595 297.658L618.805 304.048L624.682 309.924L631.059 305.15C634.359 307.438 638.104 309.005 642.05 309.747L643.182 317.651H651.395L652.527 309.777C656.477 309.057 660.231 307.515 663.547 305.252L669.939 310.041L675.816 304.165L671.041 297.805C673.325 294.503 674.892 290.76 675.64 286.817L683.545 285.671ZM647.487 301.404C643.543 301.404 639.688 300.235 636.409 298.044C633.13 295.854 630.574 292.741 629.065 289.098C627.556 285.456 627.161 281.448 627.931 277.581C628.7 273.714 630.599 270.162 633.388 267.374C636.176 264.587 639.729 262.688 643.597 261.919C647.465 261.15 651.474 261.544 655.117 263.053C658.761 264.562 661.875 267.117 664.066 270.395C666.257 273.673 667.426 277.527 667.426 281.47C667.428 284.088 666.914 286.681 665.912 289.1C664.911 291.52 663.442 293.718 661.591 295.57C659.739 297.421 657.54 298.889 655.12 299.89C652.7 300.891 650.106 301.406 647.487 301.404Z" stroke="white" stroke-miterlimit="10"/>
<path d="M102.187 280.001V290.504L112.237 291.973C113.157 297.012 115.124 301.801 118.012 306.031L111.899 314.184L119.246 321.529L127.372 315.433C131.585 318.354 136.366 320.357 141.404 321.308L142.874 331.4H153.365L154.834 321.353C159.875 320.436 164.666 318.469 168.896 315.58L177.051 321.69L184.398 314.346L178.315 306.222C181.235 302.009 183.237 297.23 184.192 292.193L194.272 290.724V280.236L184.222 278.767C183.318 273.724 181.349 268.932 178.447 264.709L184.56 256.556L177.213 249.211L169.087 255.293C164.879 252.371 160.103 250.369 155.069 249.417L153.6 239.34H143.109L141.639 249.388C136.596 250.294 131.802 252.262 127.577 255.161L119.422 249.05L112.075 256.468L118.173 264.591C115.251 268.798 113.248 273.573 112.296 278.605L102.187 280.001ZM148.266 259.92C153.297 259.917 158.216 261.405 162.402 264.196C166.587 266.986 169.851 270.955 171.782 275.599C173.712 280.244 174.223 285.356 173.248 290.29C172.274 295.225 169.859 299.76 166.307 303.322C162.756 306.885 158.228 309.315 153.296 310.306C148.364 311.298 143.248 310.805 138.596 308.891C133.943 306.977 129.963 303.727 127.157 299.553C124.351 295.378 122.846 290.466 122.831 285.436C122.82 282.09 123.469 278.774 124.742 275.678C126.015 272.583 127.887 269.769 130.25 267.399C132.613 265.028 135.421 263.148 138.512 261.864C141.604 260.581 144.919 259.92 148.266 259.92Z" stroke="white" stroke-miterlimit="10"/>
<path d="M76.2227 222.887V229.292L82.35 230.173C82.9101 233.244 84.1117 236.162 85.8765 238.737L82.1443 243.717L86.67 248.242L91.6365 244.525C94.2042 246.303 97.1182 247.52 100.188 248.095L101.07 254.25H107.476L108.343 248.124C111.42 247.567 114.345 246.366 116.924 244.599L121.906 248.33L126.431 243.805L122.714 238.855C124.492 236.282 125.709 233.364 126.284 230.291L132.441 229.409V223.019L126.314 222.138C125.751 219.063 124.55 216.141 122.787 213.559L126.519 208.594L121.994 204.07L117.042 207.771C114.472 205.997 111.559 204.781 108.49 204.202L107.609 198.047H101.217L100.335 204.187C97.2571 204.732 94.3313 205.93 91.754 207.698L86.7875 203.982L82.2472 208.506L85.9646 213.456C84.1861 216.023 82.9695 218.937 82.3941 222.006L76.2227 222.887ZM104.332 210.636C107.405 210.633 110.41 211.542 112.966 213.247C115.522 214.952 117.515 217.376 118.693 220.214C119.87 223.052 120.179 226.175 119.58 229.189C118.981 232.202 117.502 234.97 115.329 237.142C113.156 239.315 110.387 240.794 107.373 241.392C104.359 241.991 101.235 241.682 98.3962 240.505C95.5576 239.328 93.1321 237.336 91.4266 234.78C89.7211 232.225 88.8123 229.221 88.8152 226.148C88.8152 222.034 90.45 218.089 93.3599 215.179C96.2699 212.27 100.217 210.636 104.332 210.636Z" stroke="white" stroke-miterlimit="10"/>
<path d="M322.857 106.089V114.903L331.277 116.107C332.042 120.322 333.689 124.326 336.111 127.859L330.998 134.69L337.213 140.904L344.016 135.806C347.547 138.248 351.552 139.92 355.771 140.713L356.976 149.159H365.793L366.997 140.742C371.212 139.975 375.217 138.328 378.752 135.909L385.585 141.021L391.801 134.807L386.702 128.006C389.144 124.477 390.817 120.472 391.609 116.254L400.058 115.05V106.221L391.639 105.017C390.872 100.803 389.224 96.799 386.805 93.2649L391.918 86.4342L385.703 80.2205L378.899 85.3178C375.369 82.8759 371.364 81.2042 367.144 80.4114L365.94 71.9648H357.123L355.918 80.3821C351.708 81.1621 347.705 82.8078 344.163 85.215L337.331 80.103L331.115 86.3167L336.214 93.118C333.771 96.6476 332.099 100.652 331.306 104.87L322.857 106.089ZM361.458 89.2546C365.672 89.2547 369.792 90.5033 373.297 92.8428C376.802 95.1823 379.535 98.5078 381.15 102.399C382.765 106.29 383.191 110.573 382.373 114.706C381.555 118.839 379.53 122.637 376.555 125.62C373.579 128.604 369.785 130.638 365.653 131.467C361.521 132.297 357.236 131.883 353.34 130.279C349.443 128.674 346.109 125.951 343.759 122.454C341.409 118.957 340.149 114.841 340.137 110.628C340.13 107.824 340.675 105.046 341.743 102.453C342.811 99.8605 344.381 97.5038 346.361 95.5184C348.342 93.5329 350.695 91.9576 353.285 90.8827C355.876 89.8079 358.653 89.2546 361.458 89.2546Z" stroke="white" stroke-miterlimit="10"/>
<path d="M173.29 105.648H577.486C580.603 105.648 583.593 106.887 585.798 109.09C588.002 111.294 589.241 114.283 589.241 117.4V398.591H161.652V117.356C161.664 114.267 162.891 111.307 165.069 109.116C167.247 106.925 170.2 105.679 173.29 105.648Z" fill="black" stroke="#062E4B" stroke-linecap="round" stroke-linejoin="round"/>
<path d="M653.379 528.081H97.4404L161.579 398.591H589.226L653.379 528.081Z" fill="black" stroke="#062E4B" stroke-linecap="round" stroke-linejoin="round"/>
<path d="M563.32 128.844H187.483V375.396H563.32V128.844Z" fill="#272727"/>
<path d="M357.564 439.576L358.314 423.799H335.715L334.216 439.576H357.564Z" fill="#232323" stroke="#999B9B" stroke-linecap="round" stroke-linejoin="round"/>
<path d="M404.275 439.576L403.496 423.799H380.897L380.912 439.576H404.275Z" fill="#232323" stroke="#999B9B" stroke-linecap="round" stroke-linejoin="round"/>
<path d="M525.896 456.454H550.052L544.381 439.575H521.032L525.896 456.454Z" fill="#333E47" stroke="white" stroke-linecap="round" stroke-linejoin="round"/>
<path d="M334.216 439.576L335.714 423.799H313.115L310.867 439.576H334.216Z" fill="#232323" stroke="#999B9B" stroke-linecap="round" stroke-linejoin="round"/>
<path d="M287.519 439.576L290.517 423.799H267.918L264.156 439.576H287.519Z" fill="#333E47" stroke="white" stroke-linecap="round" stroke-linejoin="round"/>
<path d="M497.684 439.576L493.878 423.799H471.294L474.321 439.576H497.684Z" fill="#333E47" stroke="white" stroke-linecap="round" stroke-linejoin="round"/>
<path d="M521.032 439.576L516.477 423.799H493.878L497.684 439.576H521.032Z" fill="#333E47" stroke="white" stroke-linecap="round" stroke-linejoin="round"/>
<path d="M264.156 439.576L267.918 423.799H245.333L240.808 439.576H264.156Z" fill="#333E47" stroke="white" stroke-linecap="round" stroke-linejoin="round"/>
<path d="M427.624 439.576L426.096 423.799H403.497L404.276 439.576H427.624Z" fill="#232323" stroke="#999B9B" stroke-linecap="round" stroke-linejoin="round"/>
<path d="M544.38 439.576L539.076 423.799H516.477L521.032 439.576H544.38Z" fill="#333E47" stroke="white" stroke-linecap="round" stroke-linejoin="round"/>
<path d="M474.32 439.576L471.293 423.799H448.694L450.972 439.576H474.32Z" fill="#333E47" stroke="white" stroke-linecap="round" stroke-linejoin="round"/>
<path d="M450.972 439.576L448.695 423.799H426.096L427.624 439.576H450.972Z" fill="#232323" stroke="#999B9B" stroke-linecap="round" stroke-linejoin="round"/>
<path d="M380.913 439.576L380.898 423.799H358.314L357.564 439.576H380.913Z" fill="#232323" stroke="#999B9B" stroke-linecap="round" stroke-linejoin="round"/>
<path d="M217.459 439.575H194.111L187.66 456.454H211.817L217.459 439.575Z" fill="#333E47" stroke="white" stroke-linecap="round" stroke-linejoin="round"/>
<path d="M222.734 423.799H200.135L194.11 439.576H217.459L222.734 423.799Z" fill="#333E47" stroke="white" stroke-linecap="round" stroke-linejoin="round"/>
<path d="M240.807 439.576L245.333 423.799H222.734L217.459 439.576H240.807Z" fill="#333E47" stroke="white" stroke-linecap="round" stroke-linejoin="round"/>
<path d="M180.754 474.537L173.319 493.957H199.283L205.778 474.537H180.754Z" fill="#333E47" stroke="white" stroke-linecap="round" stroke-linejoin="round"/>
<path d="M211.817 456.454H187.66L180.754 474.537H205.777L211.817 456.454Z" fill="#333E47" stroke="white" stroke-linecap="round" stroke-linejoin="round"/>
<path d="M205.778 474.537L199.283 493.957H225.232L230.801 474.537H205.778Z" fill="#333E47" stroke="white" stroke-linecap="round" stroke-linejoin="round"/>
<path d="M310.867 439.576L313.115 423.799H290.516L287.519 439.576H310.867Z" fill="#232323" stroke="#999B9B" stroke-linecap="round" stroke-linejoin="round"/>
<path d="M308.457 456.454L310.867 439.575H287.519L284.301 456.454H308.457Z" fill="#232323" stroke="#999B9B" stroke-linecap="round" stroke-linejoin="round"/>
<path d="M284.301 456.454L287.519 439.575H264.156L260.13 456.454H284.301Z" fill="#333E47" stroke="white" stroke-linecap="round" stroke-linejoin="round"/>
<path d="M332.614 456.454L334.215 439.575H310.867L308.457 456.454H332.614Z" fill="#232323" stroke="#999B9B" stroke-linecap="round" stroke-linejoin="round"/>
<path d="M240.807 439.575H217.459L211.816 456.454H235.973L240.807 439.575Z" fill="#333E47" stroke="white" stroke-linecap="round" stroke-linejoin="round"/>
<path d="M531.097 474.537H556.121L550.052 456.454H525.896L531.097 474.537Z" fill="#333E47" stroke="white" stroke-linecap="round" stroke-linejoin="round"/>
<path d="M260.13 456.454L264.156 439.575H240.808L235.974 456.454H260.13Z" fill="#333E47" stroke="white" stroke-linecap="round" stroke-linejoin="round"/>
<path d="M211.816 456.454L205.777 474.537H230.801L235.973 456.454H211.816Z" fill="#333E47" stroke="white" stroke-linecap="round" stroke-linejoin="round"/>
<path d="M477.568 456.454L474.321 439.575H450.973L453.412 456.454H477.568Z" fill="#232323" stroke="#999B9B" stroke-linecap="round" stroke-linejoin="round"/>
<path d="M453.412 456.454L450.972 439.575H427.624L429.255 456.454H453.412Z" fill="#232323" stroke="#999B9B" stroke-linecap="round" stroke-linejoin="round"/>
<path d="M525.896 456.454L521.032 439.575H497.684L501.724 456.454H525.896Z" fill="#333E47" stroke="white" stroke-linecap="round" stroke-linejoin="round"/>
<path d="M380.927 456.454L380.912 439.575H357.564L356.771 456.454H380.927Z" fill="#232323" stroke="#999B9B" stroke-linecap="round" stroke-linejoin="round"/>
<path d="M429.255 456.454L427.624 439.575H404.275L405.098 456.454H429.255Z" fill="#232323" stroke="#999B9B" stroke-linecap="round" stroke-linejoin="round"/>
<path d="M405.098 456.454L404.275 439.575H380.912L380.927 456.454H405.098Z" fill="#232323" stroke="#999B9B" stroke-linecap="round" stroke-linejoin="round"/>
<path d="M356.771 456.454L357.564 439.575H334.216L332.614 456.454H356.771Z" fill="#232323" stroke="#999B9B" stroke-linecap="round" stroke-linejoin="round"/>
<path d="M429.255 456.454L431.003 474.537H456.027L453.411 456.454H429.255Z" fill="#232323" stroke="#999B9B" stroke-linecap="round" stroke-linejoin="round"/>
<path d="M453.411 456.454L456.027 474.537H481.05L477.568 456.454H453.411Z" fill="#232323" stroke="#999B9B" stroke-linecap="round" stroke-linejoin="round"/>
<path d="M235.973 456.454L230.801 474.537H255.824L260.13 456.454H235.973Z" fill="#333E47" stroke="white" stroke-linecap="round" stroke-linejoin="round"/>
<path d="M477.568 456.454L481.051 474.537H506.074L501.725 456.454H477.568Z" fill="#333E47" stroke="white" stroke-linecap="round" stroke-linejoin="round"/>
<path d="M380.927 456.454L380.956 474.537H405.98L405.098 456.454H380.927Z" fill="#232323" stroke="#999B9B" stroke-linecap="round" stroke-linejoin="round"/>
<path d="M501.725 456.454L506.074 474.537H531.097L525.896 456.454H501.725Z" fill="#333E47" stroke="white" stroke-linecap="round" stroke-linejoin="round"/>
<path d="M405.099 456.454L405.98 474.537H431.004L429.255 456.454H405.099Z" fill="#232323" stroke="#999B9B" stroke-linecap="round" stroke-linejoin="round"/>
<path d="M284.301 456.454L280.848 474.537H305.871L308.457 456.454H284.301Z" fill="#232323" stroke="#999B9B" stroke-linecap="round" stroke-linejoin="round"/>
<path d="M260.13 456.454L255.824 474.537H280.848L284.301 456.454H260.13Z" fill="#333E47" stroke="white" stroke-linecap="round" stroke-linejoin="round"/>
<path d="M356.77 456.454L355.918 474.537H380.956L380.927 456.454H356.77Z" fill="#232323" stroke="#999B9B" stroke-linecap="round" stroke-linejoin="round"/>
<path d="M332.614 456.454L330.895 474.537H355.918L356.77 456.454H332.614Z" fill="#232323" stroke="#999B9B" stroke-linecap="round" stroke-linejoin="round"/>
<path d="M308.457 456.454L305.871 474.537H330.895L332.614 456.454H308.457Z" fill="#232323" stroke="#999B9B" stroke-linecap="round" stroke-linejoin="round"/>
<path d="M501.724 456.454L497.683 439.575H474.32L477.568 456.454H501.724Z" fill="#333E47" stroke="white" stroke-linecap="round" stroke-linejoin="round"/>
<path d="M222.734 423.798L228.126 407.64H206.306L200.135 423.798H222.734Z" fill="#232323" stroke="#999B9B" stroke-linecap="round" stroke-linejoin="round"/>
<path d="M200.135 423.799H179.284L172.555 439.576H194.11L200.135 423.799Z" fill="#232323" stroke="#999B9B" stroke-linecap="round" stroke-linejoin="round"/>
<path d="M206.307 407.64H186.162L179.285 423.798H200.136L206.307 407.64Z" fill="#232323" stroke="#999B9B" stroke-linecap="round" stroke-linejoin="round"/>
<path d="M194.11 439.575H172.554L165.354 456.454H187.66L194.11 439.575Z" fill="#232323" stroke="#999B9B" stroke-linecap="round" stroke-linejoin="round"/>
<path d="M187.66 456.454H165.355L157.641 474.537H180.754L187.66 456.454Z" fill="#232323" stroke="#999B9B" stroke-linecap="round" stroke-linejoin="round"/>
<path d="M180.754 474.537H157.641L149.368 493.957H173.319L180.754 474.537Z" fill="#232323" stroke="#999B9B" stroke-linecap="round" stroke-linejoin="round"/>
<path d="M567.729 439.575L574.208 456.454H595.588L588.388 439.575H567.729Z" fill="#232323" stroke="#999B9B" stroke-linecap="round" stroke-linejoin="round"/>
<path d="M581.159 474.537H603.288L595.588 456.454H574.209L581.159 474.537Z" fill="#232323" stroke="#999B9B" stroke-linecap="round" stroke-linejoin="round"/>
<path d="M588.609 493.957H611.575L603.288 474.537H581.159L588.609 493.957Z" fill="#232323" stroke="#999B9B" stroke-linecap="round" stroke-linejoin="round"/>
<path d="M403.497 423.798L402.718 407.64H380.883L380.898 423.798H403.497Z" fill="#232323" stroke="#999B9B" stroke-linecap="round" stroke-linejoin="round"/>
<path d="M567.729 439.576H588.388L581.658 423.799H561.675L567.729 439.576Z" fill="#232323" stroke="#999B9B" stroke-linecap="round" stroke-linejoin="round"/>
<path d="M556.121 474.537H581.159L574.209 456.454H550.053L556.121 474.537Z" fill="#232323" stroke="#999B9B" stroke-linecap="round" stroke-linejoin="round"/>
<path d="M245.333 423.798L249.947 407.64H228.127L222.734 423.798H245.333Z" fill="#232323" stroke="#999B9B" stroke-linecap="round" stroke-linejoin="round"/>
<path d="M539.076 423.799L544.381 439.576H567.729L561.675 423.799H539.076Z" fill="#232323" stroke="#999B9B" stroke-linecap="round" stroke-linejoin="round"/>
<path d="M581.659 423.798L574.768 407.64H555.475L561.675 423.798H581.659Z" fill="#232323" stroke="#999B9B" stroke-linecap="round" stroke-linejoin="round"/>
<path d="M561.675 423.798L555.474 407.64H533.654L539.076 423.798H561.675Z" fill="#232323" stroke="#999B9B" stroke-linecap="round" stroke-linejoin="round"/>
<path d="M481.051 474.537L484.798 493.957H510.747L506.074 474.537H481.051Z" fill="#333E47" stroke="white" stroke-linecap="round" stroke-linejoin="round"/>
<path d="M562.66 493.957H588.609L581.159 474.537H556.121L562.66 493.957Z" fill="#232323" stroke="#999B9B" stroke-linecap="round" stroke-linejoin="round"/>
<path d="M539.076 423.798L533.654 407.64H511.819L516.477 423.798H539.076Z" fill="#333E47" stroke="white" stroke-linecap="round" stroke-linejoin="round"/>
<path d="M531.098 474.537L536.696 493.957H562.66L556.121 474.537H531.098Z" fill="#333E47" stroke="white" stroke-linecap="round" stroke-linejoin="round"/>
<path d="M506.074 474.537L510.747 493.957H536.696L531.098 474.537H506.074Z" fill="#333E47" stroke="white" stroke-linecap="round" stroke-linejoin="round"/>
<path d="M550.053 456.454H574.209L567.729 439.575H544.381L550.053 456.454Z" fill="#232323" stroke="#999B9B" stroke-linecap="round" stroke-linejoin="round"/>
<path d="M335.714 423.798L337.242 407.64H315.422L313.115 423.798H335.714Z" fill="#232323" stroke="#999B9B" stroke-linecap="round" stroke-linejoin="round"/>
<path d="M516.477 423.798L511.819 407.64H489.999L493.878 423.798H516.477Z" fill="#232323" stroke="#999B9B" stroke-linecap="round" stroke-linejoin="round"/>
<path d="M313.116 423.798L315.423 407.64H293.602L290.517 423.798H313.116Z" fill="#232323" stroke="#999B9B" stroke-linecap="round" stroke-linejoin="round"/>
<path d="M380.898 423.798L380.883 407.64H359.063L358.313 423.798H380.898Z" fill="#232323" stroke="#999B9B" stroke-linecap="round" stroke-linejoin="round"/>
<path d="M290.516 423.798L293.602 407.64H271.781L267.917 423.798H290.516Z" fill="#333E47" stroke="white" stroke-linecap="round" stroke-linejoin="round"/>
<path d="M267.917 423.798L271.782 407.64H249.947L245.333 423.798H267.917Z" fill="#333E47" stroke="white" stroke-linecap="round" stroke-linejoin="round"/>
<path d="M358.314 423.798L359.063 407.64H337.243L335.715 423.798H358.314Z" fill="#232323" stroke="#999B9B" stroke-linecap="round" stroke-linejoin="round"/>
<path d="M493.878 423.798L489.999 407.64H468.179L471.294 423.798H493.878Z" fill="#232323" stroke="#999B9B" stroke-linecap="round" stroke-linejoin="round"/>
<path d="M471.294 423.798L468.179 407.64H446.358L448.695 423.798H471.294Z" fill="#232323" stroke="#999B9B" stroke-linecap="round" stroke-linejoin="round"/>
<path d="M426.096 423.798L424.538 407.64H402.718L403.497 423.798H426.096Z" fill="#232323" stroke="#999B9B" stroke-linecap="round" stroke-linejoin="round"/>
<path d="M481.051 474.537H456.027H431.004H405.98H380.957H355.919H330.895H305.872H280.848H255.825H230.801L225.232 493.957H251.196H277.145H303.095H329.058H355.008H380.972H406.921H432.885H458.834H484.798L481.051 474.537Z" fill="#232323" stroke="#999B9B" stroke-linecap="round" stroke-linejoin="round"/>
<path d="M448.695 423.798L446.358 407.64H424.538L426.096 423.798H448.695Z" fill="#232323" stroke="#999B9B" stroke-linecap="round" stroke-linejoin="round"/>
<path d="M653.629 528.081H97.4404V535.969H653.629V528.081Z" fill="#222222" stroke="#062E4B" stroke-linecap="round" stroke-linejoin="round"/>
<path d="M211.714 148.292H235.944" stroke="#0084CE" stroke-width="3" stroke-linecap="round" stroke-linejoin="round"/>
<path d="M211.714 160.72H302.742" stroke="white" stroke-width="3" stroke-linecap="round" stroke-linejoin="round"/>
<path d="M352.51 160.72H443.538" stroke="white" stroke-width="3" stroke-linecap="round" stroke-linejoin="round"/>
<path d="M308.634 160.72H344.663" stroke="#0084CE" stroke-width="3" stroke-linecap="round" stroke-linejoin="round"/>
<path d="M211.714 173.162H264.112" stroke="#0084CE" stroke-width="3" stroke-linecap="round" stroke-linejoin="round"/>
<path d="M270.65 173.162H323.048" stroke="#0084CE" stroke-width="3" stroke-linecap="round" stroke-linejoin="round"/>
<path d="M329.587 173.162H381.985" stroke="#0084CE" stroke-width="3" stroke-linecap="round" stroke-linejoin="round"/>
<path d="M388.538 173.162H410.799" stroke="#0084CE" stroke-width="3" stroke-linecap="round" stroke-linejoin="round"/>
<path d="M242.497 148.292H266.727" stroke="#0084CE" stroke-width="3" stroke-linecap="round" stroke-linejoin="round"/>
<path d="M386.569 148.292H410.799" stroke="#0084CE" stroke-width="3" stroke-linecap="round" stroke-linejoin="round"/>
<path d="M354.479 148.292H378.709" stroke="white" stroke-width="3" stroke-linecap="round" stroke-linejoin="round"/>
<path d="M273.28 148.292H344.001" stroke="#0084CE" stroke-width="3" stroke-linecap="round" stroke-linejoin="round"/>
<path d="M211.714 224.238H235.944" stroke="#0084CE" stroke-width="3" stroke-linecap="round" stroke-linejoin="round"/>
<path d="M211.714 236.666H302.742" stroke="white" stroke-width="3" stroke-linecap="round" stroke-linejoin="round"/>
<path d="M352.51 236.666H443.538" stroke="#0084CE" stroke-width="3" stroke-linecap="round" stroke-linejoin="round"/>
<path d="M308.634 236.666H344.663" stroke="#0084CE" stroke-width="3" stroke-linecap="round" stroke-linejoin="round"/>
<path d="M211.714 249.108H264.112" stroke="#0084CE" stroke-width="3" stroke-linecap="round" stroke-linejoin="round"/>
<path d="M270.65 249.108H323.048" stroke="#0084CE" stroke-width="3" stroke-linecap="round" stroke-linejoin="round"/>
<path d="M329.587 249.108H381.985" stroke="white" stroke-width="3" stroke-linecap="round" stroke-linejoin="round"/>
<path d="M388.538 249.108H410.799" stroke="#0084CE" stroke-width="3" stroke-linecap="round" stroke-linejoin="round"/>
<path d="M242.497 224.238H266.727" stroke="#0084CE" stroke-width="3" stroke-linecap="round" stroke-linejoin="round"/>
<path d="M386.569 224.238H410.799" stroke="#062E4B" stroke-width="3" stroke-linecap="round" stroke-linejoin="round"/>
<path d="M354.479 224.238H378.709" stroke="white" stroke-width="3" stroke-linecap="round" stroke-linejoin="round"/>
<path d="M273.28 224.238H344.001" stroke="#0084CE" stroke-width="3" stroke-linecap="round" stroke-linejoin="round"/>
<path d="M211.714 336.188H235.944" stroke="#0084CE" stroke-width="3" stroke-linecap="round" stroke-linejoin="round"/>
<path d="M211.714 348.631H302.742" stroke="white" stroke-width="3" stroke-linecap="round" stroke-linejoin="round"/>
<path d="M352.51 348.631H443.538" stroke="#0084CE" stroke-width="3" stroke-linecap="round" stroke-linejoin="round"/>
<path d="M308.634 348.631H344.663" stroke="#0084CE" stroke-width="3" stroke-linecap="round" stroke-linejoin="round"/>
<path d="M211.714 361.059H264.112" stroke="#0084CE" stroke-width="3" stroke-linecap="round" stroke-linejoin="round"/>
<path d="M270.65 361.059H323.048" stroke="#0084CE" stroke-width="3" stroke-linecap="round" stroke-linejoin="round"/>
<path d="M329.587 361.059H381.985" stroke="white" stroke-width="3" stroke-linecap="round" stroke-linejoin="round"/>
<path d="M388.538 361.059H410.799" stroke="#0084CE" stroke-width="3" stroke-linecap="round" stroke-linejoin="round"/>
<path d="M242.497 336.188H266.727" stroke="#0084CE" stroke-width="3" stroke-linecap="round" stroke-linejoin="round"/>
<path d="M386.569 336.188H410.799" stroke="#062E4B" stroke-width="3" stroke-linecap="round" stroke-linejoin="round"/>
<path d="M354.479 336.188H378.709" stroke="white" stroke-width="3" stroke-linecap="round" stroke-linejoin="round"/>
<path d="M273.28 336.188H344.001" stroke="#0084CE" stroke-width="3" stroke-linecap="round" stroke-linejoin="round"/>
<path d="M347.925 186.266H372.155" stroke="#062E4B" stroke-width="3" stroke-linecap="round" stroke-linejoin="round"/>
<path d="M315.834 186.266H340.079" stroke="#0084CE" stroke-width="3" stroke-linecap="round" stroke-linejoin="round"/>
<path d="M234.636 186.266H305.357" stroke="#0084CE" stroke-width="3" stroke-linecap="round" stroke-linejoin="round"/>
<path d="M347.925 208.521H372.155" stroke="#0084CE" stroke-width="3" stroke-linecap="round" stroke-linejoin="round"/>
<path d="M315.834 208.521H340.079" stroke="#0084CE" stroke-width="3" stroke-linecap="round" stroke-linejoin="round"/>
<path d="M234.636 208.521H305.357" stroke="white" stroke-width="3" stroke-linecap="round" stroke-linejoin="round"/>
<path d="M258.866 197.386H234.636" stroke="#0084CE" stroke-width="3" stroke-linecap="round" stroke-linejoin="round"/>
<path d="M290.958 197.386H266.728" stroke="#0084CE" stroke-width="3" stroke-linecap="round" stroke-linejoin="round"/>
<path d="M372.155 197.386H301.434" stroke="white" stroke-width="3" stroke-linecap="round" stroke-linejoin="round"/>
<path d="M347.925 264.165H372.155" stroke="#0084CE" stroke-width="3" stroke-linecap="round" stroke-linejoin="round"/>
<path d="M315.834 264.165H340.079" stroke="#0084CE" stroke-width="3" stroke-linecap="round" stroke-linejoin="round"/>
<path d="M234.636 264.165H305.357" stroke="#0084CE" stroke-width="3" stroke-linecap="round" stroke-linejoin="round"/>
<path d="M347.925 286.435H372.155" stroke="#0084CE" stroke-width="3" stroke-linecap="round" stroke-linejoin="round"/>
<path d="M315.834 286.435H340.079" stroke="#0084CE" stroke-width="3" stroke-linecap="round" stroke-linejoin="round"/>
<path d="M234.636 286.435H305.357" stroke="white" stroke-width="3" stroke-linecap="round" stroke-linejoin="round"/>
<path d="M258.866 275.3H234.636" stroke="#0084CE" stroke-width="3" stroke-linecap="round" stroke-linejoin="round"/>
<path d="M290.958 275.3H266.728" stroke="#0084CE" stroke-width="3" stroke-linecap="round" stroke-linejoin="round"/>
<path d="M372.155 275.3H301.434" stroke="white" stroke-width="3" stroke-linecap="round" stroke-linejoin="round"/>
<path d="M258.866 299.523H234.636" stroke="#0084CE" stroke-width="3" stroke-linecap="round" stroke-linejoin="round"/>
<path d="M290.958 299.523H266.728" stroke="#0084CE" stroke-width="3" stroke-linecap="round" stroke-linejoin="round"/>
<path d="M372.155 299.523H301.434" stroke="white" stroke-width="3" stroke-linecap="round" stroke-linejoin="round"/>
<path d="M258.866 321.778H234.636" stroke="#0084CE" stroke-width="3" stroke-linecap="round" stroke-linejoin="round"/>
<path d="M290.958 321.778H266.728" stroke="#0084CE" stroke-width="3" stroke-linecap="round" stroke-linejoin="round"/>
<path d="M372.155 321.778H301.434" stroke="white" stroke-width="3" stroke-linecap="round" stroke-linejoin="round"/>
<path d="M347.925 310.658H372.155" stroke="#0084CE" stroke-width="3" stroke-linecap="round" stroke-linejoin="round"/>
<path d="M315.834 310.658H340.079" stroke="#0084CE" stroke-width="3" stroke-linecap="round" stroke-linejoin="round"/>
<path d="M234.636 310.658H305.357" stroke="white" stroke-width="3" stroke-linecap="round" stroke-linejoin="round"/>
<path d="M202.736 143.959H194.992V151.598H202.736V143.959Z" fill="#035989"/>
<path d="M202.736 156.519H194.992V164.157H202.736V156.519Z" fill="#035989"/>
<path d="M202.736 169.063H194.992V176.702H202.736V169.063Z" fill="#035989"/>
<path d="M202.736 181.608H194.992V189.247H202.736V181.608Z" fill="#035989"/>
<path d="M202.736 194.169H194.992V201.808H202.736V194.169Z" fill="#035989"/>
<path d="M202.736 206.714H194.992V214.353H202.736V206.714Z" fill="#035989"/>
<path d="M202.736 219.259H194.992V226.897H202.736V219.259Z" fill="#035989"/>
<path d="M202.736 231.818H194.992V239.457H202.736V231.818Z" fill="#035989"/>
<path d="M202.736 244.363H194.992V252.002H202.736V244.363Z" fill="#035989"/>
<path d="M202.736 256.908H194.992V264.547H202.736V256.908Z" fill="#035989"/>
<path d="M202.736 269.468H194.992V277.106H202.736V269.468Z" fill="#035989"/>
<path d="M202.736 282.013H194.992V289.651H202.736V282.013Z" fill="#035989"/>
<path d="M202.736 294.558H194.992V302.196H202.736V294.558Z" fill="#035989"/>
<path d="M202.736 307.118H194.992V314.757H202.736V307.118Z" fill="#035989"/>
<path d="M202.736 319.663H194.992V327.302H202.736V319.663Z" fill="#035989"/>
<path d="M202.736 332.208H194.992V339.847H202.736V332.208Z" fill="#035989"/>
<path d="M202.736 344.768H194.992V352.406H202.736V344.768Z" fill="#035989"/>
<path d="M202.736 357.312H194.992V364.951H202.736V357.312Z" fill="#035989"/>
<path d="M562.865 6.72754C546.083 6.72281 529.684 11.7424 515.782 21.1395C501.879 30.5366 491.11 43.8805 484.862 59.4517C478.614 75.0229 477.174 92.1079 480.727 108.505C484.279 124.902 492.662 139.86 504.795 151.451L492.834 173.794L522.222 164.289C533.445 170.503 545.942 174.065 558.755 174.703C571.569 175.341 584.358 173.039 596.144 167.972C607.929 162.905 618.398 155.208 626.748 145.47C635.098 135.733 641.107 124.214 644.315 111.796C647.524 99.378 647.846 86.3905 645.258 73.8286C642.669 61.2668 637.239 49.464 629.382 39.3248C621.525 29.1855 611.451 20.9789 599.932 15.3337C588.412 9.68858 575.753 6.7547 562.924 6.75692L562.865 6.72754Z" fill="#062E4B" stroke="#062E4B" stroke-linecap="round" stroke-linejoin="round"/>
<path d="M558.868 0.734375C542.089 0.732717 525.694 5.75345 511.795 15.1498C497.896 24.5462 487.129 37.8877 480.882 53.4558C474.635 69.0239 473.193 86.1054 476.743 102.5C480.292 118.894 488.671 133.851 500.798 145.443L488.794 167.757L518.181 158.252C529.402 164.46 541.896 168.017 554.704 168.652C567.513 169.287 580.297 166.983 592.078 161.916C603.858 156.849 614.323 149.154 622.669 139.42C631.015 129.685 637.022 118.17 640.23 105.757C643.437 93.3435 643.76 80.3607 641.174 67.8032C638.588 55.2456 633.161 43.4464 625.309 33.3093C617.457 23.1722 607.389 14.9662 595.875 9.31993C584.361 3.67362 571.707 0.736786 558.883 0.734375H558.868Z" fill="white" stroke="#062E4B" stroke-linecap="round" stroke-linejoin="round"/>
<path d="M530.73 119.442L498.403 96.6438V84.4954L530.73 61.4619V73.6544L507.587 90.4741L530.73 107.294V119.442Z" fill="#ADC4D8"/>
<path d="M540.545 123.438L565.201 32.0088H575.692L550.963 123.438H540.545Z" fill="#ADC4D8"/>
<path d="M585.493 119.442V107.294L608.753 90.3566L585.493 73.6544V61.4619L617.819 84.3779V96.4528L585.493 119.442Z" fill="#ADC4D8"/>
<path d="M534.727 114.375L502.4 91.5762V79.4866L534.727 56.4678V68.6602L511.584 85.48L534.727 102.3V114.375Z" fill="#0084CE"/>
<path d="M544.63 118.429L569.242 27H579.748L554.916 118.429H544.63Z" fill="#0084CE"/>
<path d="M589.49 114.375V102.3L612.75 85.3625L589.49 68.6602V56.4678L621.816 79.3837V91.5321L589.49 114.375Z" fill="#0084CE"/>
<path d="M494.979 536.836L545.864 578.834C548.404 584.936 551.771 590.659 555.871 595.845C562.865 604.835 644.9 638.841 644.9 638.841L658.918 642.852L505.838 527.816L494.979 536.836Z" fill="black" stroke="black" stroke-linecap="round" stroke-linejoin="round"/>
<path d="M594.075 503.475C594.075 503.475 580.424 486.803 574.356 476.182C568.287 465.561 559.662 440.809 553.123 426.149C546.584 411.488 536.96 406.935 525.308 402.381C513.656 397.827 509.145 398.855 509.145 401.881C509.145 404.907 513.7 410.475 513.7 410.475L493.981 414.015C493.981 414.015 485.899 409.461 480.756 410.974C475.614 412.487 466.063 422.094 466.063 422.094C466.063 422.094 455.939 418.569 449.9 420.082C443.86 421.595 427.139 429.689 420.056 433.215C412.974 436.74 405.363 437.269 405.906 440.295C406.45 443.321 413.488 448.389 420.056 447.375C426.625 446.362 437.762 442.322 444.83 442.322C451.898 442.322 455.454 443.791 458.995 446.362C462.536 448.933 477.2 469.616 479.214 472.142C481.227 474.669 483.269 484.775 483.269 484.775C478.055 482.522 473.179 479.556 468.781 475.962C463.227 470.908 455.263 459.054 446.167 458.04C437.072 457.027 427.139 465.106 432.193 469.146C437.248 473.185 442.303 475.727 445.844 480.266C449.385 484.805 454.998 498.437 464.637 513.127C474.276 527.816 494.98 536.88 494.98 536.88L537.959 554.581C537.959 554.581 549.082 528.286 569.801 521.221C590.519 514.155 596.602 511.099 596.602 511.099L594.075 503.475Z" fill="#FFA8A7" stroke="#333E47" stroke-linecap="round" stroke-linejoin="round"/>
<path d="M405.994 440.295C405.994 440.295 410.916 439.047 412.342 438.562C413.458 438.1 414.494 437.466 415.413 436.682" stroke="#333E47" stroke-linecap="round" stroke-linejoin="round"/>
<path d="M466.165 422.05C466.165 422.05 489.455 435.08 496.023 438.62C498.727 440.089 505.118 443.027 507.102 449.696C508.399 454.25 510.825 458.403 514.155 461.771" stroke="#333E47" stroke-linecap="round" stroke-linejoin="round"/>
<path d="M493.966 414.015C493.966 414.015 516.726 431.642 518.24 432.215C519.753 432.788 525.308 433.214 527.85 437.768C530.392 442.322 532.904 447.375 532.904 447.375" stroke="#333E47" stroke-linecap="round" stroke-linejoin="round"/>
<path d="M513.685 410.474C513.685 410.474 521.781 409.005 524.808 415.028C527.835 421.051 540.971 435.741 540.971 435.741" stroke="#333E47" stroke-linecap="round" stroke-linejoin="round"/>
<path d="M441.392 475.683C441.392 475.683 447.446 472.642 444.419 468.103C441.392 463.564 435.323 463.549 435.323 463.549" stroke="#333E47" stroke-linecap="round" stroke-linejoin="round"/>
<path d="M593.119 496.968C593.119 496.968 565.818 504.048 548.627 523.247C531.435 542.447 531.405 558.576 532.875 561.103C534.344 563.629 567.244 581.316 567.244 581.316C567.244 581.316 587.477 542.403 601.627 532.84C615.777 523.277 625.901 520.706 625.901 520.706C625.901 520.706 600.613 504.547 599.614 502.506C598.615 500.464 596.602 495.396 593.119 496.968Z" fill="#32BDFE" stroke="#062E4B" stroke-linecap="round" stroke-linejoin="round"/>
<path d="M669.91 649.05C669.91 649.05 642.109 634.904 635.541 631.422L583.966 603.615C581.029 602.823 578.155 601.811 575.37 600.589C572.343 599.12 567.788 599.575 565.76 588.954C563.733 578.334 568.802 557.122 591.548 535.88C614.294 514.639 628.459 515.667 628.459 515.667C628.459 515.667 638.068 514.654 640.596 516.681C643.123 518.708 643.622 524.76 646.15 525.774C648.677 526.788 718.634 547.809 718.634 547.809" fill="#32BDFE"/>
<path d="M669.91 649.05C669.91 649.05 642.109 634.904 635.541 631.422L583.966 603.615C581.029 602.823 578.155 601.811 575.37 600.589C572.343 599.12 567.788 599.575 565.76 588.954C563.733 578.334 568.802 557.122 591.548 535.88C614.294 514.639 628.459 515.667 628.459 515.667C628.459 515.667 638.068 514.654 640.596 516.681C643.123 518.708 643.622 524.76 646.15 525.774C648.677 526.788 718.634 547.809 718.634 547.809" stroke="#062E4B" stroke-linecap="round" stroke-linejoin="round"/>
<path d="M590.533 571.21C590.533 571.21 587.507 586.37 594.589 599.018" stroke="#062E4B" stroke-linecap="round" stroke-linejoin="round"/>
<path d="M597.616 590.982C597.616 590.982 594.589 591.996 602.67 605.143" stroke="#062E4B" stroke-linecap="round" stroke-linejoin="round"/>
<path d="M286.02 492.237C286.02 492.237 252.709 531.9 242.702 539.832C236.705 544.616 230.359 548.947 223.718 552.788L187.704 588.793C187.704 588.793 188.703 593.787 178.696 599.795C168.69 605.804 148.677 612.796 143.681 614.794C138.685 616.791 83.6572 641.793 83.6572 641.793L286.02 492.237Z" fill="black" fill-opacity="0.4" stroke="black" stroke-opacity="0.4" stroke-linecap="round" stroke-linejoin="round"/>
<path d="M334.406 431.628C330.894 432.686 318.243 431.981 318.243 431.981C318.243 431.981 310.529 426.031 306.679 422.535C302.829 419.039 293.014 398.356 288.106 397.313C283.198 396.27 262.539 408.168 262.539 408.168C262.539 408.168 245.715 400.824 241.512 401.514C237.31 402.204 223.644 414.47 223.644 414.47C223.644 414.47 204.719 411.665 201.222 417.276C197.725 422.888 192.112 440.78 186.528 451.944C180.944 463.108 160.608 492.928 160.608 492.928L157.802 496.792C157.802 496.792 162.004 498.187 174.979 504.842C187.953 511.496 208.613 543.035 208.613 543.035C208.613 543.035 237.339 529.726 253.458 522.366C269.577 515.007 282.537 498.863 286.034 492.252C289.531 485.642 295.497 479.281 302.859 473.332C310.22 467.383 323.871 464.93 327.03 460.728C330.189 456.527 324.929 450.211 324.929 450.211C326.869 449.161 328.744 447.993 330.542 446.714C332.29 445.245 339.358 441.455 339.99 437.254C340.621 433.053 337.903 430.585 334.406 431.628ZM280.451 465.267L287.107 444.952C289.913 447.052 302.168 451.606 302.168 451.606C294.116 453.707 280.451 465.267 280.451 465.267Z" fill="#FFA8A7" stroke="#333E47" stroke-linecap="round" stroke-linejoin="round"/>
<path d="M210.376 437.592C210.376 437.592 209.318 431.628 210.024 429.528C210.729 427.427 223.689 414.471 223.689 414.471" stroke="#333E47" stroke-linecap="round" stroke-linejoin="round"/>
<path d="M221.588 444.599L224.394 435.491L262.583 408.168" stroke="#333E47" stroke-linecap="round" stroke-linejoin="round"/>
<path d="M240.469 451.254C240.469 451.254 241.938 442.44 243.613 441.088C245.288 439.737 258.674 436.535 258.674 436.535C258.674 436.535 278.996 419.024 282.508 419.024C286.019 419.024 311.587 432.686 318.243 431.981" stroke="#333E47" stroke-linecap="round" stroke-linejoin="round"/>
<path d="M329.498 433.391C329.498 433.391 324.928 433.391 327.382 436.196C329.836 439.002 335.097 437.665 337.55 436.901" stroke="#333E47" stroke-linecap="round" stroke-linejoin="round"/>
<path d="M302.183 451.606C302.183 451.606 314.805 444.261 324.958 450.137" stroke="#333E47" stroke-linecap="round" stroke-linejoin="round"/>
<path d="M321.784 452.296L314.79 454.749C316.06 457.224 317.112 459.804 317.934 462.461L318.287 464.562" stroke="#333E47" stroke-linecap="round" stroke-linejoin="round"/>
<path d="M280.451 465.268L274.147 479.267" stroke="#333E47" stroke-linecap="round" stroke-linejoin="round"/>
<path d="M114.103 519.546C114.103 519.546 136.143 505.194 144.225 499.23C152.306 493.266 156.494 494.338 160.696 492.928C164.899 491.518 185.926 497.834 199.943 515.344C213.961 532.854 212.551 545.825 210.802 549.322C209.054 552.818 164.899 579.45 164.899 579.45C164.899 579.45 158.595 554.228 140.022 539.171C121.449 524.114 114.103 519.546 114.103 519.546Z" fill="#32BDFE" stroke="#333E47" stroke-linecap="round" stroke-linejoin="round"/>
<path d="M25.7344 561.456C25.7344 561.456 66.6271 536.484 73.4303 532.37C80.2335 528.257 88.1241 522.69 88.1241 522.69C88.1241 522.69 90.2841 511.864 100.687 511.496C111.09 511.129 121.126 515.228 134.762 522.69C148.398 530.152 165.252 557.358 167.088 568.228C168.925 579.098 172.466 582.389 169.586 589.484C166.706 596.579 155.936 596.858 153.776 596.858C151.616 596.858 146.605 601.339 146.605 601.339L69.8451 651.284" fill="#32BDFE"/>
<path d="M25.7344 561.456C25.7344 561.456 66.6271 536.484 73.4303 532.37C80.2335 528.257 88.1241 522.69 88.1241 522.69C88.1241 522.69 90.2841 511.864 100.687 511.496C111.09 511.129 121.126 515.228 134.762 522.69C148.398 530.152 165.252 557.358 167.088 568.228C168.925 579.098 172.466 582.389 169.586 589.484C166.706 596.579 155.936 596.858 153.776 596.858C151.616 596.858 146.605 601.339 146.605 601.339L69.8451 651.284" stroke="#062E4B" stroke-linecap="round" stroke-linejoin="round"/>
<path d="M152.615 577.894C152.615 577.894 155.819 580.273 149.397 590.277" stroke="#062E4B" stroke-linecap="round" stroke-linejoin="round"/>
<path d="M148.03 582.653C148.03 582.653 147.56 593.142 137.936 602.675" stroke="#062E4B" stroke-linecap="round" stroke-linejoin="round"/>
</g>
<defs>
<clipPath id="clip0_693_14906">
<rect width="694.383" height="655" fill="white" transform="translate(25)"/>
</clipPath>
</defs>
</svg>
