<svg width="28" height="28" viewBox="0 0 28 28" fill="none" xmlns="http://www.w3.org/2000/svg">
<path d="M19.8333 24.5V22.1667C19.8333 20.929 19.3417 19.742 18.4665 18.8668C17.5913 17.9917 16.4043 17.5 15.1667 17.5H5.83332C4.59565 17.5 3.40866 17.9917 2.53349 18.8668C1.65832 19.742 1.16666 20.929 1.16666 22.1667V24.5M26.8333 24.5V22.1667C26.8326 21.1327 26.4884 20.1282 25.8549 19.311C25.2214 18.4938 24.3345 17.9102 23.3333 17.6517M18.6667 3.65167C19.6705 3.90868 20.5602 4.49248 21.1956 5.31103C21.8309 6.12957 22.1758 7.1363 22.1758 8.1725C22.1758 9.2087 21.8309 10.2154 21.1956 11.034C20.5602 11.8525 19.6705 12.4363 18.6667 12.6933M15.1667 8.16667C15.1667 10.744 13.0773 12.8333 10.5 12.8333C7.92266 12.8333 5.83332 10.744 5.83332 8.16667C5.83332 5.58934 7.92266 3.5 10.5 3.5C13.0773 3.5 15.1667 5.58934 15.1667 8.16667Z" stroke="white" stroke-width="2" stroke-linecap="round" stroke-linejoin="round"/>
</svg>
