<svg width="745" height="655" viewBox="0 0 745 655" fill="none" xmlns="http://www.w3.org/2000/svg">
<path d="M585.204 331.551C673.457 331.551 745 269.643 745 193.275C745 116.908 673.457 55 585.204 55C496.951 55 425.408 116.908 425.408 193.275C425.408 269.643 496.951 331.551 585.204 331.551Z" fill="white" fill-opacity="0.06"/>
<path d="M239.532 541.93C276.006 510.368 276.006 459.196 239.532 427.635C203.058 396.073 143.922 396.073 107.448 427.635C70.9742 459.196 70.9742 510.368 107.448 541.93C143.922 573.492 203.058 573.492 239.532 541.93Z" fill="white" fill-opacity="0.13"/>
<path d="M172.234 101.097C155.345 101.097 138.835 105.431 124.793 113.55C110.751 121.669 99.8058 133.209 93.3428 146.711C86.8798 160.213 85.1887 175.07 88.4836 189.403C91.7784 203.737 99.9111 216.903 111.853 227.237C123.795 237.57 139.01 244.608 155.575 247.459C172.139 250.31 189.308 248.847 204.911 243.254C220.514 237.662 233.851 228.191 243.233 216.039C252.616 203.888 257.624 189.602 257.624 174.988C257.624 155.391 248.628 136.596 232.614 122.739C216.6 108.882 194.881 101.097 172.234 101.097ZM172.234 222.213C161.435 222.213 150.879 219.442 141.901 214.25C132.923 209.059 125.925 201.68 121.794 193.047C117.662 184.413 116.582 174.914 118.69 165.75C120.798 156.585 126 148.168 133.637 141.562C141.274 134.955 151.003 130.457 161.594 128.636C172.186 126.815 183.163 127.753 193.139 131.331C203.114 134.909 211.639 140.967 217.635 148.738C223.632 156.509 226.831 165.644 226.827 174.988C226.822 187.514 221.068 199.526 210.83 208.382C200.593 217.238 186.709 222.213 172.234 222.213Z" fill="white" fill-opacity="0.13"/>
<path d="M494.824 573.476C494.824 575.724 493.792 577.88 491.955 579.469C490.118 581.058 487.627 581.951 485.03 581.951H237.274C234.676 581.951 232.185 581.058 230.348 579.469C228.511 577.88 227.479 575.724 227.479 573.476C227.479 571.229 228.511 569.073 230.348 567.483C232.185 565.894 234.676 565.001 237.274 565.001H325.215L337.355 545.667H384.948L397.069 565.001H485.03C487.627 565.001 490.118 565.894 491.955 567.483C493.792 569.073 494.824 571.229 494.824 573.476Z" fill="white"/>
<path d="M379.399 528.056H338.808V538.351H379.399V528.056Z" fill="white"/>
<path d="M379.399 511.105H338.808V521.401H379.399V511.105Z" fill="white"/>
<path d="M682.307 476.255C668.59 480.802 653.474 481.086 639.542 477.059C625.61 473.033 613.726 464.945 605.92 454.178C598.114 443.41 594.871 430.632 596.745 418.025C598.618 405.418 605.492 393.766 616.192 385.058C626.893 376.35 640.755 371.127 655.411 370.282C670.067 369.437 684.608 373.021 696.549 380.424C708.49 387.826 717.09 398.586 720.881 410.866C724.671 423.146 723.416 436.184 717.331 447.752" stroke="white" stroke-width="1.13" stroke-linecap="round" stroke-linejoin="round"/>
<path d="M503.072 167.077H492.925C490.852 159.403 487.349 152.073 482.553 145.373L489.703 139.17C491.181 137.887 492.011 136.149 492.011 134.337C492.011 132.524 491.181 130.786 489.703 129.503L473.783 115.727C472.298 114.452 470.29 113.736 468.197 113.736C466.105 113.736 464.097 114.452 462.611 115.727L455.443 121.93C447.697 117.798 439.226 114.783 430.362 113.004V104.158C430.362 102.342 429.528 100.6 428.044 99.3162C426.56 98.032 424.547 97.3105 422.448 97.3105H399.937C397.838 97.3105 395.825 98.032 394.341 99.3162C392.857 100.6 392.023 102.342 392.023 104.158V113.004C383.154 114.801 374.682 117.838 366.942 121.995L359.774 115.791C358.286 114.52 356.279 113.807 354.188 113.807C352.097 113.807 350.09 114.52 348.602 115.791L332.682 129.567C331.204 130.851 330.374 132.589 330.374 134.401C330.374 136.213 331.204 137.951 332.682 139.235L339.851 145.438C335.042 152.133 331.532 159.465 329.461 167.141H319.331C317.233 167.141 315.22 167.863 313.736 169.147C312.252 170.431 311.418 172.173 311.418 173.989V193.404C311.418 195.22 312.252 196.962 313.736 198.246C315.22 199.53 317.233 200.252 319.331 200.252H329.461C331.532 207.928 335.042 215.26 339.851 221.955L332.682 228.158C331.204 229.442 330.374 231.18 330.374 232.992C330.374 234.804 331.204 236.542 332.682 237.826L348.602 251.585C350.085 252.864 352.094 253.583 354.188 253.583C356.282 253.583 358.291 252.864 359.774 251.585L366.942 245.398C374.682 249.555 383.154 252.592 392.023 254.389V263.154C392.023 264.97 392.857 266.712 394.341 267.996C395.825 269.28 397.838 270.002 399.937 270.002H422.448C424.546 269.997 426.556 269.275 428.039 267.991C429.522 266.708 430.357 264.969 430.362 263.154V254.389C439.23 252.59 447.702 249.553 455.443 245.398L462.611 251.585C463.345 252.221 464.215 252.725 465.174 253.068C466.132 253.412 467.16 253.589 468.197 253.589C469.235 253.589 470.262 253.412 471.221 253.068C472.179 252.725 473.05 252.221 473.783 251.585L489.703 237.826C491.181 236.542 492.011 234.804 492.011 232.992C492.011 231.18 491.181 229.442 489.703 228.158L482.553 221.955C487.349 215.256 490.852 207.925 492.925 200.252H503.072C504.112 200.252 505.141 200.075 506.101 199.73C507.061 199.386 507.933 198.882 508.668 198.246C509.403 197.61 509.986 196.855 510.383 196.025C510.781 195.194 510.986 194.303 510.986 193.404V173.924C510.986 173.025 510.781 172.135 510.383 171.304C509.986 170.473 509.403 169.718 508.668 169.082C507.933 168.446 507.061 167.942 506.101 167.598C505.141 167.254 504.112 167.077 503.072 167.077ZM411.183 218.41C403.24 218.41 395.475 216.372 388.87 212.553C382.265 208.734 377.117 203.306 374.077 196.956C371.038 190.605 370.242 183.618 371.792 176.876C373.342 170.134 377.167 163.942 382.784 159.081C388.401 154.221 395.557 150.911 403.348 149.57C411.139 148.229 419.214 148.917 426.553 151.547C433.892 154.178 440.165 158.632 444.578 164.348C448.991 170.063 451.346 176.782 451.346 183.656C451.349 188.221 450.312 192.741 448.294 196.958C446.277 201.176 443.318 205.008 439.588 208.236C435.858 211.463 431.43 214.023 426.556 215.769C421.682 217.515 416.458 218.412 411.183 218.41Z" fill="#289DF2"/>
<path d="M651.878 198.85V488.001C651.878 491.717 647.906 496.982 640.021 496.982L82.2811 496.982C74.3961 496.982 70.4241 491.717 70.4241 488.001V198.85C70.4241 195.134 74.3961 189.87 82.2811 189.87L640.021 189.87C647.906 189.87 651.878 195.134 651.878 198.85Z" fill="black" stroke="#6A6A6A" stroke-width="19"/>
<path d="M166.629 220.714H104.699V232.525H166.629V220.714Z" fill="#284D89"/>
<path d="M241.165 220.714H179.235V232.525H241.165V220.714Z" fill="#284D89"/>
<path d="M430.138 220.714H368.208V232.525H430.138V220.714Z" fill="#284D89"/>
<path d="M619.093 220.714H557.163V232.525H619.093V220.714Z" fill="#284D89"/>
<path d="M360.332 220.714H249.581V232.525H360.332V220.714Z" fill="#FF4D6B"/>
<path d="M548.244 220.714H437.493V232.525H548.244V220.714Z" fill="#2889DB"/>
<path d="M115.909 211.321H105.054V217.073H115.909V211.321Z" fill="#2889DB"/>
<path d="M218.263 242.208H105.054V247.961H218.263V242.208Z" fill="white"/>
<path d="M138.644 252.343H105.054V258.095H138.644V252.343Z" fill="white"/>
<path d="M224.891 276.125H119.912C112.086 276.125 105.742 281.614 105.742 288.386V452.811C105.742 459.583 112.086 465.073 119.912 465.073H224.891C232.717 465.073 239.061 459.583 239.061 452.811V288.386C239.061 281.614 232.717 276.125 224.891 276.125Z" fill="#284D89"/>
<path d="M167.169 303.821H122.556V309.718H167.169V303.821Z" fill="white"/>
<path d="M167.169 317.001H122.556V322.899H167.169V317.001Z" fill="white"/>
<path d="M167.169 330.165H122.556V336.062H167.169V330.165Z" fill="white"/>
<path d="M149.852 385.124H122.556V391.021H149.852V385.124Z" fill="white"/>
<path d="M149.852 398.304H122.556V404.201H149.852V398.304Z" fill="white"/>
<path d="M196.737 398.304H169.44V404.201H196.737V398.304Z" fill="white"/>
<path d="M139.705 370.14H122.556V376.037H139.705V370.14Z" fill="white"/>
<path d="M205.135 370.14H196.03V376.037H205.135V370.14Z" fill="white"/>
<path d="M192.529 370.14H145.645V376.037H192.529V370.14Z" fill="#FF4D6B"/>
<path d="M129.11 347.889H122.556V353.786H129.11V347.889Z" fill="#2889DB"/>
<path d="M129.11 358.329H122.556V364.226H129.11V358.329Z" fill="#FF4D6B"/>
<path d="M158.939 405.425H156.5L162.347 397.853H164.804L158.939 405.425Z" fill="white"/>
<path d="M223.866 415.56H122.556V420.555H223.866V415.56Z" fill="#282E5C"/>
<path d="M223.866 426.919H122.556V431.914H223.866V426.919Z" fill="#282E5C"/>
<path d="M711.131 267.037H432.596C425.634 267.037 419.99 271.921 419.99 277.945V343.345C419.99 349.369 425.634 354.253 432.596 354.253H711.131C718.093 354.253 723.736 349.369 723.736 343.345V277.945C723.736 271.921 718.093 267.037 711.131 267.037Z" fill="#289DF2"/>
<path d="M510.277 323.366C510.277 323.366 525.676 290.658 569.768 298.521C613.86 306.383 636.259 349.403 692.938 314.278" stroke="white" stroke-width="1.13" stroke-miterlimit="10"/>
<path d="M653.037 325.17H646.743V330.616H653.037V325.17Z" fill="#289DF2" stroke="white" stroke-width="1.13" stroke-miterlimit="10"/>
<path d="M517.968 297.022H597.754" stroke="white" stroke-width="0.56" stroke-miterlimit="10"/>
<path d="M610.006 329.408H689.792" stroke="white" stroke-width="0.56" stroke-miterlimit="10"/>
<path d="M557.871 294.283H551.577V299.729H557.871V294.283Z" fill="#289DF2" stroke="white" stroke-width="1.13" stroke-miterlimit="10"/>
<path d="M473.187 282.779H413.007C407.979 282.779 403.902 286.306 403.902 290.658V368.77C403.902 373.121 407.979 376.649 413.007 376.649H473.187C478.216 376.649 482.292 373.121 482.292 368.77V290.658C482.292 286.306 478.216 282.779 473.187 282.779Z" fill="#284D89"/>
<path d="M460.749 296.104H416.136V301.421H460.749V296.104Z" fill="white"/>
<path d="M460.749 307.979H416.136V313.296H460.749V307.979Z" fill="white"/>
<path d="M432.931 319.853H416.136V325.17H432.931V319.853Z" fill="white"/>
<path d="M445.183 332.131H416.136V337.448H445.183V332.131Z" fill="#289DF2"/>
<path d="M435.724 344.005H416.136V349.322H435.724V344.005Z" fill="#289DF2"/>
<path d="M435.724 355.88H416.136V361.197H435.724V355.88Z" fill="white"/>
<path d="M674.747 255.227H706.233" stroke="#284D89" stroke-width="2.26" stroke-linecap="round" stroke-linejoin="round"/>
<path d="M603.973 409.002L593.118 416.365L577.515 418.815C577.515 418.815 562.861 417.993 561.446 417.993C560.031 417.993 550.106 411.048 550.106 411.048L531.672 405.312L518.918 409.469L503.799 406.618L481.101 405.377L459.371 412.692L441.403 415.157L425.334 419.652L407.385 420.877L388.001 407.858L370.052 404.99L351.618 413.981L337.02 417.993L320.262 417.526L299.296 428.562H286.802L265.688 435.007" stroke="#FF5C66" stroke-width="1.02" stroke-miterlimit="10"/>
<path d="M266.078 435.313H604.457" stroke="#F7F7F7" stroke-width="0.25" stroke-miterlimit="10"/>
<path d="M266.227 431.624H262.764V438.987H266.227V431.624Z" fill="#F7F7F7"/>
<path d="M605.873 431.624H602.409V438.987H605.873V431.624Z" fill="#F7F7F7"/>
<path d="M604.141 435.314V410.63" stroke="#F7F7F7" stroke-width="0.25" stroke-miterlimit="10"/>
<path d="M606.022 409.47C606.022 409.929 605.864 410.378 605.568 410.76C605.273 411.142 604.853 411.44 604.362 411.615C603.871 411.79 603.331 411.835 602.81 411.744C602.29 411.653 601.812 411.431 601.438 411.104C601.064 410.778 600.81 410.363 600.708 409.912C600.607 409.461 600.663 408.994 600.869 408.571C601.074 408.147 601.421 407.786 601.864 407.533C602.308 407.28 602.828 407.146 603.359 407.149C603.71 407.149 604.058 407.21 604.382 407.326C604.707 407.443 605.001 407.614 605.248 407.83C605.496 408.046 605.692 408.302 605.824 408.583C605.957 408.864 606.024 409.166 606.022 409.47Z" fill="#F7F7F7"/>
<path d="M267.259 447.503V441.597H267.94V443.777H267.997C268.047 443.701 268.116 443.602 268.205 443.483C268.295 443.362 268.424 443.255 268.591 443.16C268.76 443.064 268.989 443.016 269.278 443.016C269.65 443.016 269.979 443.109 270.264 443.296C270.548 443.482 270.77 443.747 270.93 444.089C271.089 444.431 271.169 444.835 271.169 445.3C271.169 445.769 271.089 446.176 270.93 446.52C270.77 446.862 270.549 447.127 270.267 447.316C269.984 447.502 269.658 447.595 269.289 447.595C269.005 447.595 268.777 447.548 268.606 447.454C268.435 447.358 268.303 447.249 268.211 447.128C268.118 447.005 268.047 446.903 267.997 446.822H267.917V447.503H267.259ZM267.928 445.288C267.928 445.623 267.977 445.918 268.075 446.174C268.173 446.427 268.316 446.626 268.505 446.771C268.693 446.913 268.924 446.984 269.197 446.984C269.481 446.984 269.719 446.909 269.909 446.759C270.101 446.607 270.245 446.403 270.342 446.148C270.44 445.89 270.489 445.604 270.489 445.288C270.489 444.977 270.441 444.696 270.344 444.446C270.25 444.195 270.107 443.996 269.915 443.85C269.724 443.701 269.485 443.627 269.197 443.627C268.92 443.627 268.687 443.698 268.499 443.838C268.311 443.976 268.168 444.171 268.072 444.42C267.976 444.668 267.928 444.958 267.928 445.288ZM274.067 447.595C273.64 447.595 273.272 447.501 272.963 447.313C272.655 447.122 272.418 446.857 272.25 446.517C272.085 446.175 272.002 445.777 272.002 445.323C272.002 444.869 272.085 444.469 272.25 444.123C272.418 443.775 272.65 443.504 272.948 443.31C273.248 443.114 273.598 443.016 273.998 443.016C274.229 443.016 274.456 443.055 274.681 443.132C274.906 443.208 275.111 443.333 275.295 443.506C275.48 443.677 275.627 443.904 275.737 444.187C275.846 444.469 275.901 444.817 275.901 445.231V445.519H272.487V444.931H275.209C275.209 444.681 275.159 444.458 275.059 444.262C274.961 444.066 274.821 443.911 274.638 443.798C274.457 443.684 274.244 443.627 273.998 443.627C273.727 443.627 273.492 443.695 273.294 443.829C273.098 443.962 272.947 444.135 272.842 444.348C272.736 444.562 272.683 444.79 272.683 445.035V445.427C272.683 445.761 272.741 446.045 272.856 446.277C272.973 446.508 273.136 446.684 273.343 446.805C273.551 446.924 273.792 446.984 274.067 446.984C274.246 446.984 274.407 446.959 274.551 446.909C274.698 446.857 274.824 446.78 274.929 446.678C275.035 446.574 275.117 446.446 275.174 446.292L275.832 446.476C275.763 446.699 275.646 446.895 275.483 447.065C275.319 447.232 275.118 447.363 274.877 447.457C274.637 447.549 274.367 447.595 274.067 447.595ZM278.862 443.074V443.651H276.567V443.074H278.862ZM277.236 442.013H277.917V446.234C277.917 446.426 277.944 446.571 278 446.667C278.058 446.761 278.131 446.824 278.219 446.857C278.31 446.888 278.405 446.903 278.505 446.903C278.58 446.903 278.641 446.899 278.689 446.892C278.737 446.882 278.776 446.874 278.805 446.869L278.943 447.48C278.897 447.497 278.833 447.514 278.75 447.532C278.667 447.551 278.562 447.561 278.436 447.561C278.243 447.561 278.055 447.519 277.87 447.437C277.688 447.354 277.536 447.228 277.415 447.059C277.296 446.89 277.236 446.676 277.236 446.419V442.013ZM281.189 447.607C280.909 447.607 280.654 447.554 280.425 447.448C280.196 447.34 280.015 447.186 279.88 446.984C279.746 446.78 279.678 446.534 279.678 446.246C279.678 445.992 279.728 445.786 279.828 445.629C279.928 445.469 280.062 445.344 280.229 445.254C280.396 445.163 280.581 445.096 280.783 445.052C280.987 445.006 281.191 444.969 281.397 444.942C281.666 444.908 281.884 444.882 282.052 444.865C282.221 444.845 282.344 444.814 282.421 444.769C282.499 444.725 282.539 444.648 282.539 444.539V444.516C282.539 444.231 282.461 444.01 282.305 443.852C282.151 443.695 281.918 443.616 281.605 443.616C281.28 443.616 281.025 443.687 280.84 443.829C280.656 443.972 280.526 444.123 280.451 444.285L279.805 444.054C279.921 443.785 280.074 443.576 280.267 443.426C280.461 443.274 280.672 443.168 280.901 443.108C281.132 443.047 281.359 443.016 281.582 443.016C281.724 443.016 281.887 443.033 282.072 443.068C282.258 443.101 282.438 443.169 282.611 443.273C282.786 443.377 282.931 443.533 283.046 443.743C283.162 443.952 283.219 444.233 283.219 444.585V447.503H282.539V446.903H282.504C282.458 446.999 282.381 447.102 282.274 447.212C282.166 447.321 282.023 447.415 281.844 447.491C281.665 447.568 281.447 447.607 281.189 447.607ZM281.293 446.995C281.562 446.995 281.789 446.943 281.974 446.837C282.16 446.731 282.3 446.595 282.395 446.427C282.491 446.26 282.539 446.084 282.539 445.9V445.277C282.51 445.311 282.447 445.343 282.349 445.372C282.252 445.399 282.141 445.423 282.014 445.444C281.889 445.463 281.767 445.481 281.648 445.496C281.531 445.509 281.435 445.521 281.362 445.531C281.186 445.554 281.02 445.591 280.866 445.643C280.715 445.693 280.592 445.769 280.497 445.871C280.405 445.971 280.359 446.107 280.359 446.28C280.359 446.517 280.446 446.696 280.621 446.817C280.798 446.936 281.022 446.995 281.293 446.995ZM288.671 443.074V443.651H286.376V443.074H288.671ZM287.045 442.013H287.726V446.234C287.726 446.426 287.753 446.571 287.809 446.667C287.867 446.761 287.94 446.824 288.028 446.857C288.119 446.888 288.214 446.903 288.314 446.903C288.389 446.903 288.45 446.899 288.498 446.892C288.546 446.882 288.585 446.874 288.614 446.869L288.752 447.48C288.706 447.497 288.642 447.514 288.559 447.532C288.476 447.551 288.371 447.561 288.245 447.561C288.052 447.561 287.864 447.519 287.679 447.437C287.497 447.354 287.345 447.228 287.224 447.059C287.105 446.89 287.045 446.676 287.045 446.419V442.013ZM291.504 447.595C291.078 447.595 290.71 447.501 290.4 447.313C290.092 447.122 289.855 446.857 289.688 446.517C289.522 446.175 289.44 445.777 289.44 445.323C289.44 444.869 289.522 444.469 289.688 444.123C289.855 443.775 290.088 443.504 290.386 443.31C290.686 443.114 291.035 443.016 291.435 443.016C291.666 443.016 291.894 443.055 292.119 443.132C292.344 443.208 292.548 443.333 292.733 443.506C292.917 443.677 293.064 443.904 293.174 444.187C293.284 444.469 293.338 444.817 293.338 445.231V445.519H289.924V444.931H292.646C292.646 444.681 292.596 444.458 292.496 444.262C292.398 444.066 292.258 443.911 292.075 443.798C291.895 443.684 291.681 443.627 291.435 443.627C291.164 443.627 290.93 443.695 290.732 443.829C290.536 443.962 290.385 444.135 290.279 444.348C290.173 444.562 290.12 444.79 290.12 445.035V445.427C290.12 445.761 290.178 446.045 290.293 446.277C290.411 446.508 290.573 446.684 290.781 446.805C290.988 446.924 291.23 446.984 291.504 446.984C291.683 446.984 291.845 446.959 291.989 446.909C292.135 446.857 292.261 446.78 292.367 446.678C292.472 446.574 292.554 446.446 292.612 446.292L293.269 446.476C293.2 446.699 293.084 446.895 292.92 447.065C292.757 447.232 292.555 447.363 292.315 447.457C292.074 447.549 291.804 447.595 291.504 447.595ZM297.511 444.066L296.9 444.239C296.861 444.137 296.804 444.038 296.729 443.942C296.656 443.844 296.556 443.763 296.429 443.7C296.303 443.636 296.14 443.604 295.942 443.604C295.671 443.604 295.445 443.667 295.265 443.792C295.086 443.915 294.996 444.072 294.996 444.262C294.996 444.431 295.058 444.565 295.181 444.663C295.304 444.761 295.496 444.842 295.758 444.908L296.415 445.069C296.811 445.165 297.106 445.312 297.3 445.51C297.494 445.706 297.592 445.959 297.592 446.269C297.592 446.523 297.519 446.749 297.372 446.949C297.228 447.149 297.026 447.307 296.767 447.422C296.507 447.538 296.206 447.595 295.861 447.595C295.41 447.595 295.036 447.497 294.74 447.301C294.444 447.105 294.256 446.819 294.177 446.442L294.823 446.28C294.885 446.519 295.001 446.697 295.172 446.817C295.345 446.936 295.571 446.995 295.85 446.995C296.167 446.995 296.419 446.928 296.605 446.794C296.794 446.657 296.888 446.494 296.888 446.303C296.888 446.15 296.834 446.021 296.726 445.917C296.619 445.811 296.454 445.732 296.231 445.681L295.492 445.508C295.087 445.411 294.789 445.262 294.598 445.061C294.41 444.857 294.316 444.602 294.316 444.296C294.316 444.047 294.386 443.825 294.526 443.633C294.669 443.441 294.862 443.29 295.106 443.181C295.352 443.071 295.631 443.016 295.942 443.016C296.38 443.016 296.725 443.112 296.974 443.305C297.226 443.497 297.405 443.751 297.511 444.066ZM300.542 443.074V443.651H298.247V443.074H300.542ZM298.916 442.013H299.596V446.234C299.596 446.426 299.624 446.571 299.68 446.667C299.738 446.761 299.811 446.824 299.899 446.857C299.989 446.888 300.085 446.903 300.185 446.903C300.26 446.903 300.321 446.899 300.369 446.892C300.417 446.882 300.456 446.874 300.484 446.869L300.623 447.48C300.577 447.497 300.512 447.514 300.43 447.532C300.347 447.551 300.242 447.561 300.115 447.561C299.923 447.561 299.735 447.519 299.55 447.437C299.368 447.354 299.216 447.228 299.095 447.059C298.975 446.89 298.916 446.676 298.916 446.419V442.013Z" fill="#F7F7F7"/>
<path d="M554.668 445.948H344.207V449.219H554.668V445.948Z" fill="#28385E"/>
<path d="M473.392 445.948H344.207V449.219H473.392V445.948Z" fill="#FF4D6B"/>
<path d="M447.696 452.215H344.207V455.486H447.696V452.215Z" fill="#28385E"/>
<path d="M278.609 461.963H291.364L293.021 458.886H267.251V464.009H276.244L278.609 461.963Z" fill="#FF4D6B"/>
<path d="M305.05 458.854H303.635V460.078H305.05V458.854Z" fill="#F7F7F7"/>
<path d="M313.838 458.854H312.423V460.078H313.838V458.854Z" fill="#F7F7F7"/>
<path d="M322.646 458.854H321.23V460.078H322.646V458.854Z" fill="#F7F7F7"/>
<path d="M590.045 396.234C589.706 396.234 589.402 396.167 589.131 396.032C588.86 395.898 588.642 395.713 588.479 395.479C588.315 395.244 588.226 394.977 588.211 394.677H588.903C588.93 394.944 589.051 395.165 589.266 395.34C589.483 395.513 589.743 395.6 590.045 395.6C590.287 395.6 590.502 395.543 590.691 395.43C590.881 395.316 591.03 395.16 591.138 394.962C591.247 394.763 591.302 394.537 591.302 394.285C591.302 394.027 591.245 393.797 591.132 393.596C591.02 393.392 590.866 393.231 590.67 393.114C590.474 392.997 590.25 392.937 589.999 392.935C589.818 392.933 589.632 392.961 589.442 393.019C589.252 393.075 589.095 393.147 588.972 393.235L588.303 393.154L588.661 390.248H591.729V390.882H589.26L589.053 392.624H589.087C589.208 392.528 589.36 392.448 589.543 392.385C589.726 392.321 589.916 392.289 590.114 392.289C590.475 392.289 590.797 392.376 591.08 392.549C591.364 392.72 591.587 392.955 591.749 393.252C591.912 393.55 591.994 393.891 591.994 394.273C591.994 394.65 591.909 394.986 591.74 395.282C591.573 395.577 591.342 395.809 591.048 395.98C590.754 396.149 590.42 396.234 590.045 396.234ZM595.066 396.234C594.631 396.234 594.261 396.116 593.955 395.879C593.65 395.641 593.416 395.296 593.255 394.844C593.093 394.391 593.013 393.843 593.013 393.201C593.013 392.562 593.093 392.017 593.255 391.566C593.418 391.112 593.653 390.766 593.958 390.528C594.266 390.287 594.635 390.167 595.066 390.167C595.496 390.167 595.864 390.287 596.17 390.528C596.478 390.766 596.712 391.112 596.874 391.566C597.037 392.017 597.119 392.562 597.119 393.201C597.119 393.843 597.038 394.391 596.876 394.844C596.715 395.296 596.481 395.641 596.176 395.879C595.87 396.116 595.5 396.234 595.066 396.234ZM595.066 395.6C595.496 395.6 595.831 395.392 596.069 394.977C596.307 394.562 596.427 393.97 596.427 393.201C596.427 392.689 596.372 392.254 596.262 391.894C596.155 391.535 595.999 391.261 595.795 391.073C595.593 390.884 595.35 390.79 595.066 390.79C594.639 390.79 594.305 391 594.065 391.421C593.825 391.841 593.705 392.434 593.705 393.201C593.705 393.712 593.758 394.146 593.866 394.504C593.974 394.862 594.128 395.134 594.33 395.32C594.534 395.506 594.779 395.6 595.066 395.6ZM600.141 396.234C599.706 396.234 599.336 396.116 599.03 395.879C598.725 395.641 598.491 395.296 598.33 394.844C598.168 394.391 598.088 393.843 598.088 393.201C598.088 392.562 598.168 392.017 598.33 391.566C598.493 391.112 598.728 390.766 599.033 390.528C599.341 390.287 599.71 390.167 600.141 390.167C600.571 390.167 600.939 390.287 601.245 390.528C601.553 390.766 601.787 391.112 601.949 391.566C602.112 392.017 602.194 392.562 602.194 393.201C602.194 393.843 602.113 394.391 601.951 394.844C601.79 395.296 601.556 395.641 601.251 395.879C600.945 396.116 600.575 396.234 600.141 396.234ZM600.141 395.6C600.571 395.6 600.906 395.392 601.144 394.977C601.382 394.562 601.502 393.97 601.502 393.201C601.502 392.689 601.447 392.254 601.337 391.894C601.23 391.535 601.074 391.261 600.87 391.073C600.668 390.884 600.425 390.79 600.141 390.79C599.714 390.79 599.38 391 599.14 391.421C598.9 391.841 598.78 392.434 598.78 393.201C598.78 393.712 598.833 394.146 598.941 394.504C599.049 394.862 599.203 395.134 599.405 395.32C599.609 395.506 599.854 395.6 600.141 395.6Z" fill="#F7F7F7"/>
<path d="M569.806 455.76H566.641L561.613 445.948H564.76L569.806 455.76Z" fill="#28385E"/>
<path d="M577.998 455.76H574.833L569.806 445.948H572.952L577.998 455.76Z" fill="#28385E"/>
<path d="M586.172 455.76H583.025L577.998 445.948H581.145L586.172 455.76Z" fill="#28385E"/>
<path d="M594.366 455.76H591.219L586.173 445.948H589.338L594.366 455.76Z" fill="#28385E"/>
<path d="M602.409 455.76H599.262L594.216 445.948H597.363L602.409 455.76Z" fill="#28385E"/>
<path d="M588.723 117.838H537.5V125.781H588.723V117.838Z" fill="#A9CCEA"/>
<path d="M614.735 132.049H537.5V139.992H614.735V132.049Z" fill="#A9CCEA"/>
<path d="M632.759 146.26H537.5V154.203H632.759V146.26Z" fill="#A9CCEA"/>
<path d="M573.92 160.471H537.5V168.414H573.92V160.471Z" fill="#A9CCEA"/>
<path d="M51.2233 213.528H0V221.472H51.2233V213.528Z" fill="#2889DB"/>
<path d="M77.2353 227.739H0V235.683H77.2353V227.739Z" fill="white"/>
<path d="M95.2593 241.951H0V249.894H95.2593V241.951Z" fill="white"/>
<path d="M36.4205 256.146H0V264.089H36.4205V256.146Z" fill="white"/>
<path d="M346.143 492.319H127.788V516.842H346.143V492.319Z" stroke="white" stroke-width="1.13" stroke-miterlimit="10"/>
<path d="M243.623 299.133H233.121V354.849H243.623V299.133Z" stroke="#289DF2" stroke-width="1.13" stroke-miterlimit="10"/>
<path d="M665.303 455.881C685.029 453.129 698.442 437.06 695.261 419.991C692.08 402.921 673.51 391.315 653.784 394.068C634.058 396.82 620.646 412.889 623.827 429.958C627.007 447.028 645.577 458.634 665.303 455.881Z" fill="#FF4D6B"/>
<path d="M656.947 422.021L642.572 426.581L656.947 431.092V435.765L636.465 429.014V424.18L656.947 417.429V422.021Z" fill="#F9FBFC"/>
<path d="M661.639 417.397L682.121 424.148V428.982L661.639 435.733V431.06L675.995 426.549L661.639 421.989V417.397Z" fill="#F9FBFC"/>
<path d="M719.882 450.54C719.882 451.35 719.604 452.142 719.083 452.815C718.563 453.489 717.823 454.013 716.958 454.322C716.093 454.632 715.141 454.712 714.223 454.552C713.305 454.393 712.462 454.002 711.801 453.428C711.141 452.854 710.692 452.123 710.511 451.328C710.331 450.533 710.427 449.71 710.788 448.962C711.149 448.215 711.758 447.577 712.538 447.129C713.319 446.681 714.235 446.444 715.171 446.447C716.422 446.452 717.62 446.885 718.503 447.652C719.386 448.419 719.882 449.457 719.882 450.54Z" stroke="white" stroke-width="1.13" stroke-miterlimit="10"/>
<path d="M287.361 154.396H116.244V169.832H287.361V154.396Z" stroke="white" stroke-width="1.13" stroke-miterlimit="10"/>
<path d="M229.62 159.391H123.599V163.935H229.62V159.391Z" fill="white"/>
<path d="M387.089 274.916H261.814V280.362H387.089V274.916Z" fill="#284D89"/>
<path d="M318.586 274.916H261.814V280.362H318.586V274.916Z" fill="#2889DB"/>
<path d="M387.089 288.982H261.814V294.428H387.089V288.982Z" fill="#284D89"/>
<path d="M349.03 288.982H261.814V294.428H349.03V288.982Z" fill="#FF4D6B"/>
<path d="M387.089 303.064H261.814V308.51H387.089V303.064Z" fill="#284D89"/>
<path d="M287.361 303.064H261.814V308.51H287.361V303.064Z" fill="#1AE5FF"/>
<path d="M264.812 265.378H262.354V267.505H264.812V265.378Z" fill="#284D89"/>
<path d="M273.21 265.378H270.752V267.505H273.21V265.378Z" fill="#284D89"/>
<path d="M281.607 265.378H279.149V267.505H281.607V265.378Z" fill="#284D89"/>
<path d="M499.534 339.607H495.456V343.136H499.534V339.607Z" fill="white"/>
<path d="M513.537 339.607H509.459V343.136H513.537V339.607Z" fill="white"/>
<path d="M527.539 339.607H523.461V343.136H527.539V339.607Z" fill="white"/>
<path d="M562.041 199.221H554.389V205.843H562.041V199.221Z" fill="white"/>
<path d="M588.295 199.221H580.643V205.843H588.295V199.221Z" fill="white"/>
<path d="M614.531 199.221H606.878V205.843H614.531V199.221Z" fill="white"/>
<path d="M453.562 472.968H445.909V479.59H453.562V472.968Z" fill="white"/>
<path d="M479.816 472.968H472.163V479.59H479.816V472.968Z" fill="white"/>
<path d="M506.051 472.968H498.398V479.59H506.051V472.968Z" fill="white"/>
<path d="M128.849 289.546H124.771V293.074H128.849V289.546Z" fill="white"/>
<path d="M142.833 289.546H138.755V293.074H142.833V289.546Z" fill="white"/>
<path d="M156.836 289.546H152.758V293.074H156.836V289.546Z" fill="white"/>
<path d="M697.147 285.212H629.259V290.964H697.147V285.212Z" fill="white"/>
<path d="M649.405 295.347H629.259V301.099H649.405V295.347Z" fill="#287DD1"/>
<path d="M81.6107 297.022H66.901V284.293H53.2526V297.022H38.5615V308.816H53.2526V321.545H66.901V308.816H81.6107V297.022Z" fill="#1AE5FF"/>
<path d="M42.2667 332.437H33.3105V324.687H24.9874V332.437H16.0312V339.639H24.9874V347.405H33.3105V339.639H42.2667V332.437Z" fill="#2889DB"/>
<path d="M287.565 325.686C283.016 325.683 278.568 326.847 274.784 329.032C271 331.216 268.05 334.323 266.307 337.959C264.563 341.594 264.105 345.596 264.99 349.457C265.876 353.318 268.064 356.865 271.279 359.649C274.495 362.434 278.592 364.331 283.053 365.1C287.514 365.869 292.139 365.476 296.342 363.97C300.545 362.465 304.138 359.914 306.665 356.641C309.193 353.369 310.542 349.521 310.542 345.585C310.544 342.972 309.952 340.385 308.798 337.971C307.645 335.557 305.953 333.363 303.819 331.515C301.685 329.667 299.151 328.201 296.362 327.201C293.573 326.201 290.584 325.686 287.565 325.686ZM287.565 355.945C285.192 355.948 282.871 355.342 280.896 354.203C278.921 353.064 277.381 351.444 276.471 349.547C275.562 347.65 275.323 345.563 275.785 343.548C276.247 341.534 277.389 339.684 279.067 338.231C280.745 336.779 282.884 335.791 285.212 335.391C287.539 334.991 289.952 335.198 292.144 335.985C294.336 336.773 296.208 338.105 297.524 339.814C298.841 341.523 299.541 343.531 299.538 345.585C299.533 348.33 298.269 350.961 296.024 352.9C293.78 354.839 290.737 355.929 287.565 355.929V355.945Z" fill="#284D89"/>
<path d="M271.85 343.603C272.893 343.591 273.912 343.327 274.791 342.84C275.669 342.353 276.373 341.663 276.821 340.848C277.824 339.145 279.351 337.715 281.233 336.716C283.116 335.717 285.282 335.188 287.491 335.188C289.699 335.188 291.865 335.717 293.748 336.716C295.631 337.715 297.158 339.145 298.16 340.848C298.608 341.663 299.312 342.353 300.191 342.84C301.069 343.327 302.088 343.591 303.131 343.603C304.052 343.588 304.954 343.377 305.757 342.988C306.561 342.599 307.24 342.044 307.736 341.373C308.232 340.701 308.528 339.934 308.599 339.14C308.669 338.346 308.512 337.549 308.14 336.82C306.247 333.477 303.308 330.661 299.658 328.691C296.008 326.721 291.792 325.677 287.491 325.677C283.189 325.677 278.973 326.721 275.323 328.691C271.673 330.661 268.734 333.477 266.841 336.82C266.47 337.549 266.312 338.346 266.383 339.14C266.453 339.934 266.749 340.701 267.245 341.373C267.741 342.044 268.421 342.599 269.224 342.988C270.027 343.377 270.929 343.588 271.85 343.603Z" fill="#289DF2"/>
<path d="M326.164 345.569C326.16 349.505 327.506 353.354 330.03 356.628C332.555 359.902 336.145 362.455 340.347 363.964C344.548 365.473 349.172 365.869 353.634 365.103C358.096 364.337 362.195 362.443 365.413 359.661C368.631 356.879 370.823 353.333 371.712 349.473C372.601 345.612 372.146 341.61 370.407 337.974C368.667 334.337 365.719 331.228 361.937 329.041C358.155 326.853 353.709 325.686 349.16 325.686C343.064 325.686 337.218 327.78 332.906 331.509C328.594 335.237 326.169 340.294 326.164 345.569ZM361.132 345.569C361.132 347.621 360.428 349.628 359.11 351.335C357.792 353.042 355.918 354.372 353.726 355.157C351.533 355.941 349.121 356.146 346.795 355.744C344.468 355.343 342.332 354.353 340.655 352.9C338.979 351.447 337.839 349.597 337.378 347.583C336.917 345.569 337.157 343.482 338.068 341.587C338.978 339.691 340.518 338.071 342.493 336.933C344.467 335.795 346.787 335.189 349.16 335.192C350.741 335.182 352.31 335.442 353.774 335.959C355.239 336.476 356.57 337.239 357.692 338.204C358.814 339.169 359.704 340.316 360.311 341.58C360.917 342.844 361.228 344.2 361.225 345.569H361.132Z" fill="#284D89"/>
<path d="M346.889 359.103C346.88 358.199 346.579 357.315 346.02 356.552C345.46 355.788 344.665 355.176 343.723 354.785C341.754 353.92 340.101 352.6 338.946 350.972C337.79 349.344 337.179 347.471 337.179 345.56C337.179 343.65 337.79 341.777 338.946 340.148C340.101 338.52 341.754 337.201 343.723 336.336C344.665 335.944 345.46 335.332 346.02 334.569C346.579 333.806 346.88 332.922 346.889 332.018C346.871 331.223 346.626 330.445 346.178 329.752C345.729 329.059 345.09 328.472 344.317 328.043C343.543 327.615 342.66 327.358 341.744 327.295C340.829 327.232 339.91 327.366 339.068 327.684C335.2 329.32 331.941 331.863 329.661 335.024C327.382 338.184 326.173 341.835 326.173 345.56C326.173 349.286 327.382 352.937 329.661 356.097C331.941 359.257 335.2 361.8 339.068 363.437C339.91 363.755 340.829 363.888 341.744 363.826C342.66 363.763 343.543 363.506 344.317 363.077C345.09 362.649 345.729 362.062 346.178 361.369C346.626 360.675 346.871 359.897 346.889 359.103Z" fill="#FF4D6B"/>
<path d="M221.93 267.037H179.942V354.253H221.93V267.037Z" stroke="#289DF2" stroke-width="1.13" stroke-miterlimit="10"/>
<path d="M198.134 283.842H185.882V286.968H198.134V283.842Z" fill="#1AE5FF"/>
<path d="M198.134 290.835H185.882V293.961H198.134V290.835Z" fill="#1AE5FF"/>
<path d="M198.134 297.812H185.882V300.937H198.134V297.812Z" fill="#1AE5FF"/>
<path d="M198.134 334.161H185.882V337.287H198.134V334.161Z" fill="#1AE5FF"/>
<path d="M203.72 308.059H185.882V311.185H203.72V308.059Z" fill="#1AE5FF"/>
<path d="M203.72 315.052H185.882V318.178H203.72V315.052Z" fill="white"/>
<path d="M203.72 322.044H185.882V325.17H203.72V322.044Z" fill="white"/>
<path d="M82.654 376.053H29.457V422.085H82.654V376.053Z" fill="#289DF2"/>
<path d="M54.6677 386.945H1.4707V432.978H54.6677V386.945Z" stroke="white" stroke-width="1.13" stroke-miterlimit="10"/>
<path d="M684.541 509.285H662.142V528.668H684.541V509.285Z" stroke="white" stroke-width="1.13" stroke-miterlimit="10"/>
<path d="M393.4 478.704H412.3L422.783 487.791H531.97L548.765 473.242H607.566" stroke="white" stroke-width="1.13" stroke-miterlimit="10"/>
<path d="M387.889 483.699C390.933 483.699 393.401 481.563 393.401 478.929C393.401 476.295 390.933 474.16 387.889 474.16C384.846 474.16 382.378 476.295 382.378 478.929C382.378 481.563 384.846 483.699 387.889 483.699Z" stroke="white" stroke-width="1.13" stroke-miterlimit="10"/>
<path d="M613.246 477.785C616.29 477.785 618.757 475.65 618.757 473.016C618.757 470.382 616.29 468.247 613.246 468.247C610.202 468.247 607.734 470.382 607.734 473.016C607.734 475.65 610.202 477.785 613.246 477.785Z" stroke="white" stroke-width="1.13" stroke-miterlimit="10"/>
<path d="M687.353 222.213C687.356 223.412 686.949 224.585 686.182 225.583C685.415 226.582 684.323 227.361 683.044 227.822C681.765 228.283 680.357 228.405 678.997 228.173C677.638 227.941 676.389 227.365 675.408 226.519C674.427 225.672 673.758 224.593 673.486 223.417C673.215 222.241 673.352 221.022 673.882 219.914C674.411 218.807 675.308 217.859 676.46 217.193C677.612 216.527 678.966 216.171 680.352 216.171C682.205 216.171 683.983 216.807 685.296 217.94C686.608 219.072 687.348 220.609 687.353 222.213Z" fill="#289DF2"/>
<path d="M40.6662 458.419C40.6662 459.617 40.2556 460.788 39.4863 461.784C38.717 462.781 37.6236 463.557 36.3443 464.016C35.0651 464.474 33.6574 464.594 32.2993 464.36C30.9412 464.127 29.6938 463.55 28.7146 462.702C27.7355 461.855 27.0687 460.776 26.7986 459.6C26.5285 458.425 26.6671 457.207 27.197 456.1C27.7269 454.993 28.6242 454.047 29.7756 453.381C30.9269 452.716 32.2805 452.36 33.6651 452.36C34.5852 452.358 35.4967 452.513 36.3472 452.817C37.1978 453.121 37.9705 453.567 38.6211 454.13C39.2717 454.693 39.7873 455.362 40.1383 456.098C40.4893 456.834 40.6687 457.622 40.6662 458.419Z" fill="#FF4D6B"/>
<path d="M72.8592 480.815C72.8592 482.912 72.1407 484.961 70.7944 486.705C69.4482 488.448 67.5347 489.807 65.2959 490.61C63.0572 491.412 60.5938 491.622 58.2171 491.213C55.8405 490.804 53.6574 489.794 51.944 488.311C50.2305 486.829 49.0636 484.94 48.5909 482.883C48.1181 480.826 48.3608 478.695 49.2881 476.758C50.2154 474.82 51.7858 473.165 53.8006 472C55.8154 470.835 58.1842 470.213 60.6074 470.213C63.8568 470.213 66.9731 471.33 69.2707 473.318C71.5684 475.306 72.8592 478.003 72.8592 480.815Z" fill="#FF4D6B"/>
<path d="M489.982 516.552H440.993V526.235H489.982V516.552Z" stroke="white" stroke-width="1.13" stroke-miterlimit="10"/>
<path d="M548.43 534.726H440.993V544.41H548.43V534.726Z" stroke="white" stroke-width="1.13" stroke-miterlimit="10"/>
<path d="M140.859 525.832L128.998 536.112" stroke="white" stroke-width="1.13" stroke-linecap="round" stroke-linejoin="round"/>
<path d="M152.292 525.832L140.412 536.112" stroke="white" stroke-width="1.13" stroke-linecap="round" stroke-linejoin="round"/>
<path d="M163.706 525.832L151.826 536.112" stroke="white" stroke-width="1.13" stroke-linecap="round" stroke-linejoin="round"/>
<path d="M175.12 525.832L163.24 536.112" stroke="white" stroke-width="1.13" stroke-linecap="round" stroke-linejoin="round"/>
<path d="M186.534 525.832L174.654 536.112" stroke="white" stroke-width="1.13" stroke-linecap="round" stroke-linejoin="round"/>
</svg>
